{"glyphs":{"0":{"ha":1060,"x_min":76,"x_max":983,"o":"m 533 -26 q 298 40 401 -26 q 135 247 194 107 q 76 606 76 388 q 92 804 76 715 q 136 963 107 893 q 206 1085 165 1033 q 298 1169 247 1136 q 408 1219 349 1203 q 533 1236 468 1236 q 764 1169 663 1236 q 924 963 865 1103 q 983 606 983 824 q 968 407 983 496 q 924 248 953 318 q 854 126 894 178 q 764 40 814 74 q 656 -10 714 7 q 533 -26 597 -26 m 529 92 q 619 106 576 92 q 697 147 661 119 q 763 217 733 175 q 812 317 792 260 q 842 446 832 374 q 853 606 853 518 q 812 895 853 782 q 698 1063 771 1008 q 529 1118 625 1118 q 440 1105 482 1118 q 362 1064 397 1092 q 297 994 326 1036 q 248 896 268 953 q 217 767 228 839 q 207 606 207 694 q 248 317 207 431 q 362 147 289 203 q 529 92 435 92 z "},"1":{"ha":625,"x_min":3,"x_max":397,"o":"m 338 -19 q 290 -9 304 -19 q 276 19 276 1 l 276 1064 q 214 1014 246 1039 q 151 968 182 989 q 94 931 121 947 q 58 920 75 921 q 21 946 40 919 q 6 990 3 974 q 39 1026 8 1007 q 112 1076 78 1051 q 183 1131 146 1100 q 264 1206 219 1161 q 286 1224 276 1218 q 308 1233 296 1231 q 342 1236 321 1236 q 386 1224 375 1236 q 397 1199 397 1213 l 397 19 q 383 -9 397 1 q 338 -19 369 -19 z "},"2":{"ha":921,"x_min":49,"x_max":839,"o":"m 99 0 q 66 15 81 0 q 50 51 51 29 q 68 92 49 72 l 349 369 q 463 487 413 432 q 553 590 514 542 q 619 681 592 638 q 665 765 647 725 q 690 842 682 804 q 699 915 699 879 q 667 1038 699 993 q 575 1103 635 1083 q 432 1124 515 1124 q 290 1094 351 1124 q 172 1015 229 1064 q 132 997 149 997 q 94 1015 115 997 q 74 1056 69 1039 q 90 1089 78 1074 q 172 1158 119 1124 q 297 1214 225 1192 q 449 1236 368 1236 q 593 1217 526 1236 q 711 1158 660 1197 q 791 1061 763 1119 q 819 924 819 1003 q 810 834 819 879 q 781 742 801 789 q 731 644 761 694 q 657 540 700 594 q 558 424 614 485 q 431 293 501 363 l 247 111 l 800 111 q 829 100 819 111 q 839 60 839 89 q 831 15 839 31 q 800 0 824 0 l 99 0 z "},"3":{"ha":921,"x_min":31,"x_max":840,"o":"m 435 -26 q 287 -1 360 -26 q 152 76 214 24 q 46 211 90 129 q 31 256 32 238 q 60 292 31 275 q 101 306 83 307 q 129 285 118 306 q 215 174 168 218 q 317 107 261 129 q 432 85 372 85 q 546 101 494 85 q 635 151 597 118 q 694 232 674 183 q 714 344 714 281 q 676 474 714 417 q 572 565 639 531 q 411 599 504 599 l 335 599 q 305 614 313 599 q 297 658 297 629 q 307 699 297 689 q 335 710 317 710 l 415 710 q 527 728 481 710 q 604 776 574 746 q 649 846 635 807 q 664 925 664 885 q 644 1015 664 978 q 590 1077 624 1053 q 515 1113 556 1101 q 436 1125 475 1125 q 326 1108 375 1125 q 240 1064 278 1092 q 169 1004 201 1036 q 130 985 149 983 q 90 1004 111 986 q 71 1043 65 1025 q 88 1076 76 1061 q 167 1148 117 1111 q 287 1210 218 1185 q 436 1236 356 1236 q 574 1217 511 1236 q 686 1158 638 1197 q 762 1062 735 1119 q 789 929 789 1004 q 777 844 789 886 q 740 767 765 803 q 676 702 715 731 q 581 657 636 674 q 726 588 669 636 q 812 476 783 540 q 840 340 840 413 q 813 188 840 256 q 734 73 786 121 q 607 -1 682 25 q 435 -26 532 -26 z "},"4":{"ha":938,"x_min":38,"x_max":914,"o":"m 693 -19 q 647 -10 663 -19 q 632 19 632 0 l 632 310 l 94 310 q 53 333 68 310 q 50 383 38 356 l 422 1194 q 447 1227 433 1218 q 494 1236 461 1236 q 529 1230 515 1236 q 547 1210 543 1224 q 540 1175 551 1197 l 189 421 l 632 421 l 632 817 q 693 854 632 854 q 739 845 724 854 q 754 817 754 836 l 754 421 l 875 421 q 904 410 894 421 q 914 368 914 399 q 906 325 914 340 q 875 310 899 310 l 754 310 l 754 19 q 693 -19 754 -19 z "},"5":{"ha":921,"x_min":61,"x_max":842,"o":"m 443 -26 q 342 -14 390 -26 q 248 24 293 -1 q 161 88 203 50 q 81 178 119 126 q 65 211 68 193 q 85 251 61 229 q 124 272 106 271 q 161 250 143 272 q 244 162 203 199 q 333 105 285 125 q 442 85 381 85 q 565 103 514 85 q 650 160 617 122 q 699 254 683 199 q 715 382 715 310 q 698 497 715 443 q 647 590 681 550 q 563 651 614 629 q 446 674 513 674 q 361 663 401 674 q 289 633 321 651 q 233 588 257 614 q 184 558 208 560 q 145 570 160 557 q 131 599 131 583 l 153 1186 q 163 1206 153 1197 q 188 1215 172 1215 l 768 1215 q 797 1204 788 1215 q 806 1164 806 1193 q 799 1119 806 1135 q 768 1104 792 1104 l 261 1104 l 247 715 q 303 751 272 735 q 372 776 335 767 q 450 785 408 785 q 663 733 575 785 q 796 590 750 681 q 842 382 842 499 q 814 207 842 283 q 733 78 786 131 q 608 0 681 26 q 443 -26 535 -26 z "},"6":{"ha":990,"x_min":104,"x_max":921,"o":"m 526 -26 q 297 38 392 -26 q 153 218 203 103 q 104 486 104 333 q 129 711 104 607 q 203 900 154 815 q 324 1049 251 985 q 491 1158 396 1114 q 701 1225 586 1203 q 767 1226 749 1233 q 788 1182 785 1219 q 784 1141 790 1154 q 747 1121 778 1128 q 548 1059 633 1099 q 402 961 463 1019 q 305 828 342 903 q 251 663 268 753 q 233 468 233 572 q 256 306 233 378 q 317 185 278 235 q 410 110 357 136 q 525 85 464 85 q 639 106 589 85 q 723 165 689 126 q 775 259 757 204 q 793 381 793 314 q 762 527 793 465 q 674 623 731 589 q 540 657 617 657 q 459 644 500 657 q 381 603 418 631 q 313 534 344 576 q 258 433 281 492 q 224 299 235 375 l 163 386 q 221 565 182 492 q 312 683 260 639 q 423 748 364 728 q 542 768 482 768 q 697 741 628 768 q 816 664 765 714 q 894 542 867 614 q 921 382 921 471 q 894 215 921 290 q 817 85 868 139 q 692 3 765 32 q 526 -26 619 -26 z "},"7":{"ha":747,"x_min":-7,"x_max":726,"o":"m 201 -14 q 163 11 169 -3 q 167 54 156 25 l 575 1104 l 32 1104 q 3 1115 13 1104 q -7 1157 -7 1126 q 1 1200 -7 1185 q 32 1215 8 1215 l 672 1215 q 712 1193 697 1215 q 717 1146 726 1171 l 286 35 q 257 -14 272 0 q 201 -14 242 -28 z "},"8":{"ha":921,"x_min":57,"x_max":865,"o":"m 463 -26 q 292 -4 367 -26 q 164 62 217 18 q 84 172 111 106 q 57 326 57 239 q 72 417 57 371 q 117 508 86 464 q 196 588 149 551 q 310 651 243 625 q 206 724 251 682 q 135 823 161 767 q 110 950 110 879 q 138 1080 110 1025 q 215 1170 165 1135 q 328 1223 264 1206 q 463 1240 392 1240 q 597 1224 533 1240 q 708 1172 660 1207 q 785 1081 757 1136 q 813 950 813 1026 q 802 872 813 911 q 769 796 792 833 q 708 726 746 758 q 615 668 669 693 q 747 586 690 636 q 834 471 803 536 q 865 325 865 406 q 838 177 865 242 q 759 67 811 113 q 633 -3 707 21 q 463 -26 558 -26 m 463 85 q 580 99 529 85 q 666 144 631 114 q 719 219 701 174 q 738 325 738 264 q 702 444 738 392 q 601 535 667 496 q 443 603 535 575 q 335 554 383 583 q 253 489 288 525 q 202 412 219 453 q 185 325 185 371 q 203 217 185 263 q 257 142 221 172 q 344 99 293 113 q 463 85 396 85 m 481 713 q 592 766 546 732 q 663 847 638 800 q 688 950 688 893 q 669 1031 688 997 q 620 1087 651 1065 q 548 1119 589 1108 q 463 1129 507 1129 q 376 1119 417 1129 q 303 1087 335 1108 q 253 1031 271 1065 q 235 950 235 997 q 262 853 235 899 q 344 772 289 807 q 481 713 399 736 z "},"9":{"ha":990,"x_min":69,"x_max":886,"o":"m 464 1242 q 693 1177 599 1242 q 837 997 788 1113 q 886 729 886 882 q 861 504 886 608 q 788 315 836 400 q 667 166 739 231 q 501 58 596 101 q 289 -8 406 14 q 225 -10 243 -17 q 204 33 207 -3 q 207 75 201 63 q 243 94 213 88 q 442 157 357 117 q 588 256 528 197 q 686 388 649 314 q 741 553 724 463 q 758 747 758 643 q 736 910 758 839 q 674 1030 714 981 q 580 1105 633 1079 q 465 1131 526 1131 q 352 1110 401 1131 q 268 1050 303 1089 q 215 956 233 1011 q 197 835 197 901 q 229 689 197 751 q 318 592 261 626 q 450 558 375 558 q 532 572 492 558 q 610 612 572 585 q 678 681 647 639 q 733 783 710 724 q 767 917 756 842 l 828 831 q 769 651 808 724 q 678 533 731 578 q 567 467 626 488 q 449 447 508 447 q 294 474 364 447 q 174 551 225 501 q 97 673 124 601 q 69 833 69 744 q 97 1001 69 925 q 174 1130 124 1076 q 298 1213 225 1183 q 464 1242 371 1242 z "},"\r":{"ha":417,"x_min":0,"x_max":0,"o":""}," ":{"ha":417,"x_min":0,"x_max":0,"o":""}," ":{"ha":139,"x_min":0,"x_max":0,"o":""}," ":{"ha":417,"x_min":0,"x_max":0,"o":""},"A":{"ha":1044,"x_min":22,"x_max":1024,"o":"m 85 -19 q 35 -2 49 -19 q 32 43 22 15 l 444 1181 q 472 1224 456 1213 q 522 1236 489 1236 q 572 1224 556 1236 q 599 1181 588 1213 l 1013 43 q 1008 -2 1024 15 q 957 -19 993 -19 q 913 -8 926 -19 q 889 32 900 4 l 789 313 l 253 313 l 151 32 q 128 -8 142 4 q 85 -19 115 -19 m 293 424 l 747 424 l 521 1054 l 293 424 z "},"B":{"ha":1007,"x_min":174,"x_max":938,"o":"m 235 0 q 174 39 174 0 l 174 1178 q 236 1215 174 1215 l 515 1215 q 713 1193 629 1215 q 841 1114 796 1171 q 886 953 886 1057 q 859 839 886 889 q 789 751 832 789 q 697 688 746 714 q 604 647 649 663 l 604 643 q 729 626 669 642 q 836 581 789 611 q 910 499 883 550 q 938 376 938 449 q 917 251 938 310 q 856 147 896 193 q 760 68 817 101 q 634 17 704 35 q 481 0 564 0 l 235 0 m 296 111 l 481 111 q 634 133 571 111 q 736 194 697 156 q 794 278 775 232 q 813 375 813 325 q 792 472 813 432 q 733 538 772 513 q 635 576 693 564 q 499 588 576 588 l 296 588 l 296 111 m 296 699 l 481 699 q 591 717 540 699 q 680 770 642 736 q 740 851 718 804 q 761 953 761 897 q 729 1050 761 1018 q 642 1093 697 1082 q 515 1104 588 1104 l 296 1104 l 296 699 z "},"C":{"ha":1076,"x_min":113,"x_max":1029,"o":"m 606 -26 q 403 19 493 -26 q 247 146 313 64 q 147 342 182 228 q 113 593 113 456 q 129 768 113 685 q 178 923 146 851 q 256 1052 210 994 q 362 1151 303 1110 q 492 1215 421 1193 q 644 1236 564 1236 q 771 1223 708 1236 q 891 1175 833 1210 q 994 1074 949 1140 q 999 1044 1006 1056 q 979 1018 993 1032 q 944 998 960 1001 q 915 1007 929 994 q 838 1067 881 1043 q 748 1105 796 1092 q 644 1118 700 1118 q 534 1102 586 1118 q 437 1054 482 1086 q 356 977 392 1022 q 295 874 321 932 q 256 745 269 815 q 243 593 243 675 q 270 377 243 471 q 347 220 297 283 q 462 124 396 157 q 606 92 528 92 q 711 110 663 92 q 801 158 760 128 q 875 225 842 189 q 935 296 908 261 q 963 312 947 314 q 1000 294 979 310 q 1026 267 1022 279 q 1018 238 1029 254 q 904 97 969 157 q 763 6 839 38 q 606 -26 688 -26 z "},"D":{"ha":1207,"x_min":174,"x_max":1094,"o":"m 235 0 q 174 39 174 0 l 174 1178 q 189 1206 174 1197 q 235 1215 204 1215 l 486 1215 q 759 1170 644 1215 q 948 1048 874 1125 q 1058 874 1022 971 q 1094 671 1094 776 q 1069 445 1094 549 q 992 260 1044 342 q 858 119 939 178 q 665 31 776 61 q 408 0 553 0 l 235 0 m 296 118 l 408 118 q 615 140 525 118 q 772 207 706 163 q 880 318 838 251 q 943 473 922 385 q 964 671 964 561 q 933 838 964 761 q 842 974 903 915 q 692 1065 781 1032 q 486 1097 603 1097 l 296 1097 l 296 118 z "},"E":{"ha":921,"x_min":174,"x_max":868,"o":"m 235 0 q 189 14 204 0 q 174 56 174 28 l 174 1178 q 189 1206 174 1197 q 235 1215 204 1215 l 831 1215 q 860 1203 851 1215 q 868 1160 868 1192 q 860 1117 868 1129 q 831 1104 851 1104 l 296 1104 l 296 699 l 743 699 q 773 687 764 699 q 782 643 782 675 q 773 600 782 613 q 743 588 764 588 l 296 588 l 296 111 l 831 111 q 860 99 851 111 q 868 56 868 88 q 860 13 868 25 q 831 0 851 0 l 235 0 z "},"F":{"ha":868,"x_min":174,"x_max":851,"o":"m 235 -19 q 174 19 174 -19 l 174 1178 q 189 1206 174 1197 q 235 1215 204 1215 l 813 1215 q 842 1203 833 1215 q 851 1160 851 1192 q 842 1117 851 1129 q 813 1104 833 1104 l 296 1104 l 296 664 l 726 664 q 756 652 747 664 q 764 608 764 640 q 756 565 764 578 q 726 553 747 553 l 296 553 l 296 19 q 281 -10 296 0 q 235 -19 265 -19 z "},"H":{"ha":1233,"x_min":174,"x_max":1060,"o":"m 235 -19 q 174 19 174 -19 l 174 1199 q 189 1227 174 1218 q 235 1236 204 1236 q 296 1199 296 1236 l 296 693 l 938 693 l 938 1199 q 953 1227 938 1218 q 999 1236 968 1236 q 1060 1199 1060 1236 l 1060 19 q 1044 -10 1060 0 q 999 -19 1029 -19 q 938 19 938 -19 l 938 582 l 296 582 l 296 19 q 281 -10 296 0 q 235 -19 265 -19 z "},"I":{"ha":469,"x_min":174,"x_max":296,"o":"m 235 -19 q 189 -10 204 -19 q 174 19 174 0 l 174 1199 q 189 1227 174 1218 q 235 1236 204 1236 q 281 1227 265 1236 q 296 1199 296 1218 l 296 19 q 281 -10 296 0 q 235 -19 265 -19 z "},"J":{"ha":903,"x_min":46,"x_max":756,"o":"m 421 -26 q 264 1 336 -26 q 138 85 192 29 q 53 218 83 140 q 57 251 46 242 q 86 269 68 261 q 126 278 110 279 q 150 257 142 276 q 210 166 176 203 q 294 110 244 129 q 421 92 344 92 q 491 99 458 92 q 550 124 524 107 q 595 172 576 142 q 624 246 614 201 q 633 353 633 290 l 633 1199 q 649 1227 633 1218 q 694 1236 664 1236 q 740 1227 725 1236 q 756 1199 756 1218 l 756 353 q 740 213 756 274 q 697 106 725 151 q 626 31 668 61 q 533 -12 585 1 q 421 -26 482 -26 z "},"K":{"ha":956,"x_min":174,"x_max":942,"o":"m 235 -19 q 189 -10 204 -19 q 174 19 174 0 l 174 1199 q 235 1236 174 1236 q 296 1199 296 1236 l 296 706 l 833 1224 q 866 1237 850 1242 q 900 1213 882 1232 q 920 1176 919 1190 q 908 1147 921 1161 l 386 640 q 570 417 482 519 q 744 231 658 315 q 918 75 831 146 q 938 42 933 64 q 915 -6 942 21 q 878 -23 897 -22 q 838 -7 858 -24 q 689 125 763 54 q 547 272 615 196 q 415 426 478 347 q 296 582 351 504 l 296 19 q 281 -10 296 0 q 235 -19 265 -19 z "},"L":{"ha":868,"x_min":174,"x_max":833,"o":"m 235 0 q 174 56 174 0 l 174 1199 q 189 1227 174 1218 q 235 1236 204 1236 q 281 1227 265 1236 q 296 1199 296 1218 l 296 111 l 796 111 q 825 99 817 111 q 833 56 833 88 q 825 13 833 25 q 796 0 817 0 l 235 0 z "},"N":{"ha":1233,"x_min":174,"x_max":1060,"o":"m 235 -19 q 174 19 174 -19 l 174 1199 q 189 1227 174 1218 q 235 1236 204 1236 q 275 1227 260 1236 q 304 1199 290 1218 l 938 238 l 938 1199 q 953 1227 938 1218 q 999 1236 968 1236 q 1060 1199 1060 1236 l 1060 19 q 1044 -10 1060 0 q 1000 -19 1029 -19 q 965 -12 978 -19 q 938 19 953 -6 l 296 994 l 296 19 q 281 -10 296 0 q 235 -19 265 -19 z "},"O":{"ha":1285,"x_min":113,"x_max":1172,"o":"m 644 -26 q 424 21 522 -26 q 257 153 326 68 q 150 353 188 238 q 113 606 113 468 q 129 779 113 697 q 178 932 146 861 q 256 1058 210 1003 q 362 1154 303 1114 q 492 1215 421 1194 q 644 1236 564 1236 q 863 1190 765 1236 q 1029 1058 960 1143 q 1135 858 1099 974 q 1172 606 1172 743 q 1156 432 1172 514 q 1107 279 1139 350 q 1029 152 1075 208 q 924 56 983 96 q 795 -5 865 17 q 644 -26 725 -26 m 644 92 q 754 107 703 92 q 850 152 806 122 q 930 226 894 182 q 990 327 965 269 q 1028 454 1015 385 q 1042 606 1042 524 q 1013 823 1042 728 q 930 984 983 918 q 803 1084 876 1050 q 644 1118 731 1118 q 534 1103 586 1118 q 437 1058 482 1088 q 356 984 392 1028 q 295 883 321 940 q 256 757 269 826 q 243 606 243 688 q 273 388 243 483 q 356 226 303 292 q 483 126 410 160 q 644 92 557 92 z "},"P":{"ha":972,"x_min":174,"x_max":921,"o":"m 235 -19 q 174 19 174 -19 l 174 1178 q 190 1206 174 1197 q 236 1215 206 1215 l 500 1215 q 732 1185 639 1215 q 873 1088 825 1154 q 921 911 921 1021 q 881 730 921 804 q 775 608 840 656 q 632 534 710 561 q 478 494 554 507 q 379 484 426 488 q 296 481 332 481 l 296 19 q 281 -10 296 0 q 235 -19 265 -19 m 296 590 q 352 592 322 590 q 414 597 382 593 q 478 604 446 600 q 630 651 557 618 q 749 747 703 685 q 796 910 796 810 q 763 1023 796 981 q 663 1085 729 1065 q 500 1104 597 1104 l 296 1104 l 296 590 z "},"Q":{"ha":1285,"x_min":113,"x_max":1172,"o":"m 985 -242 q 942 -256 961 -257 q 908 -236 924 -254 l 617 172 q 608 210 606 190 q 633 247 611 229 q 674 261 653 264 q 710 238 694 258 l 999 -168 q 1008 -205 1010 -186 q 985 -242 1006 -224 m 644 -26 q 424 21 522 -26 q 257 153 326 68 q 150 353 188 238 q 113 606 113 468 q 129 779 113 697 q 178 932 146 861 q 256 1058 210 1003 q 362 1154 303 1114 q 492 1215 421 1194 q 644 1236 564 1236 q 863 1190 765 1236 q 1029 1058 960 1143 q 1135 858 1099 974 q 1172 606 1172 743 q 1156 432 1172 514 q 1107 279 1139 350 q 1029 152 1075 208 q 924 56 983 96 q 795 -5 865 17 q 644 -26 725 -26 m 644 92 q 754 107 703 92 q 850 152 806 122 q 930 226 894 182 q 990 327 965 269 q 1028 454 1015 385 q 1042 606 1042 524 q 1013 823 1042 728 q 930 984 983 918 q 803 1084 876 1050 q 644 1118 731 1118 q 534 1103 586 1118 q 437 1058 482 1088 q 356 984 392 1028 q 295 883 321 940 q 256 757 269 826 q 243 606 243 688 q 273 388 243 483 q 356 226 303 292 q 483 126 410 160 q 644 92 557 92 z "},"R":{"ha":964,"x_min":174,"x_max":942,"o":"m 235 -19 q 189 -10 204 -19 q 174 19 174 0 l 174 1178 q 190 1206 174 1197 q 236 1215 206 1215 l 464 1215 q 703 1187 610 1215 q 841 1094 796 1158 q 886 921 886 1029 q 872 823 886 869 q 831 736 858 776 q 765 663 804 696 q 676 606 726 631 q 563 567 625 582 q 429 546 501 551 q 578 383 500 464 q 742 226 657 303 q 918 75 826 149 q 938 42 933 64 q 915 -6 942 21 q 878 -23 897 -22 q 838 -7 858 -24 q 642 164 738 75 q 460 344 547 253 q 296 526 374 436 l 296 19 q 281 -10 296 0 q 235 -19 265 -19 m 296 643 q 419 649 363 643 q 523 666 475 654 q 608 694 571 678 q 675 734 646 711 q 723 785 704 757 q 751 848 742 814 q 761 921 761 882 q 731 1029 761 989 q 640 1087 701 1069 q 483 1104 578 1104 l 296 1104 l 296 643 z "},"S":{"ha":956,"x_min":93,"x_max":861,"o":"m 471 -26 q 368 -15 419 -26 q 267 19 317 -3 q 176 74 218 42 q 104 146 135 106 q 94 174 94 161 q 114 206 93 188 q 149 228 136 226 q 188 207 161 231 q 256 155 217 182 q 349 110 296 128 q 471 92 403 92 q 585 105 536 92 q 667 146 633 118 q 717 216 700 174 q 733 317 733 258 q 716 400 733 365 q 666 461 699 435 q 588 509 633 488 q 486 551 543 531 q 388 593 438 569 q 292 647 338 617 q 210 719 246 678 q 154 815 175 761 q 133 939 133 869 q 160 1065 133 1010 q 235 1158 186 1119 q 349 1216 283 1196 q 494 1236 415 1236 q 619 1219 564 1236 q 722 1169 675 1201 q 814 1094 769 1138 q 826 1066 828 1081 q 808 1036 824 1051 q 775 1010 792 1018 q 744 1015 758 1003 q 675 1071 710 1047 q 597 1106 640 1094 q 494 1118 553 1118 q 396 1107 439 1118 q 323 1074 353 1096 q 278 1017 293 1051 q 263 939 263 983 q 281 842 263 882 q 333 772 299 801 q 413 720 367 743 q 515 678 460 697 q 635 629 574 657 q 747 560 696 601 q 830 460 799 519 q 861 317 861 401 q 834 168 861 232 q 756 61 807 104 q 632 -4 704 18 q 471 -26 560 -26 z "},"T":{"ha":958,"x_min":21,"x_max":938,"o":"m 479 -21 q 418 18 418 -21 l 418 1104 l 60 1104 q 30 1117 39 1104 q 21 1160 21 1129 q 30 1203 21 1192 q 60 1215 39 1215 l 900 1215 q 929 1203 921 1215 q 938 1160 938 1192 q 929 1117 938 1129 q 900 1104 921 1104 l 540 1104 l 540 18 q 525 -11 540 -1 q 479 -21 510 -21 z "},"V":{"ha":1007,"x_min":15,"x_max":993,"o":"m 501 -19 q 453 -8 469 -19 q 425 36 438 4 l 21 1174 q 25 1207 15 1193 q 64 1231 35 1221 q 110 1238 92 1240 q 133 1215 128 1235 l 504 165 l 874 1215 q 899 1238 881 1235 q 943 1231 917 1240 q 983 1207 974 1221 q 986 1174 993 1193 l 581 36 q 552 -8 568 4 q 501 -19 536 -19 z "},"W":{"ha":1667,"x_min":14,"x_max":1653,"o":"m 429 -19 q 380 -7 397 -19 q 353 36 363 6 l 19 1174 q 23 1207 14 1193 q 63 1231 32 1221 q 109 1237 90 1240 q 133 1210 128 1233 l 432 174 l 761 1186 q 785 1225 769 1214 q 832 1236 801 1236 q 880 1225 864 1236 q 904 1186 896 1214 l 1233 175 l 1533 1210 q 1559 1237 1540 1233 q 1604 1231 1578 1240 q 1644 1207 1635 1221 q 1647 1174 1653 1193 l 1311 36 q 1284 -7 1301 6 q 1233 -19 1267 -19 q 1184 -7 1200 -19 q 1157 36 1168 6 l 832 1042 l 507 36 q 480 -7 497 6 q 429 -19 463 -19 z "},"X":{"ha":957,"x_min":57,"x_max":901,"o":"m 867 -1 q 821 -19 840 -18 q 790 0 801 -19 l 476 513 l 161 0 q 131 -19 150 -19 q 85 -1 113 -18 q 63 20 69 10 q 59 42 57 31 q 67 63 61 53 l 410 622 l 82 1157 q 78 1189 72 1172 q 108 1221 83 1206 q 154 1238 136 1238 q 186 1215 172 1238 l 486 726 l 786 1215 q 817 1235 799 1235 q 858 1221 835 1236 q 882 1200 875 1211 q 890 1178 889 1189 q 883 1157 890 1168 l 554 617 l 893 63 q 897 31 901 47 q 867 -1 892 14 z "},"Y":{"ha":850,"x_min":4,"x_max":846,"o":"m 425 -19 q 365 19 365 -19 l 365 513 l 14 1161 q 13 1194 4 1179 q 49 1224 21 1210 q 92 1238 75 1238 q 122 1215 110 1239 l 425 644 l 729 1215 q 760 1238 743 1239 q 803 1224 776 1238 q 838 1194 831 1210 q 838 1161 846 1179 l 486 511 l 486 19 q 425 -19 486 -19 z "},"Z":{"ha":851,"x_min":11,"x_max":838,"o":"m 63 0 q 33 13 46 0 q 15 46 19 26 q 21 81 11 65 l 653 1104 l 101 1104 q 72 1117 81 1104 q 63 1160 63 1129 q 72 1203 63 1192 q 101 1215 81 1215 l 775 1215 q 816 1188 801 1215 q 817 1136 831 1160 l 185 111 l 799 111 q 828 99 819 111 q 838 56 838 88 q 828 13 838 25 q 799 0 819 0 l 63 0 z "},"Æ":{"ha":1339,"x_min":11,"x_max":1286,"o":"m 1249 0 l 722 0 q 676 14 692 0 q 661 56 661 28 l 661 553 l 392 553 l 125 1 q 96 -21 115 -17 q 50 -14 76 -25 q 19 15 28 -3 q 21 50 11 32 l 568 1167 q 598 1207 583 1199 q 651 1215 613 1215 l 1249 1215 q 1278 1203 1269 1215 q 1286 1160 1286 1192 q 1278 1117 1286 1129 q 1249 1104 1269 1104 l 783 1104 l 783 664 l 1161 664 q 1191 652 1182 664 q 1200 608 1200 640 q 1191 565 1200 578 q 1161 553 1182 553 l 783 553 l 783 111 l 1249 111 q 1278 99 1269 111 q 1286 56 1286 88 q 1278 13 1286 25 q 1249 0 1269 0 m 446 664 l 661 664 l 661 1108 l 446 664 z "},"Ð":{"ha":1207,"x_min":32,"x_max":1094,"o":"m 235 0 q 174 39 174 0 l 174 1178 q 189 1206 174 1197 q 235 1215 204 1215 l 486 1215 q 759 1170 644 1215 q 948 1048 874 1125 q 1058 874 1022 971 q 1094 671 1094 776 q 1069 445 1094 549 q 992 260 1044 342 q 858 119 939 178 q 665 31 776 61 q 408 0 553 0 l 235 0 m 296 118 l 408 118 q 615 140 525 118 q 772 207 706 163 q 880 318 838 251 q 943 473 922 385 q 964 671 964 561 q 933 838 964 761 q 842 974 903 915 q 692 1065 781 1032 q 486 1097 603 1097 l 296 1097 l 296 118 m 71 565 q 39 581 46 565 q 32 614 32 596 q 39 650 32 633 q 71 667 46 667 l 578 667 q 608 650 601 667 q 615 614 615 633 q 608 581 615 596 q 578 565 601 565 l 71 565 z "},"Ĳ":{"ha":1372,"x_min":174,"x_max":1225,"o":"m 235 -19 q 189 -10 204 -19 q 174 19 174 0 l 174 1199 q 189 1227 174 1218 q 235 1236 204 1236 q 281 1227 265 1236 q 296 1199 296 1218 l 296 19 q 281 -10 296 0 q 235 -19 265 -19 m 890 -26 q 733 1 806 -26 q 607 85 661 29 q 522 218 553 140 q 526 251 515 242 q 556 269 538 261 q 595 278 579 279 q 619 257 611 276 q 680 166 646 203 q 764 110 714 129 q 890 92 814 92 q 960 99 928 92 q 1019 124 993 107 q 1065 172 1046 142 q 1093 246 1083 201 q 1103 353 1103 290 l 1103 1199 q 1118 1227 1103 1218 q 1164 1236 1133 1236 q 1210 1227 1194 1236 q 1225 1199 1225 1218 l 1225 353 q 1210 213 1225 274 q 1166 106 1194 151 q 1096 31 1138 61 q 1003 -12 1054 1 q 890 -26 951 -26 z "},"Ŋ":{"ha":1233,"x_min":174,"x_max":1060,"o":"m 1060 -151 q 1036 -272 1060 -228 q 974 -335 1013 -317 q 892 -354 935 -354 q 782 -326 831 -354 q 708 -257 733 -297 q 703 -218 694 -236 q 729 -189 711 -200 q 769 -175 753 -174 q 800 -193 786 -176 q 827 -222 814 -208 q 855 -242 840 -235 q 888 -250 869 -250 q 919 -239 908 -250 q 935 -206 931 -228 q 939 -157 939 -185 l 939 15 l 296 994 l 296 19 q 281 -10 296 0 q 235 -19 265 -19 q 174 19 174 -19 l 174 1199 q 189 1227 174 1218 q 235 1236 204 1236 q 275 1227 260 1236 q 304 1199 290 1218 l 938 238 l 938 1199 q 953 1227 938 1218 q 999 1236 968 1236 q 1060 1199 1060 1236 l 1060 -151 z "},"Œ":{"ha":1775,"x_min":113,"x_max":1722,"o":"m 638 -26 q 420 21 517 -26 q 255 153 324 68 q 149 353 186 238 q 113 606 113 468 q 129 779 113 697 q 177 932 146 861 q 254 1058 208 1003 q 358 1154 300 1114 q 487 1215 417 1194 q 638 1236 557 1236 q 846 1190 753 1236 q 1005 1058 939 1143 q 1106 858 1071 974 q 1140 606 1140 743 q 1124 432 1140 514 q 1078 279 1108 350 q 1005 152 1049 208 q 905 56 961 96 q 782 -5 849 17 q 638 -26 715 -26 m 638 92 q 744 107 694 92 q 838 152 794 122 q 917 226 882 182 q 976 327 951 269 q 1015 454 1001 385 q 1028 606 1028 524 q 999 823 1028 728 q 917 984 969 918 q 793 1084 864 1050 q 638 1118 722 1118 q 529 1103 581 1118 q 434 1058 478 1088 q 355 984 390 1028 q 294 883 319 940 q 256 757 269 826 q 243 606 243 688 q 272 388 243 483 q 355 226 301 292 q 481 126 408 160 q 638 92 553 92 m 1089 0 q 1043 14 1058 0 q 1028 56 1028 28 l 1028 1178 q 1043 1206 1028 1197 q 1089 1215 1058 1215 l 1685 1215 q 1714 1203 1706 1215 q 1722 1160 1722 1192 q 1714 1117 1722 1129 q 1685 1104 1706 1104 l 1150 1104 l 1150 699 l 1597 699 q 1627 687 1618 699 q 1636 643 1636 675 q 1627 600 1636 613 q 1597 588 1618 588 l 1150 588 l 1150 111 l 1685 111 q 1714 99 1706 111 q 1722 56 1722 88 q 1714 13 1722 25 q 1685 0 1706 0 l 1089 0 z "},"Þ":{"ha":1007,"x_min":174,"x_max":921,"o":"m 235 -19 q 189 -10 204 -19 q 174 19 174 0 l 174 1199 q 189 1227 174 1218 q 235 1236 204 1236 q 281 1227 265 1236 q 296 1199 296 1218 l 296 1060 l 500 1060 q 732 1029 639 1060 q 873 932 825 999 q 921 756 921 865 q 881 574 921 649 q 775 453 840 500 q 632 378 710 406 q 478 339 554 351 q 379 328 426 331 q 296 325 332 325 l 296 19 q 281 -10 296 0 q 235 -19 265 -19 m 296 435 q 352 436 322 435 q 414 440 382 438 q 478 449 446 443 q 630 496 557 463 q 749 592 703 529 q 796 754 796 654 q 763 867 796 825 q 663 929 729 910 q 500 949 597 949 l 296 949 l 296 435 z "},"ẞ":{"ha":1233,"x_min":167,"x_max":1110,"o":"m 726 -26 q 622 -17 674 -26 q 526 12 571 -7 q 443 53 481 31 q 417 83 421 67 q 428 124 414 100 q 458 156 442 149 q 499 149 474 163 q 570 117 535 129 q 644 98 606 104 q 726 92 683 92 q 826 107 781 92 q 907 152 872 122 q 961 226 942 182 q 981 326 981 269 q 961 421 981 379 q 908 498 942 463 q 832 564 874 533 q 746 623 790 594 q 660 682 701 651 q 584 747 618 713 q 531 822 550 781 q 511 915 511 864 q 527 997 511 960 q 571 1063 543 1033 q 635 1115 599 1093 q 464 1060 532 1097 q 358 967 396 1022 q 305 844 321 913 q 289 694 289 775 l 289 19 q 274 -10 289 0 q 228 -19 258 -19 q 182 -10 197 -19 q 167 19 167 0 l 167 694 q 185 875 167 792 q 249 1025 204 958 q 371 1139 294 1092 q 562 1211 447 1186 q 838 1236 676 1236 l 867 1236 q 896 1224 888 1236 q 904 1179 904 1211 q 896 1135 904 1149 q 867 1122 888 1122 q 788 1112 828 1122 q 713 1079 747 1101 q 657 1023 678 1057 q 636 942 636 989 q 656 866 636 900 q 710 803 676 832 q 785 747 743 775 q 873 689 828 718 q 960 625 918 660 q 1036 547 1003 590 q 1090 450 1069 504 q 1110 326 1110 396 q 1080 178 1110 243 q 997 67 1050 113 q 874 -2 943 22 q 726 -26 804 -26 z "},"ŋ":{"ha":851,"x_min":131,"x_max":725,"o":"m 725 -151 q 701 -272 725 -228 q 640 -335 678 -317 q 558 -354 601 -354 q 449 -326 497 -354 q 375 -257 401 -297 q 370 -218 363 -236 q 396 -189 378 -200 q 436 -175 419 -174 q 467 -193 453 -176 q 508 -233 486 -217 q 554 -250 529 -250 q 596 -225 586 -250 q 606 -157 606 -200 l 606 488 q 596 556 606 529 q 564 597 586 583 q 503 611 542 611 q 419 583 458 611 q 348 503 381 556 q 291 375 315 451 q 250 201 267 299 l 250 15 q 235 -12 250 -3 q 189 -21 219 -21 q 145 -12 160 -21 q 131 15 131 -3 l 131 679 q 145 706 131 697 q 189 715 160 715 q 235 706 219 715 q 250 679 250 697 l 250 479 q 307 594 275 547 q 374 668 339 640 q 447 708 410 696 q 518 721 483 721 q 624 700 578 721 q 698 631 671 679 q 725 500 725 583 l 725 -151 z "},"$":{"ha":928,"x_min":67,"x_max":835,"o":"m 444 -26 q 341 -15 393 -26 q 240 19 289 -3 q 149 74 192 42 q 76 146 107 106 q 67 174 67 161 q 88 206 67 188 q 122 228 110 226 q 160 207 133 231 q 228 155 189 182 q 322 110 268 128 q 444 92 375 92 q 557 105 508 92 q 639 146 606 118 q 689 216 672 174 q 706 317 706 258 q 688 400 706 365 q 638 461 671 435 q 560 509 606 488 q 460 551 515 531 q 360 593 411 569 q 265 647 310 617 q 184 719 219 678 q 128 815 149 761 q 107 939 107 869 q 134 1065 107 1010 q 210 1158 161 1119 q 324 1216 258 1196 q 468 1236 390 1236 q 593 1219 538 1236 q 696 1169 649 1201 q 788 1094 743 1138 q 800 1066 803 1081 q 782 1036 797 1051 q 749 1010 765 1018 q 718 1015 733 1003 q 648 1071 683 1047 q 569 1106 613 1094 q 468 1118 526 1118 q 369 1107 413 1118 q 297 1074 326 1096 q 251 1017 267 1051 q 236 939 236 983 q 254 842 236 882 q 306 772 272 801 q 385 719 339 742 q 489 678 432 697 q 608 629 547 657 q 721 560 669 601 q 803 460 772 519 q 835 317 835 401 q 807 168 835 232 q 728 61 779 104 q 604 -4 676 18 q 444 -26 532 -26 m 465 -208 q 410 -169 410 -208 l 410 1401 q 465 1439 410 1439 q 521 1401 521 1439 l 521 -169 q 465 -208 521 -208 z "},"€":{"ha":1076,"x_min":46,"x_max":1022,"o":"m 629 -26 q 431 21 515 -26 q 288 153 346 68 q 202 353 231 238 q 174 606 174 468 q 188 777 174 696 q 232 928 203 858 q 303 1056 261 999 q 397 1153 344 1113 q 513 1215 450 1193 q 650 1236 576 1236 q 772 1222 714 1236 q 883 1177 831 1208 q 981 1092 936 1146 q 988 1063 994 1078 q 965 1035 982 1049 q 933 1015 947 1017 q 906 1024 919 1013 q 830 1076 869 1056 q 746 1108 790 1097 q 650 1119 701 1119 q 553 1103 599 1119 q 467 1057 507 1088 q 397 982 428 1026 q 344 880 367 938 q 310 753 322 822 q 299 606 299 685 q 322 388 299 483 q 388 226 344 292 q 492 125 431 160 q 631 90 553 90 q 720 101 678 90 q 801 130 763 111 q 872 174 839 149 q 931 228 904 199 q 960 238 943 240 q 996 221 976 236 q 1018 193 1014 204 q 1011 164 1022 182 q 900 60 961 103 q 770 -4 839 18 q 629 -26 701 -26 m 83 671 q 54 682 63 671 q 46 724 46 693 q 54 767 46 756 q 83 778 63 778 l 793 778 q 823 767 814 778 q 832 724 832 756 q 823 682 832 693 q 793 671 814 671 l 83 671 m 83 463 q 54 474 63 463 q 46 515 46 485 q 54 558 46 547 q 83 569 63 569 l 793 569 q 823 558 814 569 q 832 515 832 547 q 823 474 832 485 q 793 463 814 463 l 83 463 z "},"¢":{"ha":736,"x_min":71,"x_max":681,"o":"m 376 -26 q 216 16 285 -26 q 109 138 147 58 q 71 329 71 218 q 87 456 71 397 q 132 564 103 515 q 201 648 161 613 q 292 702 242 683 q 401 721 343 721 q 483 709 440 721 q 567 672 526 697 q 642 607 608 647 q 653 572 657 588 q 635 540 650 557 q 601 519 617 522 q 568 529 585 515 q 519 569 543 550 q 466 599 494 588 q 399 610 438 610 q 328 597 360 610 q 271 560 296 585 q 229 502 246 536 q 203 426 213 468 q 194 335 194 383 q 217 199 194 254 q 281 115 239 143 q 383 85 324 86 q 469 103 435 85 q 529 149 503 121 q 581 208 556 178 q 614 226 596 228 q 651 208 632 224 q 676 179 671 193 q 668 146 681 165 q 584 49 629 88 q 487 -8 539 11 q 376 -26 435 -26 m 376 -208 q 321 -169 321 -208 l 321 886 q 376 924 321 924 q 432 886 432 924 l 432 -169 q 376 -208 432 -208 z "},"£":{"ha":938,"x_min":47,"x_max":908,"o":"m 85 0 q 55 15 63 0 q 47 60 47 31 q 57 100 47 89 q 85 111 67 111 l 261 111 l 261 471 l 119 471 q 90 483 99 471 q 82 525 82 494 q 90 567 82 557 q 119 578 99 578 l 261 578 l 261 921 q 294 1085 261 1014 q 392 1196 326 1156 q 551 1236 457 1236 q 726 1205 647 1236 q 856 1129 806 1174 q 874 1097 871 1115 q 858 1057 878 1078 q 823 1035 840 1038 q 781 1050 806 1033 q 674 1104 729 1085 q 557 1124 618 1124 q 424 1069 467 1124 q 382 911 382 1015 l 382 578 l 668 578 q 698 567 689 578 q 707 525 707 557 q 698 483 707 494 q 668 471 689 471 l 382 471 l 382 111 l 869 111 q 899 100 889 111 q 908 60 908 89 q 901 15 908 31 q 869 0 893 0 l 85 0 z "},"¥":{"ha":928,"x_min":43,"x_max":885,"o":"m 464 -19 q 403 19 403 -19 l 403 278 l 140 278 q 111 290 119 278 q 103 332 103 301 q 111 375 103 364 q 140 386 119 386 l 403 386 l 403 486 l 140 486 q 111 498 119 486 q 103 540 103 510 q 111 583 103 572 q 140 594 119 594 l 358 594 l 53 1161 q 51 1194 43 1179 q 88 1224 58 1210 q 131 1238 114 1238 q 160 1215 149 1239 l 464 644 l 768 1215 q 797 1238 781 1239 q 840 1224 814 1238 q 877 1194 869 1210 q 875 1161 885 1179 l 569 594 l 786 594 q 816 583 807 594 q 825 540 825 572 q 816 498 825 510 q 786 486 807 486 l 525 486 l 525 386 l 786 386 q 816 375 807 386 q 825 332 825 364 q 816 290 825 301 q 786 278 807 278 l 525 278 l 525 19 q 464 -19 525 -19 z "},"%":{"ha":1146,"x_min":63,"x_max":1074,"o":"m 297 701 q 178 735 232 701 q 94 831 125 769 q 63 969 63 892 q 74 1056 63 1015 q 106 1130 85 1097 q 156 1187 126 1163 q 220 1224 185 1211 q 297 1236 256 1236 q 416 1202 364 1236 q 498 1108 468 1168 q 528 969 528 1047 q 516 881 528 922 q 483 807 504 840 q 433 750 463 774 q 370 714 404 726 q 297 701 336 701 m 297 807 q 336 813 318 807 q 368 833 354 819 q 392 865 382 846 q 406 911 401 885 q 411 969 411 938 q 381 1090 411 1050 q 297 1131 350 1131 q 257 1124 275 1131 q 224 1104 239 1117 q 199 1072 210 1092 q 184 1027 189 1053 q 179 969 179 1001 q 210 848 179 889 q 297 807 242 807 m 249 -12 q 224 -28 239 -28 q 185 -12 208 -28 q 153 15 158 3 q 157 43 147 26 l 881 1222 q 906 1238 892 1238 q 944 1222 919 1238 q 977 1195 971 1207 q 972 1167 983 1183 l 249 -12 m 842 -26 q 724 8 778 -26 q 640 103 671 42 q 608 242 608 164 q 619 328 608 288 q 651 402 631 369 q 701 459 672 435 q 765 496 729 483 q 842 508 801 508 q 960 474 908 508 q 1043 380 1013 440 q 1074 242 1074 319 q 1062 153 1074 194 q 1029 79 1050 113 q 979 22 1008 46 q 915 -14 950 -1 q 842 -26 881 -26 m 842 81 q 882 87 864 81 q 914 106 900 93 q 938 138 928 119 q 952 183 947 157 q 957 242 957 210 q 926 363 957 322 q 842 403 896 403 q 801 396 819 403 q 769 376 783 389 q 744 344 754 364 q 729 299 735 325 q 724 242 724 274 q 756 122 724 163 q 842 81 788 81 z "},".":{"ha":435,"x_min":131,"x_max":304,"o":"m 217 -47 q 152 -24 174 -47 q 131 43 131 -1 q 152 111 131 89 q 217 133 174 133 q 283 111 261 133 q 304 43 304 89 q 283 -24 304 -1 q 217 -47 261 -47 z "},",":{"ha":435,"x_min":89,"x_max":283,"o":"m 143 -262 q 106 -249 124 -262 q 89 -218 89 -236 q 93 -204 89 -212 q 103 -183 97 -196 q 133 -111 124 -143 q 147 -40 143 -79 q 150 64 150 0 q 167 103 150 90 q 215 117 185 117 q 265 102 247 117 q 283 61 283 88 q 274 -40 283 13 q 242 -144 264 -93 q 182 -239 219 -194 q 167 -255 176 -247 q 143 -262 157 -262 z "},":":{"ha":435,"x_min":131,"x_max":304,"o":"m 217 -47 q 152 -24 174 -47 q 131 43 131 -1 q 152 111 131 89 q 217 133 174 133 q 283 111 261 133 q 304 43 304 89 q 283 -24 304 -1 q 217 -47 261 -47 m 217 558 q 152 581 174 558 q 131 649 131 604 q 152 717 131 694 q 217 739 174 739 q 283 717 261 739 q 304 649 304 694 q 283 581 304 604 q 217 558 261 558 z "},";":{"ha":435,"x_min":89,"x_max":304,"o":"m 217 558 q 152 581 174 558 q 131 649 131 604 q 152 717 131 694 q 217 739 174 739 q 283 717 261 739 q 304 649 304 694 q 283 581 304 604 q 217 558 261 558 m 143 -262 q 106 -249 124 -262 q 89 -218 89 -236 q 93 -204 89 -212 q 103 -183 97 -196 q 133 -111 124 -143 q 147 -40 143 -79 q 150 64 150 0 q 167 103 150 90 q 215 117 185 117 q 265 102 247 117 q 283 61 283 88 q 274 -40 283 13 q 242 -144 264 -93 q 182 -239 219 -194 q 167 -255 176 -247 q 143 -262 157 -262 z "},"…":{"ha":1178,"x_min":131,"x_max":1047,"o":"m 589 -47 q 524 -24 546 -47 q 503 43 503 -1 q 524 111 503 89 q 589 133 546 133 q 655 111 633 133 q 676 43 676 89 q 655 -24 676 -1 q 589 -47 633 -47 m 960 -47 q 895 -24 917 -47 q 874 43 874 -1 q 895 111 874 89 q 960 133 917 133 q 1026 111 1004 133 q 1047 43 1047 89 q 1026 -24 1047 -1 q 960 -47 1004 -47 m 217 -47 q 152 -24 174 -47 q 131 43 131 -1 q 152 111 131 89 q 217 133 174 133 q 283 111 261 133 q 304 43 304 89 q 283 -24 304 -1 q 217 -47 261 -47 z "},"!":{"ha":472,"x_min":158,"x_max":314,"o":"m 236 300 q 175 339 175 300 l 175 1199 q 190 1227 175 1218 q 236 1236 206 1236 q 297 1199 297 1236 l 297 339 q 282 310 297 319 q 236 300 267 300 m 236 -19 q 178 2 197 -19 q 158 68 158 24 q 178 135 158 113 q 236 157 197 157 q 293 135 274 157 q 313 68 313 113 q 294 2 314 24 q 236 -19 274 -19 z "},"¡":{"ha":472,"x_min":158,"x_max":314,"o":"m 236 396 q 297 357 297 396 l 297 -503 q 282 -531 297 -521 q 236 -540 267 -540 q 175 -503 175 -540 l 175 357 q 190 386 175 376 q 236 396 206 396 m 236 715 q 294 694 274 715 q 313 628 314 672 q 293 562 313 585 q 236 539 274 539 q 178 562 197 539 q 158 628 158 585 q 178 694 158 672 q 236 715 197 715 z "},"?":{"ha":692,"x_min":22,"x_max":674,"o":"m 271 299 q 225 308 240 299 q 210 338 210 318 l 210 601 q 222 626 210 618 q 257 639 235 635 q 372 670 319 649 q 465 726 425 692 q 526 808 504 760 q 549 922 549 857 q 525 1032 549 986 q 454 1101 501 1078 q 336 1125 407 1125 q 242 1110 285 1125 q 167 1073 199 1094 q 111 1031 135 1051 q 76 1016 92 1014 q 40 1036 60 1018 q 23 1068 24 1051 q 39 1101 22 1085 q 127 1174 78 1143 q 231 1220 176 1204 q 336 1236 285 1236 q 506 1203 429 1236 q 628 1100 582 1169 q 674 919 674 1031 q 644 775 674 838 q 566 667 615 713 q 456 590 517 621 q 332 543 394 560 l 332 338 q 317 308 332 318 q 271 299 301 299 m 271 -19 q 213 2 232 -19 q 193 68 193 24 q 213 135 193 113 q 271 157 232 157 q 328 135 308 157 q 347 68 347 113 q 328 2 347 24 q 271 -19 308 -19 z "},"¿":{"ha":692,"x_min":24,"x_max":675,"o":"m 426 397 q 472 388 457 397 q 488 358 488 378 l 488 94 q 476 69 488 78 q 440 57 464 61 q 325 26 378 47 q 233 -30 272 4 q 171 -112 193 -64 q 149 -226 149 -161 q 172 -335 149 -289 q 243 -405 196 -381 q 360 -429 290 -429 q 456 -414 414 -429 q 531 -376 499 -399 q 586 -335 563 -354 q 622 -319 606 -317 q 657 -340 638 -322 q 674 -372 672 -354 q 658 -406 675 -389 q 569 -477 619 -447 q 466 -524 519 -507 q 360 -540 413 -540 q 192 -507 268 -540 q 69 -403 115 -474 q 24 -224 24 -333 q 53 -79 24 -142 q 131 29 82 -17 q 242 106 181 75 q 365 154 303 136 l 365 358 q 381 388 365 378 q 426 397 396 397 m 426 715 q 485 694 465 715 q 504 628 504 672 q 485 562 504 585 q 426 539 465 539 q 369 562 389 539 q 350 628 350 585 q 369 694 350 672 q 426 715 389 715 z "},"'":{"ha":235,"x_min":58,"x_max":189,"o":"m 124 900 q 90 913 97 900 q 81 943 82 926 l 60 1222 q 73 1261 58 1244 q 124 1278 88 1278 q 174 1261 160 1278 q 188 1222 189 1244 l 167 943 q 158 913 165 926 q 124 900 150 900 z "},"\"":{"ha":456,"x_min":58,"x_max":410,"o":"m 124 900 q 90 913 97 900 q 81 943 82 926 l 60 1222 q 73 1261 58 1244 q 124 1278 88 1278 q 174 1261 160 1278 q 188 1222 189 1244 l 167 943 q 158 913 165 926 q 124 900 150 900 m 344 900 q 310 913 318 900 q 301 943 303 926 l 281 1222 q 294 1261 279 1244 q 344 1278 308 1278 q 395 1261 381 1278 q 408 1222 410 1244 l 388 943 q 378 913 386 926 q 344 900 371 900 z "},"‘":{"ha":297,"x_min":61,"x_max":256,"o":"m 129 900 q 80 915 99 900 q 61 956 61 929 q 67 1031 61 992 q 84 1108 72 1069 q 115 1185 96 1147 q 161 1256 135 1222 q 178 1270 168 1263 q 201 1278 188 1278 q 238 1265 221 1278 q 256 1235 256 1253 q 252 1220 256 1229 q 242 1200 249 1211 q 212 1128 222 1160 q 198 1056 201 1096 q 194 951 194 1017 q 176 913 194 925 q 129 900 158 900 z "},"’":{"ha":304,"x_min":49,"x_max":243,"o":"m 175 1278 q 225 1263 207 1278 q 243 1222 243 1249 q 238 1147 243 1186 q 220 1069 232 1108 q 190 993 208 1031 q 143 922 171 956 q 127 908 136 915 q 103 900 118 900 q 66 913 83 900 q 49 943 49 925 q 53 958 49 949 q 63 978 57 967 q 93 1051 83 1019 q 106 1122 103 1082 q 110 1226 110 1163 q 128 1265 110 1253 q 175 1278 146 1278 z "},"‚":{"ha":304,"x_min":49,"x_max":243,"o":"m 103 -262 q 66 -249 83 -262 q 49 -218 49 -236 q 53 -204 49 -212 q 63 -183 57 -196 q 93 -111 83 -143 q 106 -40 103 -79 q 110 64 110 0 q 127 103 110 90 q 175 117 144 117 q 225 102 207 117 q 243 61 243 88 q 233 -40 243 13 q 201 -144 224 -93 q 142 -239 179 -194 q 126 -255 136 -247 q 103 -262 117 -262 z "},"“":{"ha":540,"x_min":61,"x_max":499,"o":"m 129 900 q 80 915 99 900 q 61 956 61 929 q 67 1031 61 992 q 84 1108 72 1069 q 115 1185 96 1147 q 161 1256 135 1222 q 178 1270 168 1263 q 201 1278 188 1278 q 238 1265 221 1278 q 256 1235 256 1253 q 252 1220 256 1229 q 242 1200 249 1211 q 212 1128 222 1160 q 198 1056 201 1096 q 194 951 194 1017 q 176 913 194 925 q 129 900 158 900 m 372 900 q 323 915 342 900 q 304 956 304 929 q 310 1031 304 992 q 327 1108 315 1069 q 358 1185 339 1147 q 404 1256 378 1222 q 421 1270 411 1263 q 444 1278 431 1278 q 481 1265 464 1278 q 499 1235 499 1253 q 495 1220 499 1229 q 485 1200 492 1211 q 455 1128 465 1160 q 441 1056 444 1096 q 438 951 438 1017 q 419 913 438 925 q 372 900 401 900 z "},"”":{"ha":547,"x_min":49,"x_max":486,"o":"m 418 1278 q 468 1263 450 1278 q 486 1222 486 1249 q 481 1147 486 1186 q 463 1069 475 1108 q 433 993 451 1031 q 386 922 414 956 q 370 908 379 915 q 346 900 361 900 q 309 913 326 900 q 292 943 292 925 q 296 958 292 949 q 306 978 300 967 q 336 1051 326 1019 q 349 1122 346 1082 q 353 1226 353 1163 q 371 1265 353 1253 q 418 1278 389 1278 m 175 1278 q 225 1263 207 1278 q 243 1222 243 1249 q 238 1147 243 1186 q 220 1069 232 1108 q 190 993 208 1031 q 143 922 171 956 q 127 908 136 915 q 103 900 118 900 q 66 913 83 900 q 49 943 49 925 q 53 958 49 949 q 63 978 57 967 q 93 1051 83 1019 q 106 1122 103 1082 q 110 1226 110 1163 q 128 1265 110 1253 q 175 1278 146 1278 z "},"„":{"ha":547,"x_min":49,"x_max":486,"o":"m 346 -262 q 309 -249 326 -262 q 292 -218 292 -236 q 296 -204 292 -212 q 306 -183 300 -196 q 336 -111 326 -143 q 349 -40 346 -79 q 353 64 353 0 q 370 103 353 90 q 418 117 388 117 q 468 102 450 117 q 486 61 486 88 q 476 -40 486 13 q 444 -144 467 -93 q 385 -239 422 -194 q 369 -255 379 -247 q 346 -262 360 -262 m 103 -262 q 66 -249 83 -262 q 49 -218 49 -236 q 53 -204 49 -212 q 63 -183 57 -196 q 93 -111 83 -143 q 106 -40 103 -79 q 110 64 110 0 q 127 103 110 90 q 175 117 144 117 q 225 102 207 117 q 243 61 243 88 q 233 -40 243 13 q 201 -144 224 -93 q 142 -239 179 -194 q 126 -255 136 -247 q 103 -262 117 -262 z "},"«":{"ha":1007,"x_min":131,"x_max":875,"o":"m 458 -19 q 419 -11 438 -19 q 383 19 401 -3 l 164 297 q 138 331 144 321 q 131 349 131 342 q 138 367 131 357 q 164 401 144 378 l 383 678 q 419 708 401 700 q 458 715 438 715 q 499 703 483 715 q 518 675 515 692 q 507 640 521 658 l 275 349 l 507 56 q 512 5 528 29 q 458 -19 496 -19 m 806 -19 q 767 -11 785 -19 q 731 19 749 -3 l 511 297 q 485 331 492 321 q 478 349 478 342 q 485 367 478 357 q 511 401 492 378 l 731 678 q 767 708 749 700 q 806 715 785 715 q 847 703 831 715 q 865 675 863 692 q 854 640 868 658 l 622 349 l 854 56 q 859 5 875 29 q 806 -19 843 -19 z "},"»":{"ha":1007,"x_min":132,"x_max":876,"o":"m 201 -19 q 160 -8 176 -19 q 142 22 144 4 q 153 56 139 39 l 385 349 l 153 640 q 148 691 132 667 q 201 715 164 715 q 241 708 222 715 q 276 678 260 700 l 497 401 q 523 367 517 378 q 529 349 529 357 q 523 331 529 342 q 497 297 517 321 l 276 19 q 241 -11 260 -3 q 201 -19 222 -19 m 549 -19 q 508 -8 524 -19 q 489 22 492 4 q 500 56 486 39 l 732 349 l 500 640 q 495 691 479 667 q 549 715 511 715 q 588 708 569 715 q 624 678 607 700 l 844 401 q 870 367 864 378 q 876 349 876 357 q 870 331 876 342 q 844 297 864 321 l 624 19 q 588 -11 607 -3 q 549 -19 569 -19 z "},"‹":{"ha":660,"x_min":131,"x_max":528,"o":"m 458 -19 q 419 -11 438 -19 q 383 19 401 -3 l 164 297 q 138 331 144 321 q 131 349 131 342 q 138 367 131 357 q 164 401 144 378 l 383 678 q 419 708 401 700 q 458 715 438 715 q 499 703 483 715 q 518 675 515 692 q 507 640 521 658 l 275 349 l 507 56 q 512 5 528 29 q 458 -19 496 -19 z "},"›":{"ha":660,"x_min":132,"x_max":529,"o":"m 201 -19 q 160 -8 176 -19 q 142 22 144 4 q 153 56 139 39 l 385 349 l 153 640 q 148 691 132 667 q 201 715 164 715 q 241 708 222 715 q 276 678 260 700 l 497 401 q 523 367 517 378 q 529 349 529 357 q 523 331 529 342 q 497 297 517 321 l 276 19 q 241 -11 260 -3 q 201 -19 222 -19 z "},"Á":{"ha":1044,"x_min":22,"x_max":1024,"o":"m 85 -19 q 35 -2 49 -19 q 32 43 22 15 l 444 1181 q 472 1224 456 1213 q 522 1236 489 1236 q 572 1224 556 1236 q 599 1181 588 1213 l 1013 43 q 1008 -2 1024 15 q 957 -19 993 -19 q 913 -8 926 -19 q 889 32 900 4 l 789 313 l 253 313 l 151 32 q 128 -8 142 4 q 85 -19 115 -19 m 293 424 l 747 424 l 521 1054 l 293 424 m 458 1293 q 426 1313 444 1293 q 407 1346 407 1332 q 408 1356 407 1351 q 418 1369 410 1361 l 606 1568 q 619 1579 613 1575 q 632 1583 625 1583 q 664 1571 646 1583 q 695 1542 682 1558 q 708 1511 708 1525 q 705 1494 708 1501 q 688 1476 701 1488 l 485 1307 q 470 1297 476 1301 q 458 1293 464 1293 z "},"Ă":{"ha":1044,"x_min":22,"x_max":1024,"o":"m 85 -19 q 35 -2 49 -19 q 32 43 22 15 l 444 1181 q 472 1224 456 1213 q 522 1236 489 1236 q 572 1224 556 1236 q 599 1181 588 1213 l 1013 43 q 1008 -2 1024 15 q 957 -19 993 -19 q 913 -8 926 -19 q 889 32 900 4 l 789 313 l 253 313 l 151 32 q 128 -8 142 4 q 85 -19 115 -19 m 293 424 l 747 424 l 521 1054 l 293 424 m 521 1293 q 349 1355 415 1293 q 272 1542 282 1417 q 285 1570 271 1558 q 325 1582 299 1582 q 356 1572 347 1582 q 369 1542 364 1561 q 424 1448 388 1479 q 521 1417 460 1417 q 619 1448 582 1417 q 672 1542 656 1479 q 685 1572 678 1561 q 715 1582 693 1582 q 756 1570 742 1582 q 769 1542 771 1558 q 730 1407 764 1463 q 642 1322 696 1351 q 521 1293 588 1293 z "},"Ǎ":{"ha":1044,"x_min":22,"x_max":1024,"o":"m 85 -19 q 35 -2 49 -19 q 32 43 22 15 l 444 1181 q 472 1224 456 1213 q 522 1236 489 1236 q 572 1224 556 1236 q 599 1181 588 1213 l 1013 43 q 1008 -2 1024 15 q 957 -19 993 -19 q 913 -8 926 -19 q 889 32 900 4 l 789 313 l 253 313 l 151 32 q 128 -8 142 4 q 85 -19 115 -19 m 293 424 l 747 424 l 521 1054 l 293 424 m 729 1583 q 760 1567 743 1583 q 778 1536 778 1551 q 777 1528 778 1533 q 769 1514 776 1522 l 582 1321 q 560 1303 572 1313 q 521 1293 549 1293 q 483 1303 494 1293 q 463 1321 471 1313 l 272 1514 q 265 1528 265 1522 q 264 1536 264 1533 q 282 1567 264 1551 q 313 1583 300 1583 q 330 1578 322 1583 q 347 1567 338 1574 l 521 1432 l 694 1567 q 713 1578 706 1574 q 729 1583 719 1583 z "},"Â":{"ha":1044,"x_min":22,"x_max":1024,"o":"m 85 -19 q 35 -2 49 -19 q 32 43 22 15 l 444 1181 q 472 1224 456 1213 q 522 1236 489 1236 q 572 1224 556 1236 q 599 1181 588 1213 l 1013 43 q 1008 -2 1024 15 q 957 -19 993 -19 q 913 -8 926 -19 q 889 32 900 4 l 789 313 l 253 313 l 151 32 q 128 -8 142 4 q 85 -19 115 -19 m 293 424 l 747 424 l 521 1054 l 293 424 m 313 1293 q 282 1310 300 1293 q 264 1340 264 1326 q 265 1350 264 1344 q 272 1363 265 1356 l 460 1556 q 482 1574 469 1565 q 521 1583 494 1583 q 559 1574 547 1583 q 581 1556 571 1565 l 769 1363 q 777 1350 776 1356 q 778 1340 778 1344 q 760 1310 778 1326 q 729 1293 743 1293 q 713 1298 719 1293 q 694 1311 706 1303 l 521 1444 l 347 1311 q 330 1298 338 1303 q 313 1293 322 1293 z "},"Ä":{"ha":1044,"x_min":22,"x_max":1024,"o":"m 85 -19 q 35 -2 49 -19 q 32 43 22 15 l 444 1181 q 472 1224 456 1213 q 522 1236 489 1236 q 572 1224 556 1236 q 599 1181 588 1213 l 1013 43 q 1008 -2 1024 15 q 957 -19 993 -19 q 913 -8 926 -19 q 889 32 900 4 l 789 313 l 253 313 l 151 32 q 128 -8 142 4 q 85 -19 115 -19 m 293 424 l 747 424 l 521 1054 l 293 424 m 356 1338 q 297 1359 317 1338 q 278 1424 278 1381 q 297 1490 278 1468 q 356 1513 317 1513 q 413 1490 394 1513 q 432 1424 432 1468 q 415 1359 435 1381 q 356 1338 394 1338 m 688 1338 q 629 1359 649 1338 q 610 1424 610 1381 q 629 1490 610 1468 q 688 1513 649 1513 q 744 1490 725 1513 q 764 1424 764 1468 q 745 1359 765 1381 q 688 1338 725 1338 z "},"Ǽ":{"ha":1339,"x_min":11,"x_max":1286,"o":"m 1249 0 l 722 0 q 676 14 692 0 q 661 56 661 28 l 661 553 l 392 553 l 125 1 q 96 -21 115 -17 q 50 -14 76 -25 q 19 15 28 -3 q 21 50 11 32 l 568 1167 q 598 1207 583 1199 q 651 1215 613 1215 l 1249 1215 q 1278 1203 1269 1215 q 1286 1160 1286 1192 q 1278 1117 1286 1129 q 1249 1104 1269 1104 l 783 1104 l 783 664 l 1161 664 q 1191 652 1182 664 q 1200 608 1200 640 q 1191 565 1200 578 q 1161 553 1182 553 l 783 553 l 783 111 l 1249 111 q 1278 99 1269 111 q 1286 56 1286 88 q 1278 13 1286 25 q 1249 0 1269 0 m 446 664 l 661 664 l 661 1108 l 446 664 m 867 1293 q 834 1313 853 1293 q 815 1346 815 1332 q 817 1356 815 1351 q 826 1369 818 1361 l 1014 1568 q 1027 1579 1021 1575 q 1040 1583 1033 1583 q 1072 1571 1054 1583 q 1103 1542 1090 1558 q 1117 1511 1117 1525 q 1113 1494 1117 1501 q 1096 1476 1110 1488 l 893 1307 q 878 1297 885 1301 q 867 1293 872 1293 z "},"À":{"ha":1044,"x_min":22,"x_max":1024,"o":"m 85 -19 q 35 -2 49 -19 q 32 43 22 15 l 444 1181 q 472 1224 456 1213 q 522 1236 489 1236 q 572 1224 556 1236 q 599 1181 588 1213 l 1013 43 q 1008 -2 1024 15 q 957 -19 993 -19 q 913 -8 926 -19 q 889 32 900 4 l 789 313 l 253 313 l 151 32 q 128 -8 142 4 q 85 -19 115 -19 m 293 424 l 747 424 l 521 1054 l 293 424 m 583 1293 q 572 1297 578 1293 q 557 1307 565 1301 l 354 1476 q 338 1494 342 1488 q 333 1511 333 1501 q 347 1542 333 1525 q 378 1571 360 1558 q 410 1583 396 1583 q 424 1579 418 1583 q 436 1568 431 1575 l 624 1369 q 635 1356 633 1361 q 636 1346 636 1351 q 617 1313 636 1332 q 583 1293 599 1293 z "},"Ā":{"ha":1044,"x_min":22,"x_max":1024,"o":"m 85 -19 q 35 -2 49 -19 q 32 43 22 15 l 444 1181 q 472 1224 456 1213 q 522 1236 489 1236 q 572 1224 556 1236 q 599 1181 588 1213 l 1013 43 q 1008 -2 1024 15 q 957 -19 993 -19 q 913 -8 926 -19 q 889 32 900 4 l 789 313 l 253 313 l 151 32 q 128 -8 142 4 q 85 -19 115 -19 m 293 424 l 747 424 l 521 1054 l 293 424 m 335 1379 q 304 1395 311 1379 q 297 1436 297 1411 q 304 1480 297 1463 q 335 1497 311 1497 l 707 1497 q 738 1480 732 1497 q 744 1436 744 1463 q 738 1395 744 1411 q 707 1379 732 1379 l 335 1379 z "},"Ą":{"ha":1044,"x_min":22,"x_max":1057,"o":"m 85 -19 q 35 -2 49 -19 q 32 43 22 15 l 444 1181 q 472 1224 456 1213 q 522 1236 489 1236 q 572 1224 556 1236 q 599 1181 588 1213 l 1013 43 q 1008 -2 1024 15 q 957 -19 993 -19 q 913 -8 926 -19 q 889 32 900 4 l 789 313 l 253 313 l 151 32 q 128 -8 142 4 q 85 -19 115 -19 m 293 424 l 747 424 l 521 1054 l 293 424 m 861 -360 q 773 -329 807 -360 q 739 -246 739 -299 q 751 -182 739 -212 q 786 -119 763 -151 q 844 -51 810 -86 q 925 24 879 -17 l 1011 24 l 1011 13 q 953 -46 982 -15 q 902 -105 925 -76 q 866 -160 879 -133 q 853 -210 853 -186 q 863 -243 853 -231 q 892 -256 872 -256 q 934 -239 915 -256 q 976 -199 953 -222 q 998 -188 985 -192 q 1028 -197 1011 -185 q 1051 -225 1044 -207 q 1050 -257 1058 -243 q 997 -314 1031 -290 q 928 -349 964 -337 q 861 -360 892 -360 z "},"Å":{"ha":1044,"x_min":22,"x_max":1024,"o":"m 85 -19 q 35 -2 49 -19 q 32 43 22 15 l 444 1181 q 472 1224 456 1213 q 522 1236 489 1236 q 572 1224 556 1236 q 599 1181 588 1213 l 1013 43 q 1008 -2 1024 15 q 957 -19 993 -19 q 913 -8 926 -19 q 889 32 900 4 l 789 313 l 253 313 l 151 32 q 128 -8 142 4 q 85 -19 115 -19 m 293 424 l 747 424 l 521 1054 l 293 424 m 521 1282 q 424 1303 467 1282 q 356 1364 381 1325 q 331 1451 331 1403 q 356 1538 331 1500 q 424 1598 381 1576 q 521 1619 467 1619 q 620 1598 576 1619 q 689 1538 664 1576 q 714 1451 714 1500 q 689 1364 714 1403 q 620 1303 664 1325 q 521 1282 576 1282 m 521 1365 q 589 1390 563 1365 q 615 1451 615 1415 q 589 1512 615 1488 q 521 1536 563 1536 q 455 1512 481 1536 q 429 1451 429 1488 q 455 1390 429 1415 q 521 1365 481 1365 z "},"Ã":{"ha":1044,"x_min":22,"x_max":1024,"o":"m 85 -19 q 35 -2 49 -19 q 32 43 22 15 l 444 1181 q 472 1224 456 1213 q 522 1236 489 1236 q 572 1224 556 1236 q 599 1181 588 1213 l 1013 43 q 1008 -2 1024 15 q 957 -19 993 -19 q 913 -8 926 -19 q 889 32 900 4 l 789 313 l 253 313 l 151 32 q 128 -8 142 4 q 85 -19 115 -19 m 293 424 l 747 424 l 521 1054 l 293 424 m 313 1331 q 265 1367 265 1331 q 300 1502 268 1461 q 393 1543 332 1543 q 469 1528 435 1543 q 535 1495 504 1514 q 590 1462 565 1476 q 638 1447 615 1447 q 663 1465 654 1447 q 675 1515 672 1483 q 722 1546 675 1546 q 760 1536 749 1546 q 772 1507 772 1526 q 740 1378 771 1425 q 642 1332 710 1332 q 563 1347 599 1332 q 497 1379 526 1361 q 444 1412 468 1397 q 399 1426 419 1426 q 374 1413 383 1426 q 363 1367 365 1400 q 349 1340 361 1349 q 313 1331 336 1331 z "},"Ắ":{"ha":1044,"x_min":22,"x_max":1024,"o":"m 85 -19 q 35 -2 49 -19 q 32 43 22 15 l 444 1181 q 472 1224 456 1213 q 522 1236 489 1236 q 572 1224 556 1236 q 599 1181 588 1213 l 1013 43 q 1008 -2 1024 15 q 957 -19 993 -19 q 913 -8 926 -19 q 889 32 900 4 l 789 313 l 253 313 l 151 32 q 128 -8 142 4 q 85 -19 115 -19 m 293 424 l 747 424 l 521 1054 l 293 424 m 521 1293 q 349 1355 415 1293 q 272 1542 282 1417 q 285 1570 271 1558 q 325 1582 299 1582 q 356 1572 347 1582 q 369 1542 364 1561 q 424 1448 388 1479 q 521 1417 460 1417 q 619 1448 582 1417 q 672 1542 656 1479 q 685 1572 678 1561 q 715 1582 693 1582 q 756 1570 742 1582 q 769 1542 771 1558 q 730 1407 764 1463 q 642 1322 696 1351 q 521 1293 588 1293 m 458 1557 q 426 1576 444 1557 q 407 1610 407 1596 q 408 1620 407 1615 q 418 1633 410 1625 l 606 1832 q 619 1843 613 1839 q 632 1847 625 1847 q 664 1835 646 1847 q 695 1806 682 1822 q 708 1775 708 1789 q 705 1758 708 1765 q 688 1740 701 1751 l 485 1571 q 470 1561 476 1565 q 458 1557 464 1557 z "},"Ặ":{"ha":1044,"x_min":22,"x_max":1024,"o":"m 85 -19 q 35 -2 49 -19 q 32 43 22 15 l 444 1181 q 472 1224 456 1213 q 522 1236 489 1236 q 572 1224 556 1236 q 599 1181 588 1213 l 1013 43 q 1008 -2 1024 15 q 957 -19 993 -19 q 913 -8 926 -19 q 889 32 900 4 l 789 313 l 253 313 l 151 32 q 128 -8 142 4 q 85 -19 115 -19 m 293 424 l 747 424 l 521 1054 l 293 424 m 521 -326 q 463 -305 482 -326 q 443 -239 443 -283 q 463 -173 443 -194 q 521 -151 482 -151 q 578 -173 558 -151 q 597 -239 597 -194 q 578 -305 599 -283 q 521 -326 558 -326 m 521 1293 q 349 1355 415 1293 q 272 1542 282 1417 q 285 1570 271 1558 q 325 1582 299 1582 q 356 1572 347 1582 q 369 1542 364 1561 q 424 1448 388 1479 q 521 1417 460 1417 q 619 1448 582 1417 q 672 1542 656 1479 q 685 1572 678 1561 q 715 1582 693 1582 q 756 1570 742 1582 q 769 1542 771 1558 q 730 1407 764 1463 q 642 1322 696 1351 q 521 1293 588 1293 z "},"Ằ":{"ha":1044,"x_min":22,"x_max":1024,"o":"m 85 -19 q 35 -2 49 -19 q 32 43 22 15 l 444 1181 q 472 1224 456 1213 q 522 1236 489 1236 q 572 1224 556 1236 q 599 1181 588 1213 l 1013 43 q 1008 -2 1024 15 q 957 -19 993 -19 q 913 -8 926 -19 q 889 32 900 4 l 789 313 l 253 313 l 151 32 q 128 -8 142 4 q 85 -19 115 -19 m 293 424 l 747 424 l 521 1054 l 293 424 m 521 1293 q 349 1355 415 1293 q 272 1542 282 1417 q 285 1570 271 1558 q 325 1582 299 1582 q 356 1572 347 1582 q 369 1542 364 1561 q 424 1448 388 1479 q 521 1417 460 1417 q 619 1448 582 1417 q 672 1542 656 1479 q 685 1572 678 1561 q 715 1582 693 1582 q 756 1570 742 1582 q 769 1542 771 1558 q 730 1407 764 1463 q 642 1322 696 1351 q 521 1293 588 1293 m 583 1556 q 572 1560 578 1556 q 557 1569 565 1564 l 354 1739 q 338 1757 342 1750 q 333 1774 333 1764 q 347 1804 333 1788 q 378 1833 360 1821 q 410 1846 396 1846 q 424 1842 418 1846 q 436 1831 431 1838 l 624 1632 q 635 1619 633 1624 q 636 1608 636 1614 q 617 1575 636 1594 q 583 1556 599 1556 z "},"Ẳ":{"ha":1044,"x_min":22,"x_max":1024,"o":"m 85 -19 q 35 -2 49 -19 q 32 43 22 15 l 444 1181 q 472 1224 456 1213 q 522 1236 489 1236 q 572 1224 556 1236 q 599 1181 588 1213 l 1013 43 q 1008 -2 1024 15 q 957 -19 993 -19 q 913 -8 926 -19 q 889 32 900 4 l 789 313 l 253 313 l 151 32 q 128 -8 142 4 q 85 -19 115 -19 m 293 424 l 747 424 l 521 1054 l 293 424 m 521 1293 q 349 1355 415 1293 q 272 1542 282 1417 q 285 1570 271 1558 q 325 1582 299 1582 q 356 1572 347 1582 q 369 1542 364 1561 q 424 1448 388 1479 q 521 1417 460 1417 q 619 1448 582 1417 q 672 1542 656 1479 q 685 1572 678 1561 q 715 1582 693 1582 q 756 1570 742 1582 q 769 1542 771 1558 q 730 1407 764 1463 q 642 1322 696 1351 q 521 1293 588 1293 m 526 1871 q 636 1838 594 1871 q 678 1750 678 1806 q 662 1688 678 1715 q 607 1632 646 1661 q 583 1607 589 1618 q 579 1582 576 1596 l 581 1572 q 573 1546 585 1557 q 543 1531 561 1535 q 509 1531 525 1526 q 486 1549 493 1535 l 471 1586 q 471 1645 460 1618 q 513 1694 482 1672 q 540 1719 532 1708 q 547 1742 547 1731 q 535 1761 547 1753 q 504 1769 524 1769 q 465 1764 486 1769 q 431 1749 443 1758 q 372 1771 397 1728 q 381 1825 356 1803 q 449 1858 410 1846 q 526 1871 488 1871 z "},"Ẵ":{"ha":1044,"x_min":22,"x_max":1024,"o":"m 85 -19 q 35 -2 49 -19 q 32 43 22 15 l 444 1181 q 472 1224 456 1213 q 522 1236 489 1236 q 572 1224 556 1236 q 599 1181 588 1213 l 1013 43 q 1008 -2 1024 15 q 957 -19 993 -19 q 913 -8 926 -19 q 889 32 900 4 l 789 313 l 253 313 l 151 32 q 128 -8 142 4 q 85 -19 115 -19 m 293 424 l 747 424 l 521 1054 l 293 424 m 521 1293 q 349 1355 415 1293 q 272 1542 282 1417 q 285 1570 271 1558 q 325 1582 299 1582 q 356 1572 347 1582 q 369 1542 364 1561 q 424 1448 388 1479 q 521 1417 460 1417 q 619 1448 582 1417 q 672 1542 656 1479 q 685 1572 678 1561 q 715 1582 693 1582 q 756 1570 742 1582 q 769 1542 771 1558 q 730 1407 764 1463 q 642 1322 696 1351 q 521 1293 588 1293 m 313 1626 q 265 1663 265 1626 q 300 1798 268 1757 q 393 1839 332 1839 q 469 1824 435 1839 q 535 1791 504 1810 q 590 1758 565 1772 q 638 1743 615 1743 q 663 1761 654 1743 q 675 1811 672 1779 q 722 1842 675 1842 q 760 1832 749 1842 q 772 1803 772 1822 q 740 1674 771 1721 q 642 1628 710 1628 q 563 1642 599 1628 q 497 1675 526 1657 q 444 1708 468 1693 q 399 1722 419 1722 q 374 1709 383 1722 q 363 1663 365 1696 q 349 1635 361 1644 q 313 1626 336 1626 z "},"Ấ":{"ha":1044,"x_min":22,"x_max":1024,"o":"m 85 -19 q 35 -2 49 -19 q 32 43 22 15 l 444 1181 q 472 1224 456 1213 q 522 1236 489 1236 q 572 1224 556 1236 q 599 1181 588 1213 l 1013 43 q 1008 -2 1024 15 q 957 -19 993 -19 q 913 -8 926 -19 q 889 32 900 4 l 789 313 l 253 313 l 151 32 q 128 -8 142 4 q 85 -19 115 -19 m 293 424 l 747 424 l 521 1054 l 293 424 m 313 1293 q 282 1310 300 1293 q 264 1340 264 1326 q 265 1350 264 1344 q 272 1363 265 1356 l 460 1556 q 482 1574 469 1565 q 521 1583 494 1583 q 559 1574 547 1583 q 581 1556 571 1565 l 769 1363 q 777 1350 776 1356 q 778 1340 778 1344 q 760 1310 778 1326 q 729 1293 743 1293 q 713 1298 719 1293 q 694 1311 706 1303 l 521 1444 l 347 1311 q 330 1298 338 1303 q 313 1293 322 1293 m 736 1514 q 703 1533 722 1514 q 685 1567 685 1553 q 686 1576 685 1572 q 696 1590 688 1581 l 879 1779 q 892 1792 886 1788 q 904 1796 897 1796 q 936 1783 918 1796 q 967 1753 954 1771 q 981 1722 981 1736 q 978 1707 981 1713 q 960 1688 975 1701 l 763 1528 q 748 1518 754 1522 q 736 1514 742 1514 z "},"Ậ":{"ha":1044,"x_min":22,"x_max":1024,"o":"m 85 -19 q 35 -2 49 -19 q 32 43 22 15 l 444 1181 q 472 1224 456 1213 q 522 1236 489 1236 q 572 1224 556 1236 q 599 1181 588 1213 l 1013 43 q 1008 -2 1024 15 q 957 -19 993 -19 q 913 -8 926 -19 q 889 32 900 4 l 789 313 l 253 313 l 151 32 q 128 -8 142 4 q 85 -19 115 -19 m 293 424 l 747 424 l 521 1054 l 293 424 m 521 -326 q 463 -305 482 -326 q 443 -239 443 -283 q 463 -173 443 -194 q 521 -151 482 -151 q 578 -173 558 -151 q 597 -239 597 -194 q 578 -305 599 -283 q 521 -326 558 -326 m 313 1293 q 282 1310 300 1293 q 264 1340 264 1326 q 265 1350 264 1344 q 272 1363 265 1356 l 460 1556 q 482 1574 469 1565 q 521 1583 494 1583 q 559 1574 547 1583 q 581 1556 571 1565 l 769 1363 q 777 1350 776 1356 q 778 1340 778 1344 q 760 1310 778 1326 q 729 1293 743 1293 q 713 1298 719 1293 q 694 1311 706 1303 l 521 1444 l 347 1311 q 330 1298 338 1303 q 313 1293 322 1293 z "},"Ầ":{"ha":1044,"x_min":22,"x_max":1024,"o":"m 85 -19 q 35 -2 49 -19 q 32 43 22 15 l 444 1181 q 472 1224 456 1213 q 522 1236 489 1236 q 572 1224 556 1236 q 599 1181 588 1213 l 1013 43 q 1008 -2 1024 15 q 957 -19 993 -19 q 913 -8 926 -19 q 889 32 900 4 l 789 313 l 253 313 l 151 32 q 128 -8 142 4 q 85 -19 115 -19 m 293 424 l 747 424 l 521 1054 l 293 424 m 313 1293 q 282 1310 300 1293 q 264 1340 264 1326 q 265 1350 264 1344 q 272 1363 265 1356 l 460 1556 q 482 1574 469 1565 q 521 1583 494 1583 q 559 1574 547 1583 q 581 1556 571 1565 l 769 1363 q 777 1350 776 1356 q 778 1340 778 1344 q 760 1310 778 1326 q 729 1293 743 1293 q 713 1298 719 1293 q 694 1311 706 1303 l 521 1444 l 347 1311 q 330 1298 338 1303 q 313 1293 322 1293 m 819 1494 q 808 1498 814 1494 q 793 1508 801 1501 l 603 1689 q 585 1708 589 1703 q 582 1724 582 1714 q 595 1755 582 1738 q 626 1785 608 1772 q 658 1797 644 1797 q 672 1793 665 1797 q 685 1782 678 1789 l 860 1571 q 869 1557 867 1561 q 872 1547 872 1553 q 853 1514 872 1533 q 819 1494 835 1494 z "},"Ẩ":{"ha":1044,"x_min":22,"x_max":1024,"o":"m 85 -19 q 35 -2 49 -19 q 32 43 22 15 l 444 1181 q 472 1224 456 1213 q 522 1236 489 1236 q 572 1224 556 1236 q 599 1181 588 1213 l 1013 43 q 1008 -2 1024 15 q 957 -19 993 -19 q 913 -8 926 -19 q 889 32 900 4 l 789 313 l 253 313 l 151 32 q 128 -8 142 4 q 85 -19 115 -19 m 293 424 l 747 424 l 521 1054 l 293 424 m 313 1293 q 282 1310 300 1293 q 264 1340 264 1326 q 265 1350 264 1344 q 272 1363 265 1356 l 460 1556 q 482 1574 469 1565 q 521 1583 494 1583 q 559 1574 547 1583 q 581 1556 571 1565 l 769 1363 q 777 1350 776 1356 q 778 1340 778 1344 q 760 1310 778 1326 q 729 1293 743 1293 q 713 1298 719 1293 q 694 1311 706 1303 l 521 1444 l 347 1311 q 330 1298 338 1303 q 313 1293 322 1293 m 775 1807 q 885 1774 843 1807 q 926 1686 926 1742 q 910 1624 926 1651 q 856 1568 894 1597 q 831 1543 838 1554 q 828 1518 825 1532 l 829 1508 q 822 1482 833 1493 q 792 1467 810 1471 q 758 1467 774 1463 q 735 1485 742 1471 l 719 1522 q 719 1581 708 1554 q 761 1631 731 1608 q 788 1656 781 1644 q 796 1678 796 1667 q 784 1697 796 1689 q 753 1706 772 1706 q 713 1700 735 1706 q 679 1685 692 1694 q 621 1707 646 1664 q 629 1761 604 1739 q 697 1794 658 1782 q 775 1807 736 1807 z "},"Ẫ":{"ha":1044,"x_min":22,"x_max":1024,"o":"m 85 -19 q 35 -2 49 -19 q 32 43 22 15 l 444 1181 q 472 1224 456 1213 q 522 1236 489 1236 q 572 1224 556 1236 q 599 1181 588 1213 l 1013 43 q 1008 -2 1024 15 q 957 -19 993 -19 q 913 -8 926 -19 q 889 32 900 4 l 789 313 l 253 313 l 151 32 q 128 -8 142 4 q 85 -19 115 -19 m 293 424 l 747 424 l 521 1054 l 293 424 m 313 1293 q 282 1310 300 1293 q 264 1340 264 1326 q 265 1350 264 1344 q 272 1363 265 1356 l 460 1556 q 482 1574 469 1565 q 521 1583 494 1583 q 559 1574 547 1583 q 581 1556 571 1565 l 769 1363 q 777 1350 776 1356 q 778 1340 778 1344 q 760 1310 778 1326 q 729 1293 743 1293 q 713 1298 719 1293 q 694 1311 706 1303 l 521 1444 l 347 1311 q 330 1298 338 1303 q 313 1293 322 1293 m 318 1594 q 271 1631 271 1594 q 306 1766 274 1725 q 399 1807 338 1807 q 475 1792 440 1807 q 540 1758 510 1778 q 594 1725 569 1739 q 642 1711 619 1711 q 668 1729 658 1711 q 679 1779 678 1747 q 726 1810 679 1810 q 765 1800 754 1810 q 776 1771 776 1790 q 744 1642 775 1688 q 647 1596 714 1596 q 567 1610 603 1596 q 502 1642 532 1624 q 449 1675 472 1661 q 404 1689 425 1689 q 379 1676 388 1689 q 368 1631 371 1663 q 354 1603 367 1613 q 318 1594 342 1594 z "},"Ạ":{"ha":1044,"x_min":22,"x_max":1024,"o":"m 85 -19 q 35 -2 49 -19 q 32 43 22 15 l 444 1181 q 472 1224 456 1213 q 522 1236 489 1236 q 572 1224 556 1236 q 599 1181 588 1213 l 1013 43 q 1008 -2 1024 15 q 957 -19 993 -19 q 913 -8 926 -19 q 889 32 900 4 l 789 313 l 253 313 l 151 32 q 128 -8 142 4 q 85 -19 115 -19 m 293 424 l 747 424 l 521 1054 l 293 424 m 521 -326 q 463 -305 482 -326 q 443 -239 443 -283 q 463 -173 443 -194 q 521 -151 482 -151 q 578 -173 558 -151 q 597 -239 597 -194 q 578 -305 599 -283 q 521 -326 558 -326 z "},"Ả":{"ha":1044,"x_min":22,"x_max":1024,"o":"m 85 -19 q 35 -2 49 -19 q 32 43 22 15 l 444 1181 q 472 1224 456 1213 q 522 1236 489 1236 q 572 1224 556 1236 q 599 1181 588 1213 l 1013 43 q 1008 -2 1024 15 q 957 -19 993 -19 q 913 -8 926 -19 q 889 32 900 4 l 789 313 l 253 313 l 151 32 q 128 -8 142 4 q 85 -19 115 -19 m 293 424 l 747 424 l 521 1054 l 293 424 m 535 1622 q 644 1590 603 1622 q 686 1501 686 1557 q 670 1440 686 1467 q 615 1383 654 1413 q 591 1358 597 1369 q 588 1333 585 1347 l 589 1324 q 581 1297 593 1308 q 551 1282 569 1286 q 517 1282 533 1278 q 494 1300 501 1286 l 479 1338 q 479 1397 468 1369 q 521 1446 490 1424 q 548 1471 540 1460 q 556 1493 556 1482 q 544 1513 556 1504 q 513 1521 532 1521 q 473 1515 494 1521 q 439 1500 451 1510 q 381 1522 406 1479 q 389 1576 364 1554 q 457 1610 418 1597 q 535 1622 496 1622 z "},"Ć":{"ha":1076,"x_min":113,"x_max":1029,"o":"m 606 -26 q 403 19 493 -26 q 247 146 313 64 q 147 342 182 228 q 113 593 113 456 q 129 768 113 685 q 178 923 146 851 q 256 1052 210 994 q 362 1151 303 1110 q 492 1215 421 1193 q 644 1236 564 1236 q 771 1223 708 1236 q 891 1175 833 1210 q 994 1074 949 1140 q 999 1044 1006 1056 q 979 1018 993 1032 q 944 998 960 1001 q 915 1007 929 994 q 838 1067 881 1043 q 748 1105 796 1092 q 644 1118 700 1118 q 534 1102 586 1118 q 437 1054 482 1086 q 356 977 392 1022 q 295 874 321 932 q 256 745 269 815 q 243 593 243 675 q 270 377 243 471 q 347 220 297 283 q 462 124 396 157 q 606 92 528 92 q 711 110 663 92 q 801 158 760 128 q 875 225 842 189 q 935 296 908 261 q 963 312 947 314 q 1000 294 979 310 q 1026 267 1022 279 q 1018 238 1029 254 q 904 97 969 157 q 763 6 839 38 q 606 -26 688 -26 m 571 1293 q 538 1313 557 1293 q 519 1346 519 1332 q 521 1356 519 1351 q 531 1369 522 1361 l 718 1568 q 731 1579 725 1575 q 744 1583 738 1583 q 776 1571 758 1583 q 808 1542 794 1558 q 821 1511 821 1525 q 817 1494 821 1501 q 800 1476 814 1488 l 597 1307 q 583 1297 589 1301 q 571 1293 576 1293 z "},"Č":{"ha":1076,"x_min":113,"x_max":1029,"o":"m 606 -26 q 403 19 493 -26 q 247 146 313 64 q 147 342 182 228 q 113 593 113 456 q 129 768 113 685 q 178 923 146 851 q 256 1052 210 994 q 362 1151 303 1110 q 492 1215 421 1193 q 644 1236 564 1236 q 771 1223 708 1236 q 891 1175 833 1210 q 994 1074 949 1140 q 999 1044 1006 1056 q 979 1018 993 1032 q 944 998 960 1001 q 915 1007 929 994 q 838 1067 881 1043 q 748 1105 796 1092 q 644 1118 700 1118 q 534 1102 586 1118 q 437 1054 482 1086 q 356 977 392 1022 q 295 874 321 932 q 256 745 269 815 q 243 593 243 675 q 270 377 243 471 q 347 220 297 283 q 462 124 396 157 q 606 92 528 92 q 711 110 663 92 q 801 158 760 128 q 875 225 842 189 q 935 296 908 261 q 963 312 947 314 q 1000 294 979 310 q 1026 267 1022 279 q 1018 238 1029 254 q 904 97 969 157 q 763 6 839 38 q 606 -26 688 -26 m 842 1583 q 873 1567 856 1583 q 890 1536 890 1551 q 890 1528 890 1533 q 882 1514 889 1522 l 694 1321 q 673 1303 685 1313 q 633 1293 661 1293 q 595 1303 607 1293 q 575 1321 583 1313 l 385 1514 q 377 1528 378 1522 q 376 1536 376 1533 q 394 1567 376 1551 q 425 1583 413 1583 q 442 1578 435 1583 q 460 1567 450 1574 l 633 1432 l 807 1567 q 825 1578 818 1574 q 842 1583 832 1583 z "},"Ç":{"ha":1076,"x_min":113,"x_max":1029,"o":"m 606 -26 q 403 19 493 -26 q 247 146 313 64 q 147 342 182 228 q 113 593 113 456 q 129 768 113 685 q 178 923 146 851 q 256 1052 210 994 q 362 1151 303 1110 q 492 1215 421 1193 q 644 1236 564 1236 q 771 1223 708 1236 q 891 1175 833 1210 q 994 1074 949 1140 q 999 1044 1006 1056 q 979 1018 993 1032 q 944 998 960 1001 q 915 1007 929 994 q 838 1067 881 1043 q 748 1105 796 1092 q 644 1118 700 1118 q 534 1102 586 1118 q 437 1054 482 1086 q 356 977 392 1022 q 295 874 321 932 q 256 745 269 815 q 243 593 243 675 q 270 377 243 471 q 347 220 297 283 q 462 124 396 157 q 606 92 528 92 q 711 110 663 92 q 801 158 760 128 q 875 225 842 189 q 935 296 908 261 q 963 312 947 314 q 1000 294 979 310 q 1026 267 1022 279 q 1018 238 1029 254 q 904 97 969 157 q 763 6 839 38 q 606 -26 688 -26 m 590 -374 q 524 -366 568 -374 q 442 -335 479 -358 q 424 -309 426 -325 q 429 -278 422 -293 q 451 -253 439 -258 q 482 -256 464 -247 q 524 -269 497 -261 q 581 -278 550 -278 q 641 -267 624 -278 q 658 -231 658 -257 q 637 -194 658 -210 q 554 -187 615 -179 q 531 -186 539 -189 q 514 -174 522 -183 q 506 -154 507 -164 q 510 -135 506 -144 l 579 18 l 671 18 l 594 -146 l 553 -124 q 664 -108 615 -100 q 740 -149 713 -117 q 768 -231 768 -181 q 748 -307 768 -275 q 689 -356 728 -339 q 590 -374 650 -374 z "},"Ĉ":{"ha":1076,"x_min":113,"x_max":1029,"o":"m 606 -26 q 403 19 493 -26 q 247 146 313 64 q 147 342 182 228 q 113 593 113 456 q 129 768 113 685 q 178 923 146 851 q 256 1052 210 994 q 362 1151 303 1110 q 492 1215 421 1193 q 644 1236 564 1236 q 771 1223 708 1236 q 891 1175 833 1210 q 994 1074 949 1140 q 999 1044 1006 1056 q 979 1018 993 1032 q 944 998 960 1001 q 915 1007 929 994 q 838 1067 881 1043 q 748 1105 796 1092 q 644 1118 700 1118 q 534 1102 586 1118 q 437 1054 482 1086 q 356 977 392 1022 q 295 874 321 932 q 256 745 269 815 q 243 593 243 675 q 270 377 243 471 q 347 220 297 283 q 462 124 396 157 q 606 92 528 92 q 711 110 663 92 q 801 158 760 128 q 875 225 842 189 q 935 296 908 261 q 963 312 947 314 q 1000 294 979 310 q 1026 267 1022 279 q 1018 238 1029 254 q 904 97 969 157 q 763 6 839 38 q 606 -26 688 -26 m 425 1293 q 394 1310 413 1293 q 376 1340 376 1326 q 377 1350 376 1344 q 385 1363 378 1356 l 572 1556 q 594 1574 582 1565 q 633 1583 607 1583 q 672 1574 660 1583 q 693 1556 683 1565 l 882 1363 q 890 1350 889 1356 q 890 1340 890 1344 q 873 1310 890 1326 q 842 1293 856 1293 q 825 1298 832 1293 q 807 1311 818 1303 l 633 1444 l 460 1311 q 442 1298 450 1303 q 425 1293 435 1293 z "},"Ċ":{"ha":1076,"x_min":113,"x_max":1029,"o":"m 606 -26 q 403 19 493 -26 q 247 146 313 64 q 147 342 182 228 q 113 593 113 456 q 129 768 113 685 q 178 923 146 851 q 256 1052 210 994 q 362 1151 303 1110 q 492 1215 421 1193 q 644 1236 564 1236 q 771 1223 708 1236 q 891 1175 833 1210 q 994 1074 949 1140 q 999 1044 1006 1056 q 979 1018 993 1032 q 944 998 960 1001 q 915 1007 929 994 q 838 1067 881 1043 q 748 1105 796 1092 q 644 1118 700 1118 q 534 1102 586 1118 q 437 1054 482 1086 q 356 977 392 1022 q 295 874 321 932 q 256 745 269 815 q 243 593 243 675 q 270 377 243 471 q 347 220 297 283 q 462 124 396 157 q 606 92 528 92 q 711 110 663 92 q 801 158 760 128 q 875 225 842 189 q 935 296 908 261 q 963 312 947 314 q 1000 294 979 310 q 1026 267 1022 279 q 1018 238 1029 254 q 904 97 969 157 q 763 6 839 38 q 606 -26 688 -26 m 633 1338 q 575 1359 594 1338 q 556 1424 556 1381 q 575 1490 556 1468 q 633 1513 594 1513 q 690 1490 671 1513 q 710 1424 710 1468 q 691 1359 711 1381 q 633 1338 671 1338 z "},"Ď":{"ha":1207,"x_min":174,"x_max":1094,"o":"m 235 0 q 174 39 174 0 l 174 1178 q 189 1206 174 1197 q 235 1215 204 1215 l 486 1215 q 759 1170 644 1215 q 948 1048 874 1125 q 1058 874 1022 971 q 1094 671 1094 776 q 1069 445 1094 549 q 992 260 1044 342 q 858 119 939 178 q 665 31 776 61 q 408 0 553 0 l 235 0 m 296 118 l 408 118 q 615 140 525 118 q 772 207 706 163 q 880 318 838 251 q 943 473 922 385 q 964 671 964 561 q 933 838 964 761 q 842 974 903 915 q 692 1065 781 1032 q 486 1097 603 1097 l 296 1097 l 296 118 m 775 1583 q 806 1567 789 1583 q 824 1536 824 1551 q 823 1528 824 1533 q 815 1514 822 1522 l 628 1321 q 606 1303 618 1313 q 567 1293 594 1293 q 528 1303 540 1293 q 508 1321 517 1313 l 318 1514 q 310 1528 311 1522 q 310 1536 310 1533 q 328 1567 310 1551 q 358 1583 346 1583 q 376 1578 368 1583 q 393 1567 383 1574 l 567 1432 l 740 1567 q 758 1578 751 1574 q 775 1583 765 1583 z "},"Đ":{"ha":1207,"x_min":32,"x_max":1094,"o":"m 235 0 q 174 39 174 0 l 174 1178 q 189 1206 174 1197 q 235 1215 204 1215 l 486 1215 q 759 1170 644 1215 q 948 1048 874 1125 q 1058 874 1022 971 q 1094 671 1094 776 q 1069 445 1094 549 q 992 260 1044 342 q 858 119 939 178 q 665 31 776 61 q 408 0 553 0 l 235 0 m 296 118 l 408 118 q 615 140 525 118 q 772 207 706 163 q 880 318 838 251 q 943 473 922 385 q 964 671 964 561 q 933 838 964 761 q 842 974 903 915 q 692 1065 781 1032 q 486 1097 603 1097 l 296 1097 l 296 118 m 71 565 q 39 581 46 565 q 32 614 32 596 q 39 650 32 633 q 71 667 46 667 l 578 667 q 608 650 601 667 q 615 614 615 633 q 608 581 615 596 q 578 565 601 565 l 71 565 z "},"É":{"ha":921,"x_min":174,"x_max":868,"o":"m 235 0 q 189 14 204 0 q 174 56 174 28 l 174 1178 q 189 1206 174 1197 q 235 1215 204 1215 l 831 1215 q 860 1203 851 1215 q 868 1160 868 1192 q 860 1117 868 1129 q 831 1104 851 1104 l 296 1104 l 296 699 l 743 699 q 773 687 764 699 q 782 643 782 675 q 773 600 782 613 q 743 588 764 588 l 296 588 l 296 111 l 831 111 q 860 99 851 111 q 868 56 868 88 q 860 13 868 25 q 831 0 851 0 l 235 0 m 474 1293 q 441 1313 460 1293 q 422 1346 422 1332 q 424 1356 422 1351 q 433 1369 425 1361 l 621 1568 q 634 1579 628 1575 q 647 1583 640 1583 q 679 1571 661 1583 q 710 1542 697 1558 q 724 1511 724 1525 q 720 1494 724 1501 q 703 1476 717 1488 l 500 1307 q 485 1297 492 1301 q 474 1293 479 1293 z "},"Ĕ":{"ha":921,"x_min":174,"x_max":868,"o":"m 235 0 q 189 14 204 0 q 174 56 174 28 l 174 1178 q 189 1206 174 1197 q 235 1215 204 1215 l 831 1215 q 860 1203 851 1215 q 868 1160 868 1192 q 860 1117 868 1129 q 831 1104 851 1104 l 296 1104 l 296 699 l 743 699 q 773 687 764 699 q 782 643 782 675 q 773 600 782 613 q 743 588 764 588 l 296 588 l 296 111 l 831 111 q 860 99 851 111 q 868 56 868 88 q 860 13 868 25 q 831 0 851 0 l 235 0 m 536 1293 q 364 1355 431 1293 q 288 1542 297 1417 q 300 1570 286 1558 q 340 1582 314 1582 q 371 1572 363 1582 q 385 1542 379 1561 q 439 1448 403 1479 q 536 1417 475 1417 q 634 1448 597 1417 q 688 1542 671 1479 q 701 1572 693 1561 q 731 1582 708 1582 q 772 1570 757 1582 q 785 1542 786 1558 q 745 1407 779 1463 q 657 1322 711 1351 q 536 1293 603 1293 z "},"Ě":{"ha":921,"x_min":174,"x_max":868,"o":"m 235 0 q 189 14 204 0 q 174 56 174 28 l 174 1178 q 189 1206 174 1197 q 235 1215 204 1215 l 831 1215 q 860 1203 851 1215 q 868 1160 868 1192 q 860 1117 868 1129 q 831 1104 851 1104 l 296 1104 l 296 699 l 743 699 q 773 687 764 699 q 782 643 782 675 q 773 600 782 613 q 743 588 764 588 l 296 588 l 296 111 l 831 111 q 860 99 851 111 q 868 56 868 88 q 860 13 868 25 q 831 0 851 0 l 235 0 m 744 1583 q 776 1567 758 1583 q 793 1536 793 1551 q 792 1528 793 1533 q 785 1514 792 1522 l 597 1321 q 576 1303 588 1313 q 536 1293 564 1293 q 498 1303 510 1293 q 478 1321 486 1313 l 288 1514 q 280 1528 281 1522 q 279 1536 279 1533 q 297 1567 279 1551 q 328 1583 315 1583 q 345 1578 338 1583 q 363 1567 353 1574 l 536 1432 l 710 1567 q 728 1578 721 1574 q 744 1583 735 1583 z "},"Ê":{"ha":921,"x_min":174,"x_max":868,"o":"m 235 0 q 189 14 204 0 q 174 56 174 28 l 174 1178 q 189 1206 174 1197 q 235 1215 204 1215 l 831 1215 q 860 1203 851 1215 q 868 1160 868 1192 q 860 1117 868 1129 q 831 1104 851 1104 l 296 1104 l 296 699 l 743 699 q 773 687 764 699 q 782 643 782 675 q 773 600 782 613 q 743 588 764 588 l 296 588 l 296 111 l 831 111 q 860 99 851 111 q 868 56 868 88 q 860 13 868 25 q 831 0 851 0 l 235 0 m 328 1293 q 297 1310 315 1293 q 279 1340 279 1326 q 280 1350 279 1344 q 288 1363 281 1356 l 475 1556 q 497 1574 485 1565 q 536 1583 510 1583 q 574 1574 563 1583 q 596 1556 586 1565 l 785 1363 q 792 1350 792 1356 q 793 1340 793 1344 q 776 1310 793 1326 q 744 1293 758 1293 q 728 1298 735 1293 q 710 1311 721 1303 l 536 1444 l 363 1311 q 345 1298 353 1303 q 328 1293 338 1293 z "},"Ë":{"ha":921,"x_min":174,"x_max":868,"o":"m 235 0 q 189 14 204 0 q 174 56 174 28 l 174 1178 q 189 1206 174 1197 q 235 1215 204 1215 l 831 1215 q 860 1203 851 1215 q 868 1160 868 1192 q 860 1117 868 1129 q 831 1104 851 1104 l 296 1104 l 296 699 l 743 699 q 773 687 764 699 q 782 643 782 675 q 773 600 782 613 q 743 588 764 588 l 296 588 l 296 111 l 831 111 q 860 99 851 111 q 868 56 868 88 q 860 13 868 25 q 831 0 851 0 l 235 0 m 371 1338 q 313 1359 332 1338 q 293 1424 293 1381 q 313 1490 293 1468 q 371 1513 332 1513 q 428 1490 410 1513 q 447 1424 447 1468 q 430 1359 450 1381 q 371 1338 410 1338 m 703 1338 q 644 1359 664 1338 q 625 1424 625 1381 q 644 1490 625 1468 q 703 1513 664 1513 q 760 1490 740 1513 q 779 1424 779 1468 q 760 1359 781 1381 q 703 1338 740 1338 z "},"Ė":{"ha":921,"x_min":174,"x_max":868,"o":"m 235 0 q 189 14 204 0 q 174 56 174 28 l 174 1178 q 189 1206 174 1197 q 235 1215 204 1215 l 831 1215 q 860 1203 851 1215 q 868 1160 868 1192 q 860 1117 868 1129 q 831 1104 851 1104 l 296 1104 l 296 699 l 743 699 q 773 687 764 699 q 782 643 782 675 q 773 600 782 613 q 743 588 764 588 l 296 588 l 296 111 l 831 111 q 860 99 851 111 q 868 56 868 88 q 860 13 868 25 q 831 0 851 0 l 235 0 m 536 1338 q 478 1359 497 1338 q 458 1424 458 1381 q 478 1490 458 1468 q 536 1513 497 1513 q 593 1490 574 1513 q 613 1424 613 1468 q 594 1359 614 1381 q 536 1338 574 1338 z "},"È":{"ha":921,"x_min":174,"x_max":868,"o":"m 235 0 q 189 14 204 0 q 174 56 174 28 l 174 1178 q 189 1206 174 1197 q 235 1215 204 1215 l 831 1215 q 860 1203 851 1215 q 868 1160 868 1192 q 860 1117 868 1129 q 831 1104 851 1104 l 296 1104 l 296 699 l 743 699 q 773 687 764 699 q 782 643 782 675 q 773 600 782 613 q 743 588 764 588 l 296 588 l 296 111 l 831 111 q 860 99 851 111 q 868 56 868 88 q 860 13 868 25 q 831 0 851 0 l 235 0 m 599 1293 q 587 1297 593 1293 q 572 1307 581 1301 l 369 1476 q 353 1494 357 1488 q 349 1511 349 1501 q 362 1542 349 1525 q 393 1571 375 1558 q 425 1583 411 1583 q 440 1579 433 1583 q 451 1568 446 1575 l 639 1369 q 650 1356 649 1361 q 651 1346 651 1351 q 633 1313 651 1332 q 599 1293 614 1293 z "},"Ē":{"ha":921,"x_min":174,"x_max":868,"o":"m 235 0 q 189 14 204 0 q 174 56 174 28 l 174 1178 q 189 1206 174 1197 q 235 1215 204 1215 l 831 1215 q 860 1203 851 1215 q 868 1160 868 1192 q 860 1117 868 1129 q 831 1104 851 1104 l 296 1104 l 296 699 l 743 699 q 773 687 764 699 q 782 643 782 675 q 773 600 782 613 q 743 588 764 588 l 296 588 l 296 111 l 831 111 q 860 99 851 111 q 868 56 868 88 q 860 13 868 25 q 831 0 851 0 l 235 0 m 350 1379 q 319 1395 326 1379 q 313 1436 313 1411 q 319 1480 313 1463 q 350 1497 326 1497 l 722 1497 q 753 1480 747 1497 q 760 1436 760 1463 q 753 1395 760 1411 q 722 1379 747 1379 l 350 1379 z "},"Ę":{"ha":921,"x_min":174,"x_max":908,"o":"m 235 0 q 189 14 204 0 q 174 56 174 28 l 174 1178 q 189 1206 174 1197 q 235 1215 204 1215 l 831 1215 q 860 1203 851 1215 q 868 1160 868 1192 q 860 1117 868 1129 q 831 1104 851 1104 l 296 1104 l 296 699 l 743 699 q 773 687 764 699 q 782 643 782 675 q 773 600 782 613 q 743 588 764 588 l 296 588 l 296 111 l 831 111 q 860 99 851 111 q 868 56 868 88 q 860 13 868 25 q 831 0 851 0 l 235 0 m 711 -350 q 623 -319 657 -350 q 589 -236 589 -289 q 601 -172 589 -203 q 636 -109 613 -142 q 694 -42 660 -76 q 775 33 729 -7 l 861 33 l 861 22 q 803 -36 832 -6 q 752 -95 775 -67 q 716 -150 729 -124 q 703 -200 703 -176 q 713 -233 703 -221 q 742 -246 722 -246 q 784 -229 765 -246 q 826 -189 803 -212 q 848 -178 835 -182 q 878 -187 861 -175 q 901 -215 894 -197 q 900 -247 908 -233 q 847 -304 881 -281 q 778 -339 814 -328 q 711 -350 742 -350 z "},"Ế":{"ha":921,"x_min":174,"x_max":996,"o":"m 235 0 q 189 14 204 0 q 174 56 174 28 l 174 1178 q 189 1206 174 1197 q 235 1215 204 1215 l 831 1215 q 860 1203 851 1215 q 868 1160 868 1192 q 860 1117 868 1129 q 831 1104 851 1104 l 296 1104 l 296 699 l 743 699 q 773 687 764 699 q 782 643 782 675 q 773 600 782 613 q 743 588 764 588 l 296 588 l 296 111 l 831 111 q 860 99 851 111 q 868 56 868 88 q 860 13 868 25 q 831 0 851 0 l 235 0 m 328 1293 q 297 1310 315 1293 q 279 1340 279 1326 q 280 1350 279 1344 q 288 1363 281 1356 l 475 1556 q 497 1574 485 1565 q 536 1583 510 1583 q 574 1574 563 1583 q 596 1556 586 1565 l 785 1363 q 792 1350 792 1356 q 793 1340 793 1344 q 776 1310 793 1326 q 744 1293 758 1293 q 728 1298 735 1293 q 710 1311 721 1303 l 536 1444 l 363 1311 q 345 1298 353 1303 q 328 1293 338 1293 m 751 1514 q 719 1533 738 1514 q 700 1567 700 1553 q 701 1576 700 1572 q 711 1590 703 1581 l 894 1779 q 907 1792 901 1788 q 919 1796 913 1796 q 951 1783 933 1796 q 983 1753 969 1771 q 996 1722 996 1736 q 993 1707 996 1713 q 975 1688 990 1701 l 778 1528 q 763 1518 769 1522 q 751 1514 757 1514 z "},"Ệ":{"ha":921,"x_min":174,"x_max":868,"o":"m 235 0 q 189 14 204 0 q 174 56 174 28 l 174 1178 q 189 1206 174 1197 q 235 1215 204 1215 l 831 1215 q 860 1203 851 1215 q 868 1160 868 1192 q 860 1117 868 1129 q 831 1104 851 1104 l 296 1104 l 296 699 l 743 699 q 773 687 764 699 q 782 643 782 675 q 773 600 782 613 q 743 588 764 588 l 296 588 l 296 111 l 831 111 q 860 99 851 111 q 868 56 868 88 q 860 13 868 25 q 831 0 851 0 l 235 0 m 511 -326 q 453 -305 472 -326 q 433 -239 433 -283 q 453 -173 433 -194 q 511 -151 472 -151 q 568 -173 549 -151 q 588 -239 588 -194 q 569 -305 589 -283 q 511 -326 549 -326 m 328 1293 q 297 1310 315 1293 q 279 1340 279 1326 q 280 1350 279 1344 q 288 1363 281 1356 l 475 1556 q 497 1574 485 1565 q 536 1583 510 1583 q 574 1574 563 1583 q 596 1556 586 1565 l 785 1363 q 792 1350 792 1356 q 793 1340 793 1344 q 776 1310 793 1326 q 744 1293 758 1293 q 728 1298 735 1293 q 710 1311 721 1303 l 536 1444 l 363 1311 q 345 1298 353 1303 q 328 1293 338 1293 z "},"Ề":{"ha":921,"x_min":174,"x_max":888,"o":"m 235 0 q 189 14 204 0 q 174 56 174 28 l 174 1178 q 189 1206 174 1197 q 235 1215 204 1215 l 831 1215 q 860 1203 851 1215 q 868 1160 868 1192 q 860 1117 868 1129 q 831 1104 851 1104 l 296 1104 l 296 699 l 743 699 q 773 687 764 699 q 782 643 782 675 q 773 600 782 613 q 743 588 764 588 l 296 588 l 296 111 l 831 111 q 860 99 851 111 q 868 56 868 88 q 860 13 868 25 q 831 0 851 0 l 235 0 m 328 1293 q 297 1310 315 1293 q 279 1340 279 1326 q 280 1350 279 1344 q 288 1363 281 1356 l 475 1556 q 497 1574 485 1565 q 536 1583 510 1583 q 574 1574 563 1583 q 596 1556 586 1565 l 785 1363 q 792 1350 792 1356 q 793 1340 793 1344 q 776 1310 793 1326 q 744 1293 758 1293 q 728 1298 735 1293 q 710 1311 721 1303 l 536 1444 l 363 1311 q 345 1298 353 1303 q 328 1293 338 1293 m 835 1494 q 823 1498 829 1494 q 808 1508 817 1501 l 618 1689 q 601 1708 604 1703 q 597 1724 597 1714 q 610 1755 597 1738 q 642 1785 624 1772 q 674 1797 660 1797 q 687 1793 681 1797 q 700 1782 693 1789 l 875 1571 q 885 1557 882 1561 q 888 1547 888 1553 q 869 1514 888 1533 q 835 1494 850 1494 z "},"Ể":{"ha":921,"x_min":174,"x_max":942,"o":"m 235 0 q 189 14 204 0 q 174 56 174 28 l 174 1178 q 189 1206 174 1197 q 235 1215 204 1215 l 831 1215 q 860 1203 851 1215 q 868 1160 868 1192 q 860 1117 868 1129 q 831 1104 851 1104 l 296 1104 l 296 699 l 743 699 q 773 687 764 699 q 782 643 782 675 q 773 600 782 613 q 743 588 764 588 l 296 588 l 296 111 l 831 111 q 860 99 851 111 q 868 56 868 88 q 860 13 868 25 q 831 0 851 0 l 235 0 m 328 1293 q 297 1310 315 1293 q 279 1340 279 1326 q 280 1350 279 1344 q 288 1363 281 1356 l 475 1556 q 497 1574 485 1565 q 536 1583 510 1583 q 574 1574 563 1583 q 596 1556 586 1565 l 785 1363 q 792 1350 792 1356 q 793 1340 793 1344 q 776 1310 793 1326 q 744 1293 758 1293 q 728 1298 735 1293 q 710 1311 721 1303 l 536 1444 l 363 1311 q 345 1298 353 1303 q 328 1293 338 1293 m 790 1807 q 900 1774 858 1807 q 942 1686 942 1742 q 926 1624 942 1651 q 871 1568 910 1597 q 847 1543 853 1554 q 843 1518 840 1532 l 844 1508 q 837 1482 849 1493 q 807 1467 825 1471 q 773 1467 789 1463 q 750 1485 757 1471 l 735 1522 q 735 1581 724 1554 q 776 1631 746 1608 q 803 1656 796 1644 q 811 1678 811 1667 q 799 1697 811 1689 q 768 1706 788 1706 q 728 1700 750 1706 q 694 1685 707 1694 q 636 1707 661 1664 q 644 1761 619 1739 q 713 1794 674 1782 q 790 1807 751 1807 z "},"Ễ":{"ha":921,"x_min":174,"x_max":868,"o":"m 235 0 q 189 14 204 0 q 174 56 174 28 l 174 1178 q 189 1206 174 1197 q 235 1215 204 1215 l 831 1215 q 860 1203 851 1215 q 868 1160 868 1192 q 860 1117 868 1129 q 831 1104 851 1104 l 296 1104 l 296 699 l 743 699 q 773 687 764 699 q 782 643 782 675 q 773 600 782 613 q 743 588 764 588 l 296 588 l 296 111 l 831 111 q 860 99 851 111 q 868 56 868 88 q 860 13 868 25 q 831 0 851 0 l 235 0 m 328 1293 q 297 1310 315 1293 q 279 1340 279 1326 q 280 1350 279 1344 q 288 1363 281 1356 l 475 1556 q 497 1574 485 1565 q 536 1583 510 1583 q 574 1574 563 1583 q 596 1556 586 1565 l 785 1363 q 792 1350 792 1356 q 793 1340 793 1344 q 776 1310 793 1326 q 744 1293 758 1293 q 728 1298 735 1293 q 710 1311 721 1303 l 536 1444 l 363 1311 q 345 1298 353 1303 q 328 1293 338 1293 m 333 1594 q 286 1631 286 1594 q 321 1766 289 1725 q 414 1807 353 1807 q 490 1792 456 1807 q 555 1758 525 1778 q 610 1725 585 1739 q 657 1711 635 1711 q 683 1729 674 1711 q 694 1779 693 1747 q 742 1810 694 1810 q 781 1800 769 1810 q 792 1771 792 1790 q 760 1642 790 1688 q 663 1596 729 1596 q 583 1610 618 1596 q 517 1642 547 1624 q 464 1675 488 1661 q 419 1689 440 1689 q 394 1676 403 1689 q 383 1631 386 1663 q 369 1603 382 1613 q 333 1594 357 1594 z "},"Ẹ":{"ha":921,"x_min":174,"x_max":868,"o":"m 235 0 q 189 14 204 0 q 174 56 174 28 l 174 1178 q 189 1206 174 1197 q 235 1215 204 1215 l 831 1215 q 860 1203 851 1215 q 868 1160 868 1192 q 860 1117 868 1129 q 831 1104 851 1104 l 296 1104 l 296 699 l 743 699 q 773 687 764 699 q 782 643 782 675 q 773 600 782 613 q 743 588 764 588 l 296 588 l 296 111 l 831 111 q 860 99 851 111 q 868 56 868 88 q 860 13 868 25 q 831 0 851 0 l 235 0 m 511 -326 q 453 -305 472 -326 q 433 -239 433 -283 q 453 -173 433 -194 q 511 -151 472 -151 q 568 -173 549 -151 q 588 -239 588 -194 q 569 -305 589 -283 q 511 -326 549 -326 z "},"Ẻ":{"ha":921,"x_min":174,"x_max":868,"o":"m 235 0 q 189 14 204 0 q 174 56 174 28 l 174 1178 q 189 1206 174 1197 q 235 1215 204 1215 l 831 1215 q 860 1203 851 1215 q 868 1160 868 1192 q 860 1117 868 1129 q 831 1104 851 1104 l 296 1104 l 296 699 l 743 699 q 773 687 764 699 q 782 643 782 675 q 773 600 782 613 q 743 588 764 588 l 296 588 l 296 111 l 831 111 q 860 99 851 111 q 868 56 868 88 q 860 13 868 25 q 831 0 851 0 l 235 0 m 550 1622 q 660 1590 618 1622 q 701 1501 701 1557 q 685 1440 701 1467 q 631 1383 669 1413 q 606 1358 613 1369 q 603 1333 600 1347 l 604 1324 q 597 1297 608 1308 q 567 1282 585 1286 q 533 1282 549 1278 q 510 1300 517 1286 l 494 1338 q 494 1397 483 1369 q 536 1446 506 1424 q 563 1471 556 1460 q 571 1493 571 1482 q 559 1513 571 1504 q 528 1521 547 1521 q 488 1515 510 1521 q 454 1500 467 1510 q 396 1522 421 1479 q 404 1576 379 1554 q 472 1610 433 1597 q 550 1622 511 1622 z "},"Ẽ":{"ha":921,"x_min":174,"x_max":868,"o":"m 235 0 q 189 14 204 0 q 174 56 174 28 l 174 1178 q 189 1206 174 1197 q 235 1215 204 1215 l 831 1215 q 860 1203 851 1215 q 868 1160 868 1192 q 860 1117 868 1129 q 831 1104 851 1104 l 296 1104 l 296 699 l 743 699 q 773 687 764 699 q 782 643 782 675 q 773 600 782 613 q 743 588 764 588 l 296 588 l 296 111 l 831 111 q 860 99 851 111 q 868 56 868 88 q 860 13 868 25 q 831 0 851 0 l 235 0 m 328 1331 q 281 1367 281 1331 q 315 1502 283 1461 q 408 1543 347 1543 q 485 1528 450 1543 q 550 1495 519 1514 q 606 1462 581 1476 q 653 1447 631 1447 q 678 1465 669 1447 q 690 1515 688 1483 q 738 1546 690 1546 q 776 1536 764 1546 q 788 1507 788 1526 q 756 1378 786 1425 q 657 1332 725 1332 q 578 1347 614 1332 q 513 1379 542 1361 q 459 1412 483 1397 q 414 1426 435 1426 q 390 1413 399 1426 q 378 1367 381 1400 q 364 1340 376 1349 q 328 1331 351 1331 z "},"Ğ":{"ha":1215,"x_min":113,"x_max":1096,"o":"m 600 -26 q 401 20 490 -25 q 247 147 311 65 q 147 342 182 229 q 113 593 113 456 q 129 768 113 685 q 178 923 146 851 q 256 1052 210 994 q 362 1151 303 1110 q 492 1215 421 1193 q 644 1236 564 1236 q 771 1223 708 1236 q 891 1175 833 1210 q 994 1074 949 1140 q 999 1044 1006 1056 q 979 1018 993 1032 q 944 998 960 1001 q 915 1007 929 994 q 838 1067 881 1043 q 748 1105 796 1092 q 644 1118 700 1118 q 534 1102 586 1118 q 437 1054 482 1086 q 356 977 392 1022 q 295 874 321 932 q 256 745 269 815 q 243 593 243 675 q 270 377 243 471 q 346 220 297 283 q 460 124 394 157 q 600 92 525 92 q 731 108 672 92 q 834 158 790 125 q 908 245 878 192 q 953 372 938 299 q 971 539 969 444 l 657 539 q 627 551 636 539 q 618 594 618 564 q 627 638 618 626 q 657 650 636 650 l 1057 650 q 1087 638 1078 650 q 1096 594 1096 626 q 1057 308 1096 426 q 950 116 1018 190 q 792 8 882 42 q 600 -26 703 -26 m 625 1293 q 453 1355 519 1293 q 376 1542 386 1417 q 389 1570 375 1558 q 429 1582 403 1582 q 460 1572 451 1582 q 474 1542 468 1561 q 528 1448 492 1479 q 625 1417 564 1417 q 723 1448 686 1417 q 776 1542 760 1479 q 790 1572 782 1561 q 819 1582 797 1582 q 860 1570 846 1582 q 874 1542 875 1558 q 834 1407 868 1463 q 746 1322 800 1351 q 625 1293 692 1293 z "},"Ĝ":{"ha":1215,"x_min":113,"x_max":1096,"o":"m 600 -26 q 401 20 490 -25 q 247 147 311 65 q 147 342 182 229 q 113 593 113 456 q 129 768 113 685 q 178 923 146 851 q 256 1052 210 994 q 362 1151 303 1110 q 492 1215 421 1193 q 644 1236 564 1236 q 771 1223 708 1236 q 891 1175 833 1210 q 994 1074 949 1140 q 999 1044 1006 1056 q 979 1018 993 1032 q 944 998 960 1001 q 915 1007 929 994 q 838 1067 881 1043 q 748 1105 796 1092 q 644 1118 700 1118 q 534 1102 586 1118 q 437 1054 482 1086 q 356 977 392 1022 q 295 874 321 932 q 256 745 269 815 q 243 593 243 675 q 270 377 243 471 q 346 220 297 283 q 460 124 394 157 q 600 92 525 92 q 731 108 672 92 q 834 158 790 125 q 908 245 878 192 q 953 372 938 299 q 971 539 969 444 l 657 539 q 627 551 636 539 q 618 594 618 564 q 627 638 618 626 q 657 650 636 650 l 1057 650 q 1087 638 1078 650 q 1096 594 1096 626 q 1057 308 1096 426 q 950 116 1018 190 q 792 8 882 42 q 600 -26 703 -26 m 417 1293 q 386 1310 404 1293 q 368 1340 368 1326 q 369 1350 368 1344 q 376 1363 369 1356 l 564 1556 q 586 1574 574 1565 q 625 1583 599 1583 q 663 1574 651 1583 q 685 1556 675 1565 l 874 1363 q 881 1350 881 1356 q 882 1340 882 1344 q 865 1310 882 1326 q 833 1293 847 1293 q 817 1298 824 1293 q 799 1311 810 1303 l 625 1444 l 451 1311 q 434 1298 442 1303 q 417 1293 426 1293 z "},"Ģ":{"ha":1215,"x_min":113,"x_max":1096,"o":"m 600 -26 q 401 20 490 -25 q 247 147 311 65 q 147 342 182 229 q 113 593 113 456 q 129 768 113 685 q 178 923 146 851 q 256 1052 210 994 q 362 1151 303 1110 q 492 1215 421 1193 q 644 1236 564 1236 q 771 1223 708 1236 q 891 1175 833 1210 q 994 1074 949 1140 q 999 1044 1006 1056 q 979 1018 993 1032 q 944 998 960 1001 q 915 1007 929 994 q 838 1067 881 1043 q 748 1105 796 1092 q 644 1118 700 1118 q 534 1102 586 1118 q 437 1054 482 1086 q 356 977 392 1022 q 295 874 321 932 q 256 745 269 815 q 243 593 243 675 q 270 377 243 471 q 346 220 297 283 q 460 124 394 157 q 600 92 525 92 q 731 108 672 92 q 834 158 790 125 q 908 245 878 192 q 953 372 938 299 q 971 539 969 444 l 657 539 q 627 551 636 539 q 618 594 618 564 q 627 638 618 626 q 657 650 636 650 l 1057 650 q 1087 638 1078 650 q 1096 594 1096 626 q 1057 308 1096 426 q 950 116 1018 190 q 792 8 882 42 q 600 -26 703 -26 m 531 -406 q 510 -387 514 -399 q 513 -354 506 -375 q 538 -281 529 -312 q 548 -219 546 -250 q 550 -146 550 -187 q 563 -112 550 -122 q 603 -103 576 -103 q 652 -118 635 -103 q 669 -160 669 -133 q 660 -233 669 -194 q 633 -311 650 -272 q 594 -383 617 -350 q 567 -409 581 -406 q 531 -406 553 -412 z "},"Ġ":{"ha":1215,"x_min":113,"x_max":1096,"o":"m 600 -26 q 401 20 490 -25 q 247 147 311 65 q 147 342 182 229 q 113 593 113 456 q 129 768 113 685 q 178 923 146 851 q 256 1052 210 994 q 362 1151 303 1110 q 492 1215 421 1193 q 644 1236 564 1236 q 771 1223 708 1236 q 891 1175 833 1210 q 994 1074 949 1140 q 999 1044 1006 1056 q 979 1018 993 1032 q 944 998 960 1001 q 915 1007 929 994 q 838 1067 881 1043 q 748 1105 796 1092 q 644 1118 700 1118 q 534 1102 586 1118 q 437 1054 482 1086 q 356 977 392 1022 q 295 874 321 932 q 256 745 269 815 q 243 593 243 675 q 270 377 243 471 q 346 220 297 283 q 460 124 394 157 q 600 92 525 92 q 731 108 672 92 q 834 158 790 125 q 908 245 878 192 q 953 372 938 299 q 971 539 969 444 l 657 539 q 627 551 636 539 q 618 594 618 564 q 627 638 618 626 q 657 650 636 650 l 1057 650 q 1087 638 1078 650 q 1096 594 1096 626 q 1057 308 1096 426 q 950 116 1018 190 q 792 8 882 42 q 600 -26 703 -26 m 625 1338 q 567 1359 586 1338 q 547 1424 547 1381 q 567 1490 547 1468 q 625 1513 586 1513 q 682 1490 663 1513 q 701 1424 701 1468 q 683 1359 703 1381 q 625 1338 663 1338 z "},"Ħ":{"ha":1233,"x_min":44,"x_max":1190,"o":"m 235 -19 q 174 19 174 -19 l 174 1199 q 189 1227 174 1218 q 235 1236 204 1236 q 296 1199 296 1236 l 296 693 l 938 693 l 938 1199 q 953 1227 938 1218 q 999 1236 968 1236 q 1060 1199 1060 1236 l 1060 19 q 1044 -10 1060 0 q 999 -19 1029 -19 q 938 19 938 -19 l 938 582 l 296 582 l 296 19 q 281 -10 296 0 q 235 -19 265 -19 m 82 885 q 51 899 57 885 q 44 936 44 913 q 51 977 44 963 q 82 992 57 992 l 1151 992 q 1183 977 1176 992 q 1190 936 1190 963 q 1183 899 1190 913 q 1151 885 1176 885 l 82 885 z "},"Ĥ":{"ha":1233,"x_min":174,"x_max":1060,"o":"m 235 -19 q 174 19 174 -19 l 174 1199 q 189 1227 174 1218 q 235 1236 204 1236 q 296 1199 296 1236 l 296 693 l 938 693 l 938 1199 q 953 1227 938 1218 q 999 1236 968 1236 q 1060 1199 1060 1236 l 1060 19 q 1044 -10 1060 0 q 999 -19 1029 -19 q 938 19 938 -19 l 938 582 l 296 582 l 296 19 q 281 -10 296 0 q 235 -19 265 -19 m 408 1293 q 378 1310 396 1293 q 360 1340 360 1326 q 360 1350 360 1344 q 368 1363 361 1356 l 556 1556 q 578 1574 565 1565 q 617 1583 590 1583 q 655 1574 643 1583 q 676 1556 667 1565 l 865 1363 q 873 1350 872 1356 q 874 1340 874 1344 q 856 1310 874 1326 q 825 1293 839 1293 q 808 1298 815 1293 q 790 1311 801 1303 l 617 1444 l 443 1311 q 426 1298 433 1303 q 408 1293 418 1293 z "},"Í":{"ha":469,"x_min":121,"x_max":422,"o":"m 235 -19 q 189 -10 204 -19 q 174 19 174 0 l 174 1199 q 189 1227 174 1218 q 235 1236 204 1236 q 281 1227 265 1236 q 296 1199 296 1218 l 296 19 q 281 -10 296 0 q 235 -19 265 -19 m 172 1293 q 140 1313 158 1293 q 121 1346 121 1332 q 122 1356 121 1351 q 132 1369 124 1361 l 319 1568 q 333 1579 326 1575 q 346 1583 339 1583 q 378 1571 360 1583 q 409 1542 396 1558 q 422 1511 422 1525 q 419 1494 422 1501 q 401 1476 415 1488 l 199 1307 q 184 1297 190 1301 q 172 1293 178 1293 z "},"Ĭ":{"ha":469,"x_min":-15,"x_max":485,"o":"m 235 -19 q 189 -10 204 -19 q 174 19 174 0 l 174 1199 q 189 1227 174 1218 q 235 1236 204 1236 q 281 1227 265 1236 q 296 1199 296 1218 l 296 19 q 281 -10 296 0 q 235 -19 265 -19 m 235 1293 q 63 1355 129 1293 q -14 1542 -4 1417 q -1 1570 -15 1558 q 39 1582 13 1582 q 69 1572 61 1582 q 83 1542 78 1561 q 138 1448 101 1479 q 235 1417 174 1417 q 333 1448 296 1417 q 386 1542 369 1479 q 399 1572 392 1561 q 429 1582 407 1582 q 470 1570 456 1582 q 483 1542 485 1558 q 444 1407 478 1463 q 356 1322 410 1351 q 235 1293 301 1293 z "},"Ǐ":{"ha":469,"x_min":-22,"x_max":492,"o":"m 235 -19 q 189 -10 204 -19 q 174 19 174 0 l 174 1199 q 189 1227 174 1218 q 235 1236 204 1236 q 281 1227 265 1236 q 296 1199 296 1218 l 296 19 q 281 -10 296 0 q 235 -19 265 -19 m 443 1583 q 474 1567 457 1583 q 492 1536 492 1551 q 491 1528 492 1533 q 483 1514 490 1522 l 296 1321 q 274 1303 286 1313 q 235 1293 263 1293 q 197 1303 208 1293 q 176 1321 185 1313 l -14 1514 q -22 1528 -21 1522 q -22 1536 -22 1533 q -4 1567 -22 1551 q 26 1583 14 1583 q 44 1578 36 1583 q 61 1567 51 1574 l 235 1432 l 408 1567 q 426 1578 419 1574 q 443 1583 433 1583 z "},"Î":{"ha":469,"x_min":-22,"x_max":492,"o":"m 235 -19 q 189 -10 204 -19 q 174 19 174 0 l 174 1199 q 189 1227 174 1218 q 235 1236 204 1236 q 281 1227 265 1236 q 296 1199 296 1218 l 296 19 q 281 -10 296 0 q 235 -19 265 -19 m 26 1293 q -4 1310 14 1293 q -22 1340 -22 1326 q -22 1350 -22 1344 q -14 1363 -21 1356 l 174 1556 q 196 1574 183 1565 q 235 1583 208 1583 q 273 1574 261 1583 q 294 1556 285 1565 l 483 1363 q 491 1350 490 1356 q 492 1340 492 1344 q 474 1310 492 1326 q 443 1293 457 1293 q 426 1298 433 1293 q 408 1311 419 1303 l 235 1444 l 61 1311 q 44 1298 51 1303 q 26 1293 36 1293 z "},"Ï":{"ha":469,"x_min":-8,"x_max":479,"o":"m 235 -19 q 189 -10 204 -19 q 174 19 174 0 l 174 1199 q 189 1227 174 1218 q 235 1236 204 1236 q 281 1227 265 1236 q 296 1199 296 1218 l 296 19 q 281 -10 296 0 q 235 -19 265 -19 m 69 1338 q 11 1359 31 1338 q -8 1424 -8 1381 q 11 1490 -8 1468 q 69 1513 31 1513 q 127 1490 108 1513 q 146 1424 146 1468 q 128 1359 149 1381 q 69 1338 108 1338 m 401 1338 q 343 1359 363 1338 q 324 1424 324 1381 q 343 1490 324 1468 q 401 1513 363 1513 q 458 1490 439 1513 q 478 1424 478 1468 q 459 1359 479 1381 q 401 1338 439 1338 z "},"İ":{"ha":469,"x_min":157,"x_max":313,"o":"m 235 -19 q 189 -10 204 -19 q 174 19 174 0 l 174 1199 q 189 1227 174 1218 q 235 1236 204 1236 q 281 1227 265 1236 q 296 1199 296 1218 l 296 19 q 281 -10 296 0 q 235 -19 265 -19 m 235 1338 q 176 1359 196 1338 q 157 1424 157 1381 q 176 1490 157 1468 q 235 1513 196 1513 q 292 1490 272 1513 q 311 1424 311 1468 q 292 1359 313 1381 q 235 1338 272 1338 z "},"Ì":{"ha":469,"x_min":47,"x_max":350,"o":"m 235 -19 q 189 -10 204 -19 q 174 19 174 0 l 174 1199 q 189 1227 174 1218 q 235 1236 204 1236 q 281 1227 265 1236 q 296 1199 296 1218 l 296 19 q 281 -10 296 0 q 235 -19 265 -19 m 297 1293 q 285 1297 292 1293 q 271 1307 279 1301 l 68 1476 q 51 1494 56 1488 q 47 1511 47 1501 q 60 1542 47 1525 q 92 1571 74 1558 q 124 1583 110 1583 q 138 1579 132 1583 q 150 1568 144 1575 l 338 1369 q 349 1356 347 1361 q 350 1346 350 1351 q 331 1313 350 1332 q 297 1293 313 1293 z "},"Ī":{"ha":469,"x_min":11,"x_max":458,"o":"m 235 -19 q 189 -10 204 -19 q 174 19 174 0 l 174 1199 q 189 1227 174 1218 q 235 1236 204 1236 q 281 1227 265 1236 q 296 1199 296 1218 l 296 19 q 281 -10 296 0 q 235 -19 265 -19 m 49 1379 q 18 1395 25 1379 q 11 1436 11 1411 q 18 1480 11 1463 q 49 1497 25 1497 l 421 1497 q 452 1480 446 1497 q 458 1436 458 1463 q 452 1395 458 1411 q 421 1379 446 1379 l 49 1379 z "},"Į":{"ha":469,"x_min":10,"x_max":329,"o":"m 235 -19 q 189 -10 204 -19 q 174 19 174 0 l 174 1199 q 189 1227 174 1218 q 235 1236 204 1236 q 281 1227 265 1236 q 296 1199 296 1218 l 296 19 q 281 -10 296 0 q 235 -19 265 -19 m 132 -364 q 44 -333 78 -364 q 10 -250 10 -303 q 22 -186 10 -217 q 57 -123 33 -156 q 115 -56 81 -90 q 196 19 150 -21 l 282 19 l 282 8 q 224 -50 253 -19 q 173 -109 196 -81 q 137 -164 150 -137 q 124 -214 124 -190 q 133 -247 124 -235 q 163 -260 143 -260 q 205 -243 186 -260 q 247 -203 224 -226 q 269 -192 256 -196 q 299 -201 282 -189 q 322 -229 315 -211 q 321 -261 329 -247 q 268 -318 301 -294 q 199 -353 235 -342 q 132 -364 163 -364 z "},"Ĩ":{"ha":469,"x_min":-21,"x_max":486,"o":"m 235 -19 q 189 -10 204 -19 q 174 19 174 0 l 174 1199 q 189 1227 174 1218 q 235 1236 204 1236 q 281 1227 265 1236 q 296 1199 296 1218 l 296 19 q 281 -10 296 0 q 235 -19 265 -19 m 26 1331 q -21 1367 -21 1331 q 14 1502 -18 1461 q 107 1543 46 1543 q 183 1528 149 1543 q 249 1495 218 1514 q 304 1462 279 1476 q 351 1447 329 1447 q 377 1465 368 1447 q 389 1515 386 1483 q 436 1546 389 1546 q 474 1536 463 1546 q 486 1507 486 1526 q 454 1378 485 1425 q 356 1332 424 1332 q 276 1347 313 1332 q 211 1379 240 1361 q 158 1412 182 1397 q 113 1426 133 1426 q 88 1413 97 1426 q 76 1367 79 1400 q 63 1340 75 1349 q 26 1331 50 1331 z "},"Ị":{"ha":469,"x_min":157,"x_max":313,"o":"m 235 -19 q 189 -10 204 -19 q 174 19 174 0 l 174 1199 q 189 1227 174 1218 q 235 1236 204 1236 q 281 1227 265 1236 q 296 1199 296 1218 l 296 19 q 281 -10 296 0 q 235 -19 265 -19 m 235 -326 q 176 -305 196 -326 q 157 -239 157 -283 q 176 -173 157 -194 q 235 -151 196 -151 q 292 -173 272 -151 q 311 -239 311 -194 q 292 -305 313 -283 q 235 -326 272 -326 z "},"Ỉ":{"ha":469,"x_min":78,"x_max":400,"o":"m 235 -19 q 189 -10 204 -19 q 174 19 174 0 l 174 1199 q 189 1227 174 1218 q 235 1236 204 1236 q 281 1227 265 1236 q 296 1199 296 1218 l 296 19 q 281 -10 296 0 q 235 -19 265 -19 m 249 1622 q 358 1590 317 1622 q 400 1501 400 1557 q 384 1440 400 1467 q 329 1383 368 1413 q 305 1358 311 1369 q 301 1333 299 1347 l 303 1324 q 295 1297 307 1308 q 265 1282 283 1286 q 231 1282 247 1278 q 208 1300 215 1286 l 193 1338 q 193 1397 182 1369 q 235 1446 204 1424 q 262 1471 254 1460 q 269 1493 269 1482 q 258 1513 269 1504 q 226 1521 246 1521 q 187 1515 208 1521 q 153 1500 165 1510 q 94 1522 119 1479 q 103 1576 78 1554 q 171 1610 132 1597 q 249 1622 210 1622 z "},"Ĵ":{"ha":903,"x_min":46,"x_max":951,"o":"m 421 -26 q 264 1 336 -26 q 138 85 192 29 q 53 218 83 140 q 57 251 46 242 q 86 269 68 261 q 126 278 110 279 q 150 257 142 276 q 210 166 176 203 q 294 110 244 129 q 421 92 344 92 q 491 99 458 92 q 550 124 524 107 q 595 172 576 142 q 624 246 614 201 q 633 353 633 290 l 633 1199 q 649 1227 633 1218 q 694 1236 664 1236 q 740 1227 725 1236 q 756 1199 756 1218 l 756 353 q 740 213 756 274 q 697 106 725 151 q 626 31 668 61 q 533 -12 585 1 q 421 -26 482 -26 m 486 1293 q 456 1310 474 1293 q 438 1340 438 1326 q 438 1350 438 1344 q 446 1363 439 1356 l 633 1556 q 656 1574 643 1565 q 694 1583 668 1583 q 733 1574 721 1583 q 754 1556 744 1565 l 943 1363 q 951 1350 950 1356 q 951 1340 951 1344 q 934 1310 951 1326 q 903 1293 917 1293 q 886 1298 893 1293 q 868 1311 879 1303 l 694 1444 l 521 1311 q 503 1298 511 1303 q 486 1293 496 1293 z "},"Ķ":{"ha":956,"x_min":174,"x_max":942,"o":"m 235 -19 q 189 -10 204 -19 q 174 19 174 0 l 174 1199 q 235 1236 174 1236 q 296 1199 296 1236 l 296 706 l 833 1224 q 866 1237 850 1242 q 900 1213 882 1232 q 920 1176 919 1190 q 908 1147 921 1161 l 386 640 q 570 417 482 519 q 744 231 658 315 q 918 75 831 146 q 938 42 933 64 q 915 -6 942 21 q 878 -23 897 -22 q 838 -7 858 -24 q 689 125 763 54 q 547 272 615 196 q 415 426 478 347 q 296 582 351 504 l 296 19 q 281 -10 296 0 q 235 -19 265 -19 m 451 -406 q 431 -387 435 -399 q 433 -354 426 -375 q 458 -281 450 -312 q 469 -219 467 -250 q 471 -146 471 -187 q 484 -112 471 -122 q 524 -103 497 -103 q 573 -118 556 -103 q 590 -160 590 -133 q 581 -233 590 -194 q 554 -311 571 -272 q 515 -383 538 -350 q 488 -409 501 -406 q 451 -406 474 -412 z "},"Ĺ":{"ha":868,"x_min":121,"x_max":833,"o":"m 235 0 q 174 56 174 0 l 174 1199 q 189 1227 174 1218 q 235 1236 204 1236 q 281 1227 265 1236 q 296 1199 296 1218 l 296 111 l 796 111 q 825 99 817 111 q 833 56 833 88 q 825 13 833 25 q 796 0 817 0 l 235 0 m 172 1293 q 140 1313 158 1293 q 121 1346 121 1332 q 122 1356 121 1351 q 132 1369 124 1361 l 319 1568 q 333 1579 326 1575 q 346 1583 339 1583 q 378 1571 360 1583 q 409 1542 396 1558 q 422 1511 422 1525 q 419 1494 422 1501 q 401 1476 415 1488 l 199 1307 q 184 1297 190 1301 q 172 1293 178 1293 z "},"Ľ":{"ha":868,"x_min":174,"x_max":833,"o":"m 235 0 q 174 56 174 0 l 174 1199 q 189 1227 174 1218 q 235 1236 204 1236 q 281 1227 265 1236 q 296 1199 296 1218 l 296 111 l 796 111 q 825 99 817 111 q 833 56 833 88 q 825 13 833 25 q 796 0 817 0 l 235 0 m 450 903 q 418 921 426 911 q 415 949 410 931 q 433 1026 425 979 q 446 1123 440 1074 q 453 1207 451 1172 q 466 1232 453 1222 q 513 1242 479 1242 q 563 1232 547 1242 q 578 1207 578 1222 q 565 1116 576 1169 q 538 1009 554 1063 q 504 917 522 956 q 490 900 499 907 q 450 903 481 893 z "},"Ļ":{"ha":868,"x_min":174,"x_max":833,"o":"m 235 0 q 174 56 174 0 l 174 1199 q 189 1227 174 1218 q 235 1236 204 1236 q 281 1227 265 1236 q 296 1199 296 1218 l 296 111 l 796 111 q 825 99 817 111 q 833 56 833 88 q 825 13 833 25 q 796 0 817 0 l 235 0 m 443 -406 q 422 -387 426 -399 q 425 -354 418 -375 q 450 -281 442 -312 q 460 -219 458 -250 q 463 -146 463 -187 q 476 -112 463 -122 q 515 -103 489 -103 q 565 -118 547 -103 q 582 -160 582 -133 q 572 -233 582 -194 q 546 -311 563 -272 q 507 -383 529 -350 q 479 -409 493 -406 q 443 -406 465 -412 z "},"Ŀ":{"ha":868,"x_min":174,"x_max":833,"o":"m 235 0 q 174 56 174 0 l 174 1199 q 189 1227 174 1218 q 235 1236 204 1236 q 281 1227 265 1236 q 296 1199 296 1218 l 296 111 l 796 111 q 825 99 817 111 q 833 56 833 88 q 825 13 833 25 q 796 0 817 0 l 235 0 m 646 538 q 588 559 607 538 q 568 625 568 581 q 588 691 568 669 q 646 713 607 713 q 703 691 683 713 q 722 625 722 669 q 703 559 724 581 q 646 538 683 538 z "},"Ł":{"ha":868,"x_min":19,"x_max":833,"o":"m 235 0 q 174 56 174 0 l 174 1199 q 189 1227 174 1218 q 235 1236 204 1236 q 281 1227 265 1236 q 296 1199 296 1218 l 296 111 l 796 111 q 825 99 817 111 q 833 56 833 88 q 825 13 833 25 q 796 0 817 0 l 235 0 m 90 493 q 57 488 72 483 q 28 514 42 492 q 19 549 19 531 q 39 578 19 568 l 471 808 q 503 815 490 819 q 528 796 515 811 q 526 729 558 746 l 90 493 z "},"Ń":{"ha":1233,"x_min":174,"x_max":1060,"o":"m 235 -19 q 174 19 174 -19 l 174 1199 q 189 1227 174 1218 q 235 1236 204 1236 q 275 1227 260 1236 q 304 1199 290 1218 l 938 238 l 938 1199 q 953 1227 938 1218 q 999 1236 968 1236 q 1060 1199 1060 1236 l 1060 19 q 1044 -10 1060 0 q 1000 -19 1029 -19 q 965 -12 978 -19 q 938 19 953 -6 l 296 994 l 296 19 q 281 -10 296 0 q 235 -19 265 -19 m 554 1293 q 522 1313 540 1293 q 503 1346 503 1332 q 504 1356 503 1351 q 514 1369 506 1361 l 701 1568 q 715 1579 708 1575 q 728 1583 721 1583 q 760 1571 742 1583 q 791 1542 778 1558 q 804 1511 804 1525 q 801 1494 804 1501 q 783 1476 797 1488 l 581 1307 q 566 1297 572 1301 q 554 1293 560 1293 z "},"Ň":{"ha":1233,"x_min":174,"x_max":1060,"o":"m 235 -19 q 174 19 174 -19 l 174 1199 q 189 1227 174 1218 q 235 1236 204 1236 q 275 1227 260 1236 q 304 1199 290 1218 l 938 238 l 938 1199 q 953 1227 938 1218 q 999 1236 968 1236 q 1060 1199 1060 1236 l 1060 19 q 1044 -10 1060 0 q 1000 -19 1029 -19 q 965 -12 978 -19 q 938 19 953 -6 l 296 994 l 296 19 q 281 -10 296 0 q 235 -19 265 -19 m 825 1583 q 856 1567 839 1583 q 874 1536 874 1551 q 873 1528 874 1533 q 865 1514 872 1522 l 678 1321 q 656 1303 668 1313 q 617 1293 644 1293 q 578 1303 590 1293 q 558 1321 567 1313 l 368 1514 q 360 1528 361 1522 q 360 1536 360 1533 q 378 1567 360 1551 q 408 1583 396 1583 q 426 1578 418 1583 q 443 1567 433 1574 l 617 1432 l 790 1567 q 808 1578 801 1574 q 825 1583 815 1583 z "},"Ņ":{"ha":1233,"x_min":174,"x_max":1060,"o":"m 235 -19 q 174 19 174 -19 l 174 1199 q 189 1227 174 1218 q 235 1236 204 1236 q 275 1227 260 1236 q 304 1199 290 1218 l 938 238 l 938 1199 q 953 1227 938 1218 q 999 1236 968 1236 q 1060 1199 1060 1236 l 1060 19 q 1044 -10 1060 0 q 1000 -19 1029 -19 q 965 -12 978 -19 q 938 19 953 -6 l 296 994 l 296 19 q 281 -10 296 0 q 235 -19 265 -19 m 539 -406 q 518 -387 522 -399 q 521 -354 514 -375 q 546 -281 538 -312 q 556 -219 554 -250 q 558 -146 558 -187 q 572 -112 558 -122 q 611 -103 585 -103 q 660 -118 643 -103 q 678 -160 678 -133 q 668 -233 678 -194 q 642 -311 658 -272 q 603 -383 625 -350 q 575 -409 589 -406 q 539 -406 561 -412 z "},"Ñ":{"ha":1233,"x_min":174,"x_max":1060,"o":"m 235 -19 q 174 19 174 -19 l 174 1199 q 189 1227 174 1218 q 235 1236 204 1236 q 275 1227 260 1236 q 304 1199 290 1218 l 938 238 l 938 1199 q 953 1227 938 1218 q 999 1236 968 1236 q 1060 1199 1060 1236 l 1060 19 q 1044 -10 1060 0 q 1000 -19 1029 -19 q 965 -12 978 -19 q 938 19 953 -6 l 296 994 l 296 19 q 281 -10 296 0 q 235 -19 265 -19 m 408 1331 q 361 1367 361 1331 q 396 1502 364 1461 q 489 1543 428 1543 q 565 1528 531 1543 q 631 1495 600 1514 q 686 1462 661 1476 q 733 1447 711 1447 q 759 1465 750 1447 q 771 1515 768 1483 q 818 1546 771 1546 q 856 1536 844 1546 q 868 1507 868 1526 q 836 1378 867 1425 q 738 1332 806 1332 q 658 1347 694 1332 q 593 1379 622 1361 q 540 1412 564 1397 q 494 1426 515 1426 q 470 1413 479 1426 q 458 1367 461 1400 q 444 1340 457 1349 q 408 1331 432 1331 z "},"Ó":{"ha":1285,"x_min":113,"x_max":1172,"o":"m 644 -26 q 424 21 522 -26 q 257 153 326 68 q 150 353 188 238 q 113 606 113 468 q 129 779 113 697 q 178 932 146 861 q 256 1058 210 1003 q 362 1154 303 1114 q 492 1215 421 1194 q 644 1236 564 1236 q 863 1190 765 1236 q 1029 1058 960 1143 q 1135 858 1099 974 q 1172 606 1172 743 q 1156 432 1172 514 q 1107 279 1139 350 q 1029 152 1075 208 q 924 56 983 96 q 795 -5 865 17 q 644 -26 725 -26 m 644 92 q 754 107 703 92 q 850 152 806 122 q 930 226 894 182 q 990 327 965 269 q 1028 454 1015 385 q 1042 606 1042 524 q 1013 823 1042 728 q 930 984 983 918 q 803 1084 876 1050 q 644 1118 731 1118 q 534 1103 586 1118 q 437 1058 482 1088 q 356 984 392 1028 q 295 883 321 940 q 256 757 269 826 q 243 606 243 688 q 273 388 243 483 q 356 226 303 292 q 483 126 410 160 q 644 92 557 92 m 581 1293 q 548 1313 567 1293 q 529 1346 529 1332 q 531 1356 529 1351 q 540 1369 532 1361 l 728 1568 q 741 1579 735 1575 q 754 1583 747 1583 q 786 1571 768 1583 q 817 1542 804 1558 q 831 1511 831 1525 q 827 1494 831 1501 q 810 1476 824 1488 l 607 1307 q 592 1297 599 1301 q 581 1293 586 1293 z "},"Ŏ":{"ha":1285,"x_min":113,"x_max":1172,"o":"m 644 -26 q 424 21 522 -26 q 257 153 326 68 q 150 353 188 238 q 113 606 113 468 q 129 779 113 697 q 178 932 146 861 q 256 1058 210 1003 q 362 1154 303 1114 q 492 1215 421 1194 q 644 1236 564 1236 q 863 1190 765 1236 q 1029 1058 960 1143 q 1135 858 1099 974 q 1172 606 1172 743 q 1156 432 1172 514 q 1107 279 1139 350 q 1029 152 1075 208 q 924 56 983 96 q 795 -5 865 17 q 644 -26 725 -26 m 644 92 q 754 107 703 92 q 850 152 806 122 q 930 226 894 182 q 990 327 965 269 q 1028 454 1015 385 q 1042 606 1042 524 q 1013 823 1042 728 q 930 984 983 918 q 803 1084 876 1050 q 644 1118 731 1118 q 534 1103 586 1118 q 437 1058 482 1088 q 356 984 392 1028 q 295 883 321 940 q 256 757 269 826 q 243 606 243 688 q 273 388 243 483 q 356 226 303 292 q 483 126 410 160 q 644 92 557 92 m 643 1293 q 471 1355 538 1293 q 394 1542 404 1417 q 407 1570 393 1558 q 447 1582 421 1582 q 478 1572 469 1582 q 492 1542 486 1561 q 546 1448 510 1479 q 643 1417 582 1417 q 741 1448 704 1417 q 794 1542 778 1479 q 808 1572 800 1561 q 838 1582 815 1582 q 878 1570 864 1582 q 892 1542 893 1558 q 852 1407 886 1463 q 764 1322 818 1351 q 643 1293 710 1293 z "},"Ǒ":{"ha":1285,"x_min":113,"x_max":1172,"o":"m 644 -26 q 424 21 522 -26 q 257 153 326 68 q 150 353 188 238 q 113 606 113 468 q 129 779 113 697 q 178 932 146 861 q 256 1058 210 1003 q 362 1154 303 1114 q 492 1215 421 1194 q 644 1236 564 1236 q 863 1190 765 1236 q 1029 1058 960 1143 q 1135 858 1099 974 q 1172 606 1172 743 q 1156 432 1172 514 q 1107 279 1139 350 q 1029 152 1075 208 q 924 56 983 96 q 795 -5 865 17 q 644 -26 725 -26 m 644 92 q 754 107 703 92 q 850 152 806 122 q 930 226 894 182 q 990 327 965 269 q 1028 454 1015 385 q 1042 606 1042 524 q 1013 823 1042 728 q 930 984 983 918 q 803 1084 876 1050 q 644 1118 731 1118 q 534 1103 586 1118 q 437 1058 482 1088 q 356 984 392 1028 q 295 883 321 940 q 256 757 269 826 q 243 606 243 688 q 273 388 243 483 q 356 226 303 292 q 483 126 410 160 q 644 92 557 92 m 851 1583 q 883 1567 865 1583 q 900 1536 900 1551 q 899 1528 900 1533 q 892 1514 899 1522 l 704 1321 q 683 1303 694 1313 q 643 1293 671 1293 q 605 1303 617 1293 q 585 1321 593 1313 l 394 1514 q 387 1528 388 1522 q 386 1536 386 1533 q 404 1567 386 1551 q 435 1583 422 1583 q 452 1578 444 1583 q 469 1567 460 1574 l 643 1432 l 817 1567 q 835 1578 828 1574 q 851 1583 842 1583 z "},"Ô":{"ha":1285,"x_min":113,"x_max":1172,"o":"m 644 -26 q 424 21 522 -26 q 257 153 326 68 q 150 353 188 238 q 113 606 113 468 q 129 779 113 697 q 178 932 146 861 q 256 1058 210 1003 q 362 1154 303 1114 q 492 1215 421 1194 q 644 1236 564 1236 q 863 1190 765 1236 q 1029 1058 960 1143 q 1135 858 1099 974 q 1172 606 1172 743 q 1156 432 1172 514 q 1107 279 1139 350 q 1029 152 1075 208 q 924 56 983 96 q 795 -5 865 17 q 644 -26 725 -26 m 644 92 q 754 107 703 92 q 850 152 806 122 q 930 226 894 182 q 990 327 965 269 q 1028 454 1015 385 q 1042 606 1042 524 q 1013 823 1042 728 q 930 984 983 918 q 803 1084 876 1050 q 644 1118 731 1118 q 534 1103 586 1118 q 437 1058 482 1088 q 356 984 392 1028 q 295 883 321 940 q 256 757 269 826 q 243 606 243 688 q 273 388 243 483 q 356 226 303 292 q 483 126 410 160 q 644 92 557 92 m 435 1293 q 404 1310 422 1293 q 386 1340 386 1326 q 387 1350 386 1344 q 394 1363 388 1356 l 582 1556 q 604 1574 592 1565 q 643 1583 617 1583 q 681 1574 669 1583 q 703 1556 693 1565 l 892 1363 q 899 1350 899 1356 q 900 1340 900 1344 q 883 1310 900 1326 q 851 1293 865 1293 q 835 1298 842 1293 q 817 1311 828 1303 l 643 1444 l 469 1311 q 452 1298 460 1303 q 435 1293 444 1293 z "},"Ö":{"ha":1285,"x_min":113,"x_max":1172,"o":"m 644 -26 q 424 21 522 -26 q 257 153 326 68 q 150 353 188 238 q 113 606 113 468 q 129 779 113 697 q 178 932 146 861 q 256 1058 210 1003 q 362 1154 303 1114 q 492 1215 421 1194 q 644 1236 564 1236 q 863 1190 765 1236 q 1029 1058 960 1143 q 1135 858 1099 974 q 1172 606 1172 743 q 1156 432 1172 514 q 1107 279 1139 350 q 1029 152 1075 208 q 924 56 983 96 q 795 -5 865 17 q 644 -26 725 -26 m 644 92 q 754 107 703 92 q 850 152 806 122 q 930 226 894 182 q 990 327 965 269 q 1028 454 1015 385 q 1042 606 1042 524 q 1013 823 1042 728 q 930 984 983 918 q 803 1084 876 1050 q 644 1118 731 1118 q 534 1103 586 1118 q 437 1058 482 1088 q 356 984 392 1028 q 295 883 321 940 q 256 757 269 826 q 243 606 243 688 q 273 388 243 483 q 356 226 303 292 q 483 126 410 160 q 644 92 557 92 m 478 1338 q 419 1359 439 1338 q 400 1424 400 1381 q 419 1490 400 1468 q 478 1513 439 1513 q 535 1490 517 1513 q 554 1424 554 1468 q 537 1359 557 1381 q 478 1338 517 1338 m 810 1338 q 751 1359 771 1338 q 732 1424 732 1381 q 751 1490 732 1468 q 810 1513 771 1513 q 867 1490 847 1513 q 886 1424 886 1468 q 867 1359 888 1381 q 810 1338 847 1338 z "},"Ò":{"ha":1285,"x_min":113,"x_max":1172,"o":"m 644 -26 q 424 21 522 -26 q 257 153 326 68 q 150 353 188 238 q 113 606 113 468 q 129 779 113 697 q 178 932 146 861 q 256 1058 210 1003 q 362 1154 303 1114 q 492 1215 421 1194 q 644 1236 564 1236 q 863 1190 765 1236 q 1029 1058 960 1143 q 1135 858 1099 974 q 1172 606 1172 743 q 1156 432 1172 514 q 1107 279 1139 350 q 1029 152 1075 208 q 924 56 983 96 q 795 -5 865 17 q 644 -26 725 -26 m 644 92 q 754 107 703 92 q 850 152 806 122 q 930 226 894 182 q 990 327 965 269 q 1028 454 1015 385 q 1042 606 1042 524 q 1013 823 1042 728 q 930 984 983 918 q 803 1084 876 1050 q 644 1118 731 1118 q 534 1103 586 1118 q 437 1058 482 1088 q 356 984 392 1028 q 295 883 321 940 q 256 757 269 826 q 243 606 243 688 q 273 388 243 483 q 356 226 303 292 q 483 126 410 160 q 644 92 557 92 m 706 1293 q 694 1297 700 1293 q 679 1307 688 1301 l 476 1476 q 460 1494 464 1488 q 456 1511 456 1501 q 469 1542 456 1525 q 500 1571 482 1558 q 532 1583 518 1583 q 547 1579 540 1583 q 558 1568 553 1575 l 746 1369 q 757 1356 756 1361 q 758 1346 758 1351 q 740 1313 758 1332 q 706 1293 721 1293 z "},"Ő":{"ha":1285,"x_min":113,"x_max":1172,"o":"m 644 -26 q 424 21 522 -26 q 257 153 326 68 q 150 353 188 238 q 113 606 113 468 q 129 779 113 697 q 178 932 146 861 q 256 1058 210 1003 q 362 1154 303 1114 q 492 1215 421 1194 q 644 1236 564 1236 q 863 1190 765 1236 q 1029 1058 960 1143 q 1135 858 1099 974 q 1172 606 1172 743 q 1156 432 1172 514 q 1107 279 1139 350 q 1029 152 1075 208 q 924 56 983 96 q 795 -5 865 17 q 644 -26 725 -26 m 644 92 q 754 107 703 92 q 850 152 806 122 q 930 226 894 182 q 990 327 965 269 q 1028 454 1015 385 q 1042 606 1042 524 q 1013 823 1042 728 q 930 984 983 918 q 803 1084 876 1050 q 644 1118 731 1118 q 534 1103 586 1118 q 437 1058 482 1088 q 356 984 392 1028 q 295 883 321 940 q 256 757 269 826 q 243 606 243 688 q 273 388 243 483 q 356 226 303 292 q 483 126 410 160 q 644 92 557 92 m 504 1293 q 472 1313 490 1293 q 453 1346 453 1332 q 454 1356 453 1351 q 464 1369 456 1360 l 636 1568 q 651 1579 643 1575 q 665 1583 658 1583 q 697 1572 681 1583 q 724 1544 713 1560 q 735 1514 735 1528 q 731 1497 735 1504 q 714 1478 728 1489 l 531 1307 q 516 1297 522 1301 q 504 1293 510 1293 m 763 1293 q 730 1313 749 1293 q 711 1346 711 1332 q 713 1356 711 1351 q 724 1369 714 1361 l 901 1568 q 916 1579 908 1575 q 932 1583 924 1583 q 963 1572 947 1583 q 990 1544 979 1560 q 1001 1514 1001 1528 q 997 1497 1001 1504 q 981 1478 993 1489 l 789 1307 q 775 1297 782 1301 q 763 1293 768 1293 z "},"Ō":{"ha":1285,"x_min":113,"x_max":1172,"o":"m 644 -26 q 424 21 522 -26 q 257 153 326 68 q 150 353 188 238 q 113 606 113 468 q 129 779 113 697 q 178 932 146 861 q 256 1058 210 1003 q 362 1154 303 1114 q 492 1215 421 1194 q 644 1236 564 1236 q 863 1190 765 1236 q 1029 1058 960 1143 q 1135 858 1099 974 q 1172 606 1172 743 q 1156 432 1172 514 q 1107 279 1139 350 q 1029 152 1075 208 q 924 56 983 96 q 795 -5 865 17 q 644 -26 725 -26 m 644 92 q 754 107 703 92 q 850 152 806 122 q 930 226 894 182 q 990 327 965 269 q 1028 454 1015 385 q 1042 606 1042 524 q 1013 823 1042 728 q 930 984 983 918 q 803 1084 876 1050 q 644 1118 731 1118 q 534 1103 586 1118 q 437 1058 482 1088 q 356 984 392 1028 q 295 883 321 940 q 256 757 269 826 q 243 606 243 688 q 273 388 243 483 q 356 226 303 292 q 483 126 410 160 q 644 92 557 92 m 457 1379 q 426 1395 433 1379 q 419 1436 419 1411 q 426 1480 419 1463 q 457 1497 433 1497 l 829 1497 q 860 1480 854 1497 q 867 1436 867 1463 q 860 1395 867 1411 q 829 1379 854 1379 l 457 1379 z "},"Ø":{"ha":1285,"x_min":113,"x_max":1172,"o":"m 644 -26 q 424 21 522 -26 q 257 153 326 68 q 150 353 188 238 q 113 606 113 468 q 129 779 113 697 q 178 932 146 861 q 256 1058 210 1003 q 362 1154 303 1114 q 492 1215 421 1194 q 644 1236 564 1236 q 863 1190 765 1236 q 1029 1058 960 1143 q 1135 858 1099 974 q 1172 606 1172 743 q 1156 432 1172 514 q 1107 279 1139 350 q 1029 152 1075 208 q 924 56 983 96 q 795 -5 865 17 q 644 -26 725 -26 m 644 92 q 754 107 703 92 q 850 152 806 122 q 930 226 894 182 q 990 327 965 269 q 1028 454 1015 385 q 1042 606 1042 524 q 1013 823 1042 728 q 930 984 983 918 q 803 1084 876 1050 q 644 1118 731 1118 q 534 1103 586 1118 q 437 1058 482 1088 q 356 984 392 1028 q 295 883 321 940 q 256 757 269 826 q 243 606 243 688 q 273 388 243 483 q 356 226 303 292 q 483 126 410 160 q 644 92 557 92 m 314 -97 q 285 -121 304 -112 q 238 -112 267 -129 q 211 -44 188 -86 l 981 1290 q 1011 1312 992 1307 q 1057 1304 1031 1317 q 1085 1275 1078 1294 q 1081 1235 1092 1256 l 314 -97 z "},"Õ":{"ha":1285,"x_min":113,"x_max":1172,"o":"m 644 -26 q 424 21 522 -26 q 257 153 326 68 q 150 353 188 238 q 113 606 113 468 q 129 779 113 697 q 178 932 146 861 q 256 1058 210 1003 q 362 1154 303 1114 q 492 1215 421 1194 q 644 1236 564 1236 q 863 1190 765 1236 q 1029 1058 960 1143 q 1135 858 1099 974 q 1172 606 1172 743 q 1156 432 1172 514 q 1107 279 1139 350 q 1029 152 1075 208 q 924 56 983 96 q 795 -5 865 17 q 644 -26 725 -26 m 644 92 q 754 107 703 92 q 850 152 806 122 q 930 226 894 182 q 990 327 965 269 q 1028 454 1015 385 q 1042 606 1042 524 q 1013 823 1042 728 q 930 984 983 918 q 803 1084 876 1050 q 644 1118 731 1118 q 534 1103 586 1118 q 437 1058 482 1088 q 356 984 392 1028 q 295 883 321 940 q 256 757 269 826 q 243 606 243 688 q 273 388 243 483 q 356 226 303 292 q 483 126 410 160 q 644 92 557 92 m 435 1331 q 388 1367 388 1331 q 422 1502 390 1461 q 515 1543 454 1543 q 592 1528 557 1543 q 657 1495 626 1514 q 713 1462 688 1476 q 760 1447 738 1447 q 785 1465 776 1447 q 797 1515 794 1483 q 844 1546 797 1546 q 883 1536 871 1546 q 894 1507 894 1526 q 863 1378 893 1425 q 764 1332 832 1332 q 685 1347 721 1332 q 619 1379 649 1361 q 566 1412 590 1397 q 521 1426 542 1426 q 497 1413 506 1426 q 485 1367 488 1400 q 471 1340 483 1349 q 435 1331 458 1331 z "},"Ố":{"ha":1285,"x_min":113,"x_max":1172,"o":"m 644 -26 q 424 21 522 -26 q 257 153 326 68 q 150 353 188 238 q 113 606 113 468 q 129 779 113 697 q 178 932 146 861 q 256 1058 210 1003 q 362 1154 303 1114 q 492 1215 421 1194 q 644 1236 564 1236 q 863 1190 765 1236 q 1029 1058 960 1143 q 1135 858 1099 974 q 1172 606 1172 743 q 1156 432 1172 514 q 1107 279 1139 350 q 1029 152 1075 208 q 924 56 983 96 q 795 -5 865 17 q 644 -26 725 -26 m 644 92 q 754 107 703 92 q 850 152 806 122 q 930 226 894 182 q 990 327 965 269 q 1028 454 1015 385 q 1042 606 1042 524 q 1013 823 1042 728 q 930 984 983 918 q 803 1084 876 1050 q 644 1118 731 1118 q 534 1103 586 1118 q 437 1058 482 1088 q 356 984 392 1028 q 295 883 321 940 q 256 757 269 826 q 243 606 243 688 q 273 388 243 483 q 356 226 303 292 q 483 126 410 160 q 644 92 557 92 m 435 1293 q 404 1310 422 1293 q 386 1340 386 1326 q 387 1350 386 1344 q 394 1363 388 1356 l 582 1556 q 604 1574 592 1565 q 643 1583 617 1583 q 681 1574 669 1583 q 703 1556 693 1565 l 892 1363 q 899 1350 899 1356 q 900 1340 900 1344 q 883 1310 900 1326 q 851 1293 865 1293 q 835 1298 842 1293 q 817 1311 828 1303 l 643 1444 l 469 1311 q 452 1298 460 1303 q 435 1293 444 1293 m 858 1514 q 826 1533 844 1514 q 807 1567 807 1553 q 808 1576 807 1572 q 818 1590 810 1581 l 1001 1779 q 1014 1792 1008 1788 q 1026 1796 1019 1796 q 1058 1783 1040 1796 q 1090 1753 1076 1771 q 1103 1722 1103 1736 q 1100 1707 1103 1713 q 1082 1688 1097 1701 l 885 1528 q 870 1518 876 1522 q 858 1514 864 1514 z "},"Ộ":{"ha":1285,"x_min":113,"x_max":1172,"o":"m 644 -26 q 424 21 522 -26 q 257 153 326 68 q 150 353 188 238 q 113 606 113 468 q 129 779 113 697 q 178 932 146 861 q 256 1058 210 1003 q 362 1154 303 1114 q 492 1215 421 1194 q 644 1236 564 1236 q 863 1190 765 1236 q 1029 1058 960 1143 q 1135 858 1099 974 q 1172 606 1172 743 q 1156 432 1172 514 q 1107 279 1139 350 q 1029 152 1075 208 q 924 56 983 96 q 795 -5 865 17 q 644 -26 725 -26 m 644 92 q 754 107 703 92 q 850 152 806 122 q 930 226 894 182 q 990 327 965 269 q 1028 454 1015 385 q 1042 606 1042 524 q 1013 823 1042 728 q 930 984 983 918 q 803 1084 876 1050 q 644 1118 731 1118 q 534 1103 586 1118 q 437 1058 482 1088 q 356 984 392 1028 q 295 883 321 940 q 256 757 269 826 q 243 606 243 688 q 273 388 243 483 q 356 226 303 292 q 483 126 410 160 q 644 92 557 92 m 643 -326 q 585 -305 604 -326 q 565 -239 565 -283 q 585 -173 565 -194 q 643 -151 604 -151 q 700 -173 681 -151 q 719 -239 719 -194 q 701 -305 721 -283 q 643 -326 681 -326 m 435 1293 q 404 1310 422 1293 q 386 1340 386 1326 q 387 1350 386 1344 q 394 1363 388 1356 l 582 1556 q 604 1574 592 1565 q 643 1583 617 1583 q 681 1574 669 1583 q 703 1556 693 1565 l 892 1363 q 899 1350 899 1356 q 900 1340 900 1344 q 883 1310 900 1326 q 851 1293 865 1293 q 835 1298 842 1293 q 817 1311 828 1303 l 643 1444 l 469 1311 q 452 1298 460 1303 q 435 1293 444 1293 z "},"Ồ":{"ha":1285,"x_min":113,"x_max":1172,"o":"m 644 -26 q 424 21 522 -26 q 257 153 326 68 q 150 353 188 238 q 113 606 113 468 q 129 779 113 697 q 178 932 146 861 q 256 1058 210 1003 q 362 1154 303 1114 q 492 1215 421 1194 q 644 1236 564 1236 q 863 1190 765 1236 q 1029 1058 960 1143 q 1135 858 1099 974 q 1172 606 1172 743 q 1156 432 1172 514 q 1107 279 1139 350 q 1029 152 1075 208 q 924 56 983 96 q 795 -5 865 17 q 644 -26 725 -26 m 644 92 q 754 107 703 92 q 850 152 806 122 q 930 226 894 182 q 990 327 965 269 q 1028 454 1015 385 q 1042 606 1042 524 q 1013 823 1042 728 q 930 984 983 918 q 803 1084 876 1050 q 644 1118 731 1118 q 534 1103 586 1118 q 437 1058 482 1088 q 356 984 392 1028 q 295 883 321 940 q 256 757 269 826 q 243 606 243 688 q 273 388 243 483 q 356 226 303 292 q 483 126 410 160 q 644 92 557 92 m 435 1293 q 404 1310 422 1293 q 386 1340 386 1326 q 387 1350 386 1344 q 394 1363 388 1356 l 582 1556 q 604 1574 592 1565 q 643 1583 617 1583 q 681 1574 669 1583 q 703 1556 693 1565 l 892 1363 q 899 1350 899 1356 q 900 1340 900 1344 q 883 1310 900 1326 q 851 1293 865 1293 q 835 1298 842 1293 q 817 1311 828 1303 l 643 1444 l 469 1311 q 452 1298 460 1303 q 435 1293 444 1293 m 942 1494 q 930 1498 936 1494 q 915 1508 924 1501 l 725 1689 q 708 1708 711 1703 q 704 1724 704 1714 q 717 1755 704 1738 q 749 1785 731 1772 q 781 1797 767 1797 q 794 1793 788 1797 q 807 1782 800 1789 l 982 1571 q 992 1557 989 1561 q 994 1547 994 1553 q 976 1514 994 1533 q 942 1494 957 1494 z "},"Ổ":{"ha":1285,"x_min":113,"x_max":1172,"o":"m 644 -26 q 424 21 522 -26 q 257 153 326 68 q 150 353 188 238 q 113 606 113 468 q 129 779 113 697 q 178 932 146 861 q 256 1058 210 1003 q 362 1154 303 1114 q 492 1215 421 1194 q 644 1236 564 1236 q 863 1190 765 1236 q 1029 1058 960 1143 q 1135 858 1099 974 q 1172 606 1172 743 q 1156 432 1172 514 q 1107 279 1139 350 q 1029 152 1075 208 q 924 56 983 96 q 795 -5 865 17 q 644 -26 725 -26 m 644 92 q 754 107 703 92 q 850 152 806 122 q 930 226 894 182 q 990 327 965 269 q 1028 454 1015 385 q 1042 606 1042 524 q 1013 823 1042 728 q 930 984 983 918 q 803 1084 876 1050 q 644 1118 731 1118 q 534 1103 586 1118 q 437 1058 482 1088 q 356 984 392 1028 q 295 883 321 940 q 256 757 269 826 q 243 606 243 688 q 273 388 243 483 q 356 226 303 292 q 483 126 410 160 q 644 92 557 92 m 435 1293 q 404 1310 422 1293 q 386 1340 386 1326 q 387 1350 386 1344 q 394 1363 388 1356 l 582 1556 q 604 1574 592 1565 q 643 1583 617 1583 q 681 1574 669 1583 q 703 1556 693 1565 l 892 1363 q 899 1350 899 1356 q 900 1340 900 1344 q 883 1310 900 1326 q 851 1293 865 1293 q 835 1298 842 1293 q 817 1311 828 1303 l 643 1444 l 469 1311 q 452 1298 460 1303 q 435 1293 444 1293 m 897 1807 q 1007 1774 965 1807 q 1049 1686 1049 1742 q 1033 1624 1049 1651 q 978 1568 1017 1597 q 953 1543 960 1554 q 950 1518 947 1532 l 951 1508 q 944 1482 956 1493 q 914 1467 932 1471 q 880 1467 896 1463 q 857 1485 864 1471 l 842 1522 q 842 1581 831 1554 q 883 1631 853 1608 q 910 1656 903 1644 q 918 1678 918 1667 q 906 1697 918 1689 q 875 1706 894 1706 q 835 1700 857 1706 q 801 1685 814 1694 q 743 1707 768 1664 q 751 1761 726 1739 q 819 1794 781 1782 q 897 1807 858 1807 z "},"Ỗ":{"ha":1285,"x_min":113,"x_max":1172,"o":"m 644 -26 q 424 21 522 -26 q 257 153 326 68 q 150 353 188 238 q 113 606 113 468 q 129 779 113 697 q 178 932 146 861 q 256 1058 210 1003 q 362 1154 303 1114 q 492 1215 421 1194 q 644 1236 564 1236 q 863 1190 765 1236 q 1029 1058 960 1143 q 1135 858 1099 974 q 1172 606 1172 743 q 1156 432 1172 514 q 1107 279 1139 350 q 1029 152 1075 208 q 924 56 983 96 q 795 -5 865 17 q 644 -26 725 -26 m 644 92 q 754 107 703 92 q 850 152 806 122 q 930 226 894 182 q 990 327 965 269 q 1028 454 1015 385 q 1042 606 1042 524 q 1013 823 1042 728 q 930 984 983 918 q 803 1084 876 1050 q 644 1118 731 1118 q 534 1103 586 1118 q 437 1058 482 1088 q 356 984 392 1028 q 295 883 321 940 q 256 757 269 826 q 243 606 243 688 q 273 388 243 483 q 356 226 303 292 q 483 126 410 160 q 644 92 557 92 m 435 1293 q 404 1310 422 1293 q 386 1340 386 1326 q 387 1350 386 1344 q 394 1363 388 1356 l 582 1556 q 604 1574 592 1565 q 643 1583 617 1583 q 681 1574 669 1583 q 703 1556 693 1565 l 892 1363 q 899 1350 899 1356 q 900 1340 900 1344 q 883 1310 900 1326 q 851 1293 865 1293 q 835 1298 842 1293 q 817 1311 828 1303 l 643 1444 l 469 1311 q 452 1298 460 1303 q 435 1293 444 1293 m 440 1594 q 393 1631 393 1594 q 428 1766 396 1725 q 521 1807 460 1807 q 597 1792 563 1807 q 662 1758 632 1778 q 717 1725 692 1739 q 764 1711 742 1711 q 790 1729 781 1711 q 801 1779 800 1747 q 849 1810 801 1810 q 888 1800 876 1810 q 899 1771 899 1790 q 867 1642 897 1688 q 769 1596 836 1596 q 690 1610 725 1596 q 624 1642 654 1624 q 571 1675 594 1661 q 526 1689 547 1689 q 501 1676 510 1689 q 490 1631 493 1663 q 476 1603 489 1613 q 440 1594 464 1594 z "},"Ọ":{"ha":1285,"x_min":113,"x_max":1172,"o":"m 644 -26 q 424 21 522 -26 q 257 153 326 68 q 150 353 188 238 q 113 606 113 468 q 129 779 113 697 q 178 932 146 861 q 256 1058 210 1003 q 362 1154 303 1114 q 492 1215 421 1194 q 644 1236 564 1236 q 863 1190 765 1236 q 1029 1058 960 1143 q 1135 858 1099 974 q 1172 606 1172 743 q 1156 432 1172 514 q 1107 279 1139 350 q 1029 152 1075 208 q 924 56 983 96 q 795 -5 865 17 q 644 -26 725 -26 m 644 92 q 754 107 703 92 q 850 152 806 122 q 930 226 894 182 q 990 327 965 269 q 1028 454 1015 385 q 1042 606 1042 524 q 1013 823 1042 728 q 930 984 983 918 q 803 1084 876 1050 q 644 1118 731 1118 q 534 1103 586 1118 q 437 1058 482 1088 q 356 984 392 1028 q 295 883 321 940 q 256 757 269 826 q 243 606 243 688 q 273 388 243 483 q 356 226 303 292 q 483 126 410 160 q 644 92 557 92 m 643 -326 q 585 -305 604 -326 q 565 -239 565 -283 q 585 -173 565 -194 q 643 -151 604 -151 q 700 -173 681 -151 q 719 -239 719 -194 q 701 -305 721 -283 q 643 -326 681 -326 z "},"Ỏ":{"ha":1285,"x_min":113,"x_max":1172,"o":"m 644 -26 q 424 21 522 -26 q 257 153 326 68 q 150 353 188 238 q 113 606 113 468 q 129 779 113 697 q 178 932 146 861 q 256 1058 210 1003 q 362 1154 303 1114 q 492 1215 421 1194 q 644 1236 564 1236 q 863 1190 765 1236 q 1029 1058 960 1143 q 1135 858 1099 974 q 1172 606 1172 743 q 1156 432 1172 514 q 1107 279 1139 350 q 1029 152 1075 208 q 924 56 983 96 q 795 -5 865 17 q 644 -26 725 -26 m 644 92 q 754 107 703 92 q 850 152 806 122 q 930 226 894 182 q 990 327 965 269 q 1028 454 1015 385 q 1042 606 1042 524 q 1013 823 1042 728 q 930 984 983 918 q 803 1084 876 1050 q 644 1118 731 1118 q 534 1103 586 1118 q 437 1058 482 1088 q 356 984 392 1028 q 295 883 321 940 q 256 757 269 826 q 243 606 243 688 q 273 388 243 483 q 356 226 303 292 q 483 126 410 160 q 644 92 557 92 m 657 1622 q 767 1590 725 1622 q 808 1501 808 1557 q 792 1440 808 1467 q 738 1383 776 1413 q 713 1358 719 1369 q 710 1333 707 1347 l 711 1324 q 703 1297 715 1308 q 674 1282 692 1286 q 640 1282 656 1278 q 617 1300 624 1286 l 601 1338 q 601 1397 590 1369 q 643 1446 613 1424 q 670 1471 663 1460 q 678 1493 678 1482 q 666 1513 678 1504 q 635 1521 654 1521 q 595 1515 617 1521 q 561 1500 574 1510 q 503 1522 528 1479 q 511 1576 486 1554 q 579 1610 540 1597 q 657 1622 618 1622 z "},"Ơ":{"ha":1285,"x_min":113,"x_max":1172,"o":"m 644 -26 q 424 21 522 -26 q 257 153 326 68 q 150 353 188 238 q 113 606 113 468 q 129 779 113 697 q 178 932 146 861 q 256 1058 210 1003 q 362 1154 303 1114 q 492 1215 421 1194 q 644 1236 564 1236 q 721 1231 683 1236 q 793 1215 758 1226 q 931 1237 882 1219 q 998 1285 979 1254 q 1015 1356 1017 1315 q 1000 1449 1013 1397 q 1008 1488 994 1472 q 1045 1507 1022 1503 q 1090 1503 1068 1511 q 1118 1471 1111 1494 q 1135 1369 1133 1419 q 1119 1275 1138 1319 q 1056 1198 1100 1231 q 935 1147 1013 1165 q 1110 926 1047 1067 q 1172 606 1172 785 q 1156 432 1172 514 q 1107 279 1139 350 q 1029 152 1075 208 q 924 56 983 96 q 795 -5 865 17 q 644 -26 725 -26 m 644 92 q 754 107 703 92 q 850 152 806 122 q 930 226 894 182 q 990 327 965 269 q 1028 454 1015 385 q 1042 606 1042 524 q 1013 823 1042 728 q 930 984 983 918 q 803 1084 876 1050 q 644 1118 731 1118 q 534 1103 586 1118 q 437 1058 482 1088 q 356 984 392 1028 q 295 883 321 940 q 256 757 269 826 q 243 606 243 688 q 273 388 243 483 q 356 226 303 292 q 483 126 410 160 q 644 92 557 92 z "},"Ớ":{"ha":1285,"x_min":113,"x_max":1172,"o":"m 644 -26 q 424 21 522 -26 q 257 153 326 68 q 150 353 188 238 q 113 606 113 468 q 129 779 113 697 q 178 932 146 861 q 256 1058 210 1003 q 362 1154 303 1114 q 492 1215 421 1194 q 644 1236 564 1236 q 721 1231 683 1236 q 793 1215 758 1226 q 931 1237 882 1219 q 998 1285 979 1254 q 1015 1356 1017 1315 q 1000 1449 1013 1397 q 1008 1488 994 1472 q 1045 1507 1022 1503 q 1090 1503 1068 1511 q 1118 1471 1111 1494 q 1135 1369 1133 1419 q 1119 1275 1138 1319 q 1056 1198 1100 1231 q 935 1147 1013 1165 q 1110 926 1047 1067 q 1172 606 1172 785 q 1156 432 1172 514 q 1107 279 1139 350 q 1029 152 1075 208 q 924 56 983 96 q 795 -5 865 17 q 644 -26 725 -26 m 644 92 q 754 107 703 92 q 850 152 806 122 q 930 226 894 182 q 990 327 965 269 q 1028 454 1015 385 q 1042 606 1042 524 q 1013 823 1042 728 q 930 984 983 918 q 803 1084 876 1050 q 644 1118 731 1118 q 534 1103 586 1118 q 437 1058 482 1088 q 356 984 392 1028 q 295 883 321 940 q 256 757 269 826 q 243 606 243 688 q 273 388 243 483 q 356 226 303 292 q 483 126 410 160 q 644 92 557 92 m 581 1293 q 548 1313 567 1293 q 529 1346 529 1332 q 531 1356 529 1351 q 540 1369 532 1361 l 728 1568 q 741 1579 735 1575 q 754 1583 747 1583 q 786 1571 768 1583 q 817 1542 804 1558 q 831 1511 831 1525 q 827 1494 831 1501 q 810 1476 824 1488 l 607 1307 q 592 1297 599 1301 q 581 1293 586 1293 z "},"Ợ":{"ha":1285,"x_min":113,"x_max":1172,"o":"m 644 -26 q 424 21 522 -26 q 257 153 326 68 q 150 353 188 238 q 113 606 113 468 q 129 779 113 697 q 178 932 146 861 q 256 1058 210 1003 q 362 1154 303 1114 q 492 1215 421 1194 q 644 1236 564 1236 q 721 1231 683 1236 q 793 1215 758 1226 q 931 1237 882 1219 q 998 1285 979 1254 q 1015 1356 1017 1315 q 1000 1449 1013 1397 q 1008 1488 994 1472 q 1045 1507 1022 1503 q 1090 1503 1068 1511 q 1118 1471 1111 1494 q 1135 1369 1133 1419 q 1119 1275 1138 1319 q 1056 1198 1100 1231 q 935 1147 1013 1165 q 1110 926 1047 1067 q 1172 606 1172 785 q 1156 432 1172 514 q 1107 279 1139 350 q 1029 152 1075 208 q 924 56 983 96 q 795 -5 865 17 q 644 -26 725 -26 m 644 92 q 754 107 703 92 q 850 152 806 122 q 930 226 894 182 q 990 327 965 269 q 1028 454 1015 385 q 1042 606 1042 524 q 1013 823 1042 728 q 930 984 983 918 q 803 1084 876 1050 q 644 1118 731 1118 q 534 1103 586 1118 q 437 1058 482 1088 q 356 984 392 1028 q 295 883 321 940 q 256 757 269 826 q 243 606 243 688 q 273 388 243 483 q 356 226 303 292 q 483 126 410 160 q 644 92 557 92 m 643 -326 q 585 -305 604 -326 q 565 -239 565 -283 q 585 -173 565 -194 q 643 -151 604 -151 q 700 -173 681 -151 q 719 -239 719 -194 q 701 -305 721 -283 q 643 -326 681 -326 z "},"Ờ":{"ha":1285,"x_min":113,"x_max":1172,"o":"m 644 -26 q 424 21 522 -26 q 257 153 326 68 q 150 353 188 238 q 113 606 113 468 q 129 779 113 697 q 178 932 146 861 q 256 1058 210 1003 q 362 1154 303 1114 q 492 1215 421 1194 q 644 1236 564 1236 q 721 1231 683 1236 q 793 1215 758 1226 q 931 1237 882 1219 q 998 1285 979 1254 q 1015 1356 1017 1315 q 1000 1449 1013 1397 q 1008 1488 994 1472 q 1045 1507 1022 1503 q 1090 1503 1068 1511 q 1118 1471 1111 1494 q 1135 1369 1133 1419 q 1119 1275 1138 1319 q 1056 1198 1100 1231 q 935 1147 1013 1165 q 1110 926 1047 1067 q 1172 606 1172 785 q 1156 432 1172 514 q 1107 279 1139 350 q 1029 152 1075 208 q 924 56 983 96 q 795 -5 865 17 q 644 -26 725 -26 m 644 92 q 754 107 703 92 q 850 152 806 122 q 930 226 894 182 q 990 327 965 269 q 1028 454 1015 385 q 1042 606 1042 524 q 1013 823 1042 728 q 930 984 983 918 q 803 1084 876 1050 q 644 1118 731 1118 q 534 1103 586 1118 q 437 1058 482 1088 q 356 984 392 1028 q 295 883 321 940 q 256 757 269 826 q 243 606 243 688 q 273 388 243 483 q 356 226 303 292 q 483 126 410 160 q 644 92 557 92 m 706 1293 q 694 1297 700 1293 q 679 1307 688 1301 l 476 1476 q 460 1494 464 1488 q 456 1511 456 1501 q 469 1542 456 1525 q 500 1571 482 1558 q 532 1583 518 1583 q 547 1579 540 1583 q 558 1568 553 1575 l 746 1369 q 757 1356 756 1361 q 758 1346 758 1351 q 740 1313 758 1332 q 706 1293 721 1293 z "},"Ở":{"ha":1285,"x_min":113,"x_max":1172,"o":"m 644 -26 q 424 21 522 -26 q 257 153 326 68 q 150 353 188 238 q 113 606 113 468 q 129 779 113 697 q 178 932 146 861 q 256 1058 210 1003 q 362 1154 303 1114 q 492 1215 421 1194 q 644 1236 564 1236 q 721 1231 683 1236 q 793 1215 758 1226 q 931 1237 882 1219 q 998 1285 979 1254 q 1015 1356 1017 1315 q 1000 1449 1013 1397 q 1008 1488 994 1472 q 1045 1507 1022 1503 q 1090 1503 1068 1511 q 1118 1471 1111 1494 q 1135 1369 1133 1419 q 1119 1275 1138 1319 q 1056 1198 1100 1231 q 935 1147 1013 1165 q 1110 926 1047 1067 q 1172 606 1172 785 q 1156 432 1172 514 q 1107 279 1139 350 q 1029 152 1075 208 q 924 56 983 96 q 795 -5 865 17 q 644 -26 725 -26 m 644 92 q 754 107 703 92 q 850 152 806 122 q 930 226 894 182 q 990 327 965 269 q 1028 454 1015 385 q 1042 606 1042 524 q 1013 823 1042 728 q 930 984 983 918 q 803 1084 876 1050 q 644 1118 731 1118 q 534 1103 586 1118 q 437 1058 482 1088 q 356 984 392 1028 q 295 883 321 940 q 256 757 269 826 q 243 606 243 688 q 273 388 243 483 q 356 226 303 292 q 483 126 410 160 q 644 92 557 92 m 657 1622 q 767 1590 725 1622 q 808 1501 808 1557 q 792 1440 808 1467 q 738 1383 776 1413 q 713 1358 719 1369 q 710 1333 707 1347 l 711 1324 q 703 1297 715 1308 q 674 1282 692 1286 q 640 1282 656 1278 q 617 1300 624 1286 l 601 1338 q 601 1397 590 1369 q 643 1446 613 1424 q 670 1471 663 1460 q 678 1493 678 1482 q 666 1513 678 1504 q 635 1521 654 1521 q 595 1515 617 1521 q 561 1500 574 1510 q 503 1522 528 1479 q 511 1576 486 1554 q 579 1610 540 1597 q 657 1622 618 1622 z "},"Ỡ":{"ha":1285,"x_min":113,"x_max":1172,"o":"m 644 -26 q 424 21 522 -26 q 257 153 326 68 q 150 353 188 238 q 113 606 113 468 q 129 779 113 697 q 178 932 146 861 q 256 1058 210 1003 q 362 1154 303 1114 q 492 1215 421 1194 q 644 1236 564 1236 q 721 1231 683 1236 q 793 1215 758 1226 q 931 1237 882 1219 q 998 1285 979 1254 q 1015 1356 1017 1315 q 1000 1449 1013 1397 q 1008 1488 994 1472 q 1045 1507 1022 1503 q 1090 1503 1068 1511 q 1118 1471 1111 1494 q 1135 1369 1133 1419 q 1119 1275 1138 1319 q 1056 1198 1100 1231 q 935 1147 1013 1165 q 1110 926 1047 1067 q 1172 606 1172 785 q 1156 432 1172 514 q 1107 279 1139 350 q 1029 152 1075 208 q 924 56 983 96 q 795 -5 865 17 q 644 -26 725 -26 m 644 92 q 754 107 703 92 q 850 152 806 122 q 930 226 894 182 q 990 327 965 269 q 1028 454 1015 385 q 1042 606 1042 524 q 1013 823 1042 728 q 930 984 983 918 q 803 1084 876 1050 q 644 1118 731 1118 q 534 1103 586 1118 q 437 1058 482 1088 q 356 984 392 1028 q 295 883 321 940 q 256 757 269 826 q 243 606 243 688 q 273 388 243 483 q 356 226 303 292 q 483 126 410 160 q 644 92 557 92 m 435 1331 q 388 1367 388 1331 q 422 1502 390 1461 q 515 1543 454 1543 q 592 1528 557 1543 q 657 1495 626 1514 q 713 1462 688 1476 q 760 1447 738 1447 q 785 1465 776 1447 q 797 1515 794 1483 q 844 1546 797 1546 q 883 1536 871 1546 q 894 1507 894 1526 q 863 1378 893 1425 q 764 1332 832 1332 q 685 1347 721 1332 q 619 1379 649 1361 q 566 1412 590 1397 q 521 1426 542 1426 q 497 1413 506 1426 q 485 1367 488 1400 q 471 1340 483 1349 q 435 1331 458 1331 z "},"Ŕ":{"ha":964,"x_min":174,"x_max":942,"o":"m 235 -19 q 189 -10 204 -19 q 174 19 174 0 l 174 1178 q 190 1206 174 1197 q 236 1215 206 1215 l 464 1215 q 703 1187 610 1215 q 841 1094 796 1158 q 886 921 886 1029 q 872 823 886 869 q 831 736 858 776 q 765 663 804 696 q 676 606 726 631 q 563 567 625 582 q 429 546 501 551 q 578 383 500 464 q 742 226 657 303 q 918 75 826 149 q 938 42 933 64 q 915 -6 942 21 q 878 -23 897 -22 q 838 -7 858 -24 q 642 164 738 75 q 460 344 547 253 q 296 526 374 436 l 296 19 q 281 -10 296 0 q 235 -19 265 -19 m 296 643 q 419 649 363 643 q 523 666 475 654 q 608 694 571 678 q 675 734 646 711 q 723 785 704 757 q 751 848 742 814 q 761 921 761 882 q 731 1029 761 989 q 640 1087 701 1069 q 483 1104 578 1104 l 296 1104 l 296 643 m 421 1293 q 388 1313 407 1293 q 369 1346 369 1332 q 371 1356 369 1351 q 381 1369 372 1361 l 568 1568 q 581 1579 575 1575 q 594 1583 588 1583 q 626 1571 608 1583 q 658 1542 644 1558 q 671 1511 671 1525 q 667 1494 671 1501 q 650 1476 664 1488 l 447 1307 q 433 1297 439 1301 q 421 1293 426 1293 z "},"Ř":{"ha":964,"x_min":174,"x_max":942,"o":"m 235 -19 q 189 -10 204 -19 q 174 19 174 0 l 174 1178 q 190 1206 174 1197 q 236 1215 206 1215 l 464 1215 q 703 1187 610 1215 q 841 1094 796 1158 q 886 921 886 1029 q 872 823 886 869 q 831 736 858 776 q 765 663 804 696 q 676 606 726 631 q 563 567 625 582 q 429 546 501 551 q 578 383 500 464 q 742 226 657 303 q 918 75 826 149 q 938 42 933 64 q 915 -6 942 21 q 878 -23 897 -22 q 838 -7 858 -24 q 642 164 738 75 q 460 344 547 253 q 296 526 374 436 l 296 19 q 281 -10 296 0 q 235 -19 265 -19 m 296 643 q 419 649 363 643 q 523 666 475 654 q 608 694 571 678 q 675 734 646 711 q 723 785 704 757 q 751 848 742 814 q 761 921 761 882 q 731 1029 761 989 q 640 1087 701 1069 q 483 1104 578 1104 l 296 1104 l 296 643 m 692 1583 q 723 1567 706 1583 q 740 1536 740 1551 q 740 1528 740 1533 q 732 1514 739 1522 l 544 1321 q 523 1303 535 1313 q 483 1293 511 1293 q 445 1303 457 1293 q 425 1321 433 1313 l 235 1514 q 227 1528 228 1522 q 226 1536 226 1533 q 244 1567 226 1551 q 275 1583 263 1583 q 292 1578 285 1583 q 310 1567 300 1574 l 483 1432 l 657 1567 q 675 1578 668 1574 q 692 1583 682 1583 z "},"Ŗ":{"ha":964,"x_min":174,"x_max":942,"o":"m 235 -19 q 189 -10 204 -19 q 174 19 174 0 l 174 1178 q 190 1206 174 1197 q 236 1215 206 1215 l 464 1215 q 703 1187 610 1215 q 841 1094 796 1158 q 886 921 886 1029 q 872 823 886 869 q 831 736 858 776 q 765 663 804 696 q 676 606 726 631 q 563 567 625 582 q 429 546 501 551 q 578 383 500 464 q 742 226 657 303 q 918 75 826 149 q 938 42 933 64 q 915 -6 942 21 q 878 -23 897 -22 q 838 -7 858 -24 q 642 164 738 75 q 460 344 547 253 q 296 526 374 436 l 296 19 q 281 -10 296 0 q 235 -19 265 -19 m 296 643 q 419 649 363 643 q 523 666 475 654 q 608 694 571 678 q 675 734 646 711 q 723 785 704 757 q 751 848 742 814 q 761 921 761 882 q 731 1029 761 989 q 640 1087 701 1069 q 483 1104 578 1104 l 296 1104 l 296 643 m 457 -406 q 436 -387 440 -399 q 439 -354 432 -375 q 464 -281 456 -312 q 474 -219 472 -250 q 476 -146 476 -187 q 490 -112 476 -122 q 529 -103 503 -103 q 578 -118 561 -103 q 596 -160 596 -133 q 586 -233 596 -194 q 560 -311 576 -272 q 521 -383 543 -350 q 493 -409 507 -406 q 457 -406 479 -412 z "},"Ś":{"ha":956,"x_min":93,"x_max":861,"o":"m 471 -26 q 368 -15 419 -26 q 267 19 317 -3 q 176 74 218 42 q 104 146 135 106 q 94 174 94 161 q 114 206 93 188 q 149 228 136 226 q 188 207 161 231 q 256 155 217 182 q 349 110 296 128 q 471 92 403 92 q 585 105 536 92 q 667 146 633 118 q 717 216 700 174 q 733 317 733 258 q 716 400 733 365 q 666 461 699 435 q 588 509 633 488 q 486 551 543 531 q 388 593 438 569 q 292 647 338 617 q 210 719 246 678 q 154 815 175 761 q 133 939 133 869 q 160 1065 133 1010 q 235 1158 186 1119 q 349 1216 283 1196 q 494 1236 415 1236 q 619 1219 564 1236 q 722 1169 675 1201 q 814 1094 769 1138 q 826 1066 828 1081 q 808 1036 824 1051 q 775 1010 792 1018 q 744 1015 758 1003 q 675 1071 710 1047 q 597 1106 640 1094 q 494 1118 553 1118 q 396 1107 439 1118 q 323 1074 353 1096 q 278 1017 293 1051 q 263 939 263 983 q 281 842 263 882 q 333 772 299 801 q 413 720 367 743 q 515 678 460 697 q 635 629 574 657 q 747 560 696 601 q 830 460 799 519 q 861 317 861 401 q 834 168 861 232 q 756 61 807 104 q 632 -4 704 18 q 471 -26 560 -26 m 438 1293 q 405 1313 424 1293 q 386 1346 386 1332 q 388 1356 386 1351 q 397 1369 389 1361 l 585 1568 q 598 1579 592 1575 q 611 1583 604 1583 q 643 1571 625 1583 q 674 1542 661 1558 q 688 1511 688 1525 q 684 1494 688 1501 q 667 1476 681 1488 l 464 1307 q 449 1297 456 1301 q 438 1293 443 1293 z "},"Š":{"ha":956,"x_min":93,"x_max":861,"o":"m 471 -26 q 368 -15 419 -26 q 267 19 317 -3 q 176 74 218 42 q 104 146 135 106 q 94 174 94 161 q 114 206 93 188 q 149 228 136 226 q 188 207 161 231 q 256 155 217 182 q 349 110 296 128 q 471 92 403 92 q 585 105 536 92 q 667 146 633 118 q 717 216 700 174 q 733 317 733 258 q 716 400 733 365 q 666 461 699 435 q 588 509 633 488 q 486 551 543 531 q 388 593 438 569 q 292 647 338 617 q 210 719 246 678 q 154 815 175 761 q 133 939 133 869 q 160 1065 133 1010 q 235 1158 186 1119 q 349 1216 283 1196 q 494 1236 415 1236 q 619 1219 564 1236 q 722 1169 675 1201 q 814 1094 769 1138 q 826 1066 828 1081 q 808 1036 824 1051 q 775 1010 792 1018 q 744 1015 758 1003 q 675 1071 710 1047 q 597 1106 640 1094 q 494 1118 553 1118 q 396 1107 439 1118 q 323 1074 353 1096 q 278 1017 293 1051 q 263 939 263 983 q 281 842 263 882 q 333 772 299 801 q 413 720 367 743 q 515 678 460 697 q 635 629 574 657 q 747 560 696 601 q 830 460 799 519 q 861 317 861 401 q 834 168 861 232 q 756 61 807 104 q 632 -4 704 18 q 471 -26 560 -26 m 708 1583 q 740 1567 722 1583 q 757 1536 757 1551 q 756 1528 757 1533 q 749 1514 756 1522 l 561 1321 q 540 1303 551 1313 q 500 1293 528 1293 q 462 1303 474 1293 q 442 1321 450 1313 l 251 1514 q 244 1528 244 1522 q 243 1536 243 1533 q 261 1567 243 1551 q 292 1583 279 1583 q 309 1578 301 1583 q 326 1567 317 1574 l 500 1432 l 674 1567 q 692 1578 685 1574 q 708 1583 699 1583 z "},"Ş":{"ha":956,"x_min":93,"x_max":861,"o":"m 471 -26 q 368 -15 419 -26 q 267 19 317 -3 q 176 74 218 42 q 104 146 135 106 q 94 174 94 161 q 114 206 93 188 q 149 228 136 226 q 188 207 161 231 q 256 155 217 182 q 349 110 296 128 q 471 92 403 92 q 585 105 536 92 q 667 146 633 118 q 717 216 700 174 q 733 317 733 258 q 716 400 733 365 q 666 461 699 435 q 588 509 633 488 q 486 551 543 531 q 388 593 438 569 q 292 647 338 617 q 210 719 246 678 q 154 815 175 761 q 133 939 133 869 q 160 1065 133 1010 q 235 1158 186 1119 q 349 1216 283 1196 q 494 1236 415 1236 q 619 1219 564 1236 q 722 1169 675 1201 q 814 1094 769 1138 q 826 1066 828 1081 q 808 1036 824 1051 q 775 1010 792 1018 q 744 1015 758 1003 q 675 1071 710 1047 q 597 1106 640 1094 q 494 1118 553 1118 q 396 1107 439 1118 q 323 1074 353 1096 q 278 1017 293 1051 q 263 939 263 983 q 281 842 263 882 q 333 772 299 801 q 413 720 367 743 q 515 678 460 697 q 635 629 574 657 q 747 560 696 601 q 830 460 799 519 q 861 317 861 401 q 834 168 861 232 q 756 61 807 104 q 632 -4 704 18 q 471 -26 560 -26 m 456 -374 q 389 -366 433 -374 q 307 -335 344 -358 q 290 -309 292 -325 q 294 -278 288 -293 q 317 -253 304 -258 q 347 -256 329 -247 q 389 -269 363 -261 q 446 -278 415 -278 q 506 -267 489 -278 q 524 -231 524 -257 q 502 -194 524 -210 q 419 -187 481 -179 q 396 -186 404 -189 q 379 -174 388 -183 q 372 -154 372 -164 q 375 -135 371 -144 l 444 18 l 536 18 l 460 -146 l 418 -124 q 529 -108 481 -100 q 606 -149 578 -117 q 633 -231 633 -181 q 613 -307 633 -275 q 554 -356 593 -339 q 456 -374 515 -374 z "},"Ŝ":{"ha":956,"x_min":93,"x_max":861,"o":"m 471 -26 q 368 -15 419 -26 q 267 19 317 -3 q 176 74 218 42 q 104 146 135 106 q 94 174 94 161 q 114 206 93 188 q 149 228 136 226 q 188 207 161 231 q 256 155 217 182 q 349 110 296 128 q 471 92 403 92 q 585 105 536 92 q 667 146 633 118 q 717 216 700 174 q 733 317 733 258 q 716 400 733 365 q 666 461 699 435 q 588 509 633 488 q 486 551 543 531 q 388 593 438 569 q 292 647 338 617 q 210 719 246 678 q 154 815 175 761 q 133 939 133 869 q 160 1065 133 1010 q 235 1158 186 1119 q 349 1216 283 1196 q 494 1236 415 1236 q 619 1219 564 1236 q 722 1169 675 1201 q 814 1094 769 1138 q 826 1066 828 1081 q 808 1036 824 1051 q 775 1010 792 1018 q 744 1015 758 1003 q 675 1071 710 1047 q 597 1106 640 1094 q 494 1118 553 1118 q 396 1107 439 1118 q 323 1074 353 1096 q 278 1017 293 1051 q 263 939 263 983 q 281 842 263 882 q 333 772 299 801 q 413 720 367 743 q 515 678 460 697 q 635 629 574 657 q 747 560 696 601 q 830 460 799 519 q 861 317 861 401 q 834 168 861 232 q 756 61 807 104 q 632 -4 704 18 q 471 -26 560 -26 m 292 1293 q 261 1310 279 1293 q 243 1340 243 1326 q 244 1350 243 1344 q 251 1363 244 1356 l 439 1556 q 461 1574 449 1565 q 500 1583 474 1583 q 538 1574 526 1583 q 560 1556 550 1565 l 749 1363 q 756 1350 756 1356 q 757 1340 757 1344 q 740 1310 757 1326 q 708 1293 722 1293 q 692 1298 699 1293 q 674 1311 685 1303 l 500 1444 l 326 1311 q 309 1298 317 1303 q 292 1293 301 1293 z "},"Ș":{"ha":956,"x_min":93,"x_max":861,"o":"m 471 -26 q 368 -15 419 -26 q 267 19 317 -3 q 176 74 218 42 q 104 146 135 106 q 94 174 94 161 q 114 206 93 188 q 149 228 136 226 q 188 207 161 231 q 256 155 217 182 q 349 110 296 128 q 471 92 403 92 q 585 105 536 92 q 667 146 633 118 q 717 216 700 174 q 733 317 733 258 q 716 400 733 365 q 666 461 699 435 q 588 509 633 488 q 486 551 543 531 q 388 593 438 569 q 292 647 338 617 q 210 719 246 678 q 154 815 175 761 q 133 939 133 869 q 160 1065 133 1010 q 235 1158 186 1119 q 349 1216 283 1196 q 494 1236 415 1236 q 619 1219 564 1236 q 722 1169 675 1201 q 814 1094 769 1138 q 826 1066 828 1081 q 808 1036 824 1051 q 775 1010 792 1018 q 744 1015 758 1003 q 675 1071 710 1047 q 597 1106 640 1094 q 494 1118 553 1118 q 396 1107 439 1118 q 323 1074 353 1096 q 278 1017 293 1051 q 263 939 263 983 q 281 842 263 882 q 333 772 299 801 q 413 720 367 743 q 515 678 460 697 q 635 629 574 657 q 747 560 696 601 q 830 460 799 519 q 861 317 861 401 q 834 168 861 232 q 756 61 807 104 q 632 -4 704 18 q 471 -26 560 -26 m 399 -406 q 378 -387 382 -399 q 381 -354 374 -375 q 406 -281 397 -312 q 416 -219 414 -250 q 418 -146 418 -187 q 431 -112 418 -122 q 471 -103 444 -103 q 520 -118 503 -103 q 538 -160 538 -133 q 528 -233 538 -194 q 501 -311 518 -272 q 463 -383 485 -350 q 435 -409 449 -406 q 399 -406 421 -412 z "},"Ŧ":{"ha":958,"x_min":21,"x_max":938,"o":"m 479 -21 q 418 18 418 -21 l 418 1104 l 60 1104 q 30 1117 39 1104 q 21 1160 21 1129 q 30 1203 21 1192 q 60 1215 39 1215 l 900 1215 q 929 1203 921 1215 q 938 1160 938 1192 q 929 1117 938 1129 q 900 1104 921 1104 l 540 1104 l 540 18 q 525 -11 540 -1 q 479 -21 510 -21 m 226 557 q 194 572 201 557 q 188 606 188 588 q 194 642 188 625 q 226 658 201 658 l 733 658 q 764 642 757 658 q 771 606 771 625 q 764 572 771 588 q 733 557 757 557 l 226 557 z "},"Ť":{"ha":958,"x_min":21,"x_max":938,"o":"m 479 -21 q 418 18 418 -21 l 418 1104 l 60 1104 q 30 1117 39 1104 q 21 1160 21 1129 q 30 1203 21 1192 q 60 1215 39 1215 l 900 1215 q 929 1203 921 1215 q 938 1160 938 1192 q 929 1117 938 1129 q 900 1104 921 1104 l 540 1104 l 540 18 q 525 -11 540 -1 q 479 -21 510 -21 m 688 1583 q 719 1567 701 1583 q 736 1536 736 1551 q 735 1528 736 1533 q 728 1514 735 1522 l 540 1321 q 519 1303 531 1313 q 479 1293 507 1293 q 441 1303 453 1293 q 421 1321 429 1313 l 231 1514 q 223 1528 224 1522 q 222 1536 222 1533 q 240 1567 222 1551 q 271 1583 258 1583 q 288 1578 281 1583 q 306 1567 296 1574 l 479 1432 l 653 1567 q 671 1578 664 1574 q 688 1583 678 1583 z "},"Ţ":{"ha":958,"x_min":21,"x_max":938,"o":"m 479 -21 q 418 18 418 -21 l 418 1104 l 60 1104 q 30 1117 39 1104 q 21 1160 21 1129 q 30 1203 21 1192 q 60 1215 39 1215 l 900 1215 q 929 1203 921 1215 q 938 1160 938 1192 q 929 1117 938 1129 q 900 1104 921 1104 l 540 1104 l 540 18 q 525 -11 540 -1 q 479 -21 510 -21 m 458 -374 q 392 -366 436 -374 q 310 -335 347 -358 q 292 -309 294 -325 q 297 -278 290 -293 q 319 -253 307 -258 q 350 -256 332 -247 q 392 -269 365 -261 q 449 -278 418 -278 q 509 -267 492 -278 q 526 -231 526 -257 q 505 -194 526 -210 q 422 -187 483 -179 q 399 -186 407 -189 q 382 -174 390 -183 q 374 -154 375 -164 q 378 -135 374 -144 l 447 18 l 539 18 l 463 -146 l 421 -124 q 532 -108 483 -100 q 608 -149 581 -117 q 636 -231 636 -181 q 616 -307 636 -275 q 557 -356 596 -339 q 458 -374 518 -374 z "},"Ț":{"ha":958,"x_min":21,"x_max":938,"o":"m 479 -21 q 418 18 418 -21 l 418 1104 l 60 1104 q 30 1117 39 1104 q 21 1160 21 1129 q 30 1203 21 1192 q 60 1215 39 1215 l 900 1215 q 929 1203 921 1215 q 938 1160 938 1192 q 929 1117 938 1129 q 900 1104 921 1104 l 540 1104 l 540 18 q 525 -11 540 -1 q 479 -21 510 -21 m 401 -406 q 381 -387 385 -399 q 383 -354 376 -375 q 408 -281 400 -312 q 419 -219 417 -250 q 421 -146 421 -187 q 434 -112 421 -122 q 474 -103 447 -103 q 523 -118 506 -103 q 540 -160 540 -133 q 531 -233 540 -194 q 504 -311 521 -272 q 465 -383 488 -350 q 438 -409 451 -406 q 401 -406 424 -412 z "},"Ú":{"ha":1199,"x_min":174,"x_max":1025,"o":"m 603 -26 q 424 1 503 -26 q 289 82 344 29 q 203 210 233 135 q 174 379 174 285 l 174 1199 q 189 1227 174 1218 q 235 1236 204 1236 q 281 1227 265 1236 q 296 1199 296 1218 l 296 379 q 333 226 296 290 q 438 126 369 161 q 603 92 507 92 q 764 126 697 92 q 867 226 831 161 q 903 379 903 290 l 903 1199 q 918 1227 903 1218 q 964 1236 933 1236 q 1025 1199 1025 1236 l 1025 379 q 974 162 1025 253 q 829 22 924 71 q 603 -26 735 -26 m 536 1293 q 503 1313 522 1293 q 485 1346 485 1332 q 486 1356 485 1351 q 496 1369 488 1361 l 683 1568 q 697 1579 690 1575 q 710 1583 703 1583 q 742 1571 724 1583 q 773 1542 760 1558 q 786 1511 786 1525 q 783 1494 786 1501 q 765 1476 779 1488 l 563 1307 q 548 1297 554 1301 q 536 1293 542 1293 z "},"Ŭ":{"ha":1199,"x_min":174,"x_max":1025,"o":"m 603 -26 q 424 1 503 -26 q 289 82 344 29 q 203 210 233 135 q 174 379 174 285 l 174 1199 q 189 1227 174 1218 q 235 1236 204 1236 q 281 1227 265 1236 q 296 1199 296 1218 l 296 379 q 333 226 296 290 q 438 126 369 161 q 603 92 507 92 q 764 126 697 92 q 867 226 831 161 q 903 379 903 290 l 903 1199 q 918 1227 903 1218 q 964 1236 933 1236 q 1025 1199 1025 1236 l 1025 379 q 974 162 1025 253 q 829 22 924 71 q 603 -26 735 -26 m 599 1293 q 426 1355 493 1293 q 350 1542 360 1417 q 363 1570 349 1558 q 403 1582 376 1582 q 433 1572 425 1582 q 447 1542 442 1561 q 501 1448 465 1479 q 599 1417 538 1417 q 697 1448 660 1417 q 750 1542 733 1479 q 763 1572 756 1561 q 793 1582 771 1582 q 834 1570 819 1582 q 847 1542 849 1558 q 808 1407 842 1463 q 719 1322 774 1351 q 599 1293 665 1293 z "},"Ǔ":{"ha":1199,"x_min":174,"x_max":1025,"o":"m 603 -26 q 424 1 503 -26 q 289 82 344 29 q 203 210 233 135 q 174 379 174 285 l 174 1199 q 189 1227 174 1218 q 235 1236 204 1236 q 281 1227 265 1236 q 296 1199 296 1218 l 296 379 q 333 226 296 290 q 438 126 369 161 q 603 92 507 92 q 764 126 697 92 q 867 226 831 161 q 903 379 903 290 l 903 1199 q 918 1227 903 1218 q 964 1236 933 1236 q 1025 1199 1025 1236 l 1025 379 q 974 162 1025 253 q 829 22 924 71 q 603 -26 735 -26 m 807 1583 q 838 1567 821 1583 q 856 1536 856 1551 q 855 1528 856 1533 q 847 1514 854 1522 l 660 1321 q 638 1303 650 1313 q 599 1293 626 1293 q 560 1303 572 1293 q 540 1321 549 1313 l 350 1514 q 342 1528 343 1522 q 342 1536 342 1533 q 360 1567 342 1551 q 390 1583 378 1583 q 408 1578 400 1583 q 425 1567 415 1574 l 599 1432 l 772 1567 q 790 1578 783 1574 q 807 1583 797 1583 z "},"Û":{"ha":1199,"x_min":174,"x_max":1025,"o":"m 603 -26 q 424 1 503 -26 q 289 82 344 29 q 203 210 233 135 q 174 379 174 285 l 174 1199 q 189 1227 174 1218 q 235 1236 204 1236 q 281 1227 265 1236 q 296 1199 296 1218 l 296 379 q 333 226 296 290 q 438 126 369 161 q 603 92 507 92 q 764 126 697 92 q 867 226 831 161 q 903 379 903 290 l 903 1199 q 918 1227 903 1218 q 964 1236 933 1236 q 1025 1199 1025 1236 l 1025 379 q 974 162 1025 253 q 829 22 924 71 q 603 -26 735 -26 m 390 1293 q 360 1310 378 1293 q 342 1340 342 1326 q 342 1350 342 1344 q 350 1363 343 1356 l 538 1556 q 560 1574 547 1565 q 599 1583 572 1583 q 637 1574 625 1583 q 658 1556 649 1565 l 847 1363 q 855 1350 854 1356 q 856 1340 856 1344 q 838 1310 856 1326 q 807 1293 821 1293 q 790 1298 797 1293 q 772 1311 783 1303 l 599 1444 l 425 1311 q 408 1298 415 1303 q 390 1293 400 1293 z "},"Ü":{"ha":1199,"x_min":174,"x_max":1025,"o":"m 603 -26 q 424 1 503 -26 q 289 82 344 29 q 203 210 233 135 q 174 379 174 285 l 174 1199 q 189 1227 174 1218 q 235 1236 204 1236 q 281 1227 265 1236 q 296 1199 296 1218 l 296 379 q 333 226 296 290 q 438 126 369 161 q 603 92 507 92 q 764 126 697 92 q 867 226 831 161 q 903 379 903 290 l 903 1199 q 918 1227 903 1218 q 964 1236 933 1236 q 1025 1199 1025 1236 l 1025 379 q 974 162 1025 253 q 829 22 924 71 q 603 -26 735 -26 m 433 1338 q 375 1359 394 1338 q 356 1424 356 1381 q 375 1490 356 1468 q 433 1513 394 1513 q 491 1490 472 1513 q 510 1424 510 1468 q 492 1359 513 1381 q 433 1338 472 1338 m 765 1338 q 707 1359 726 1338 q 688 1424 688 1381 q 707 1490 688 1468 q 765 1513 726 1513 q 822 1490 803 1513 q 842 1424 842 1468 q 823 1359 843 1381 q 765 1338 803 1338 z "},"Ù":{"ha":1199,"x_min":174,"x_max":1025,"o":"m 603 -26 q 424 1 503 -26 q 289 82 344 29 q 203 210 233 135 q 174 379 174 285 l 174 1199 q 189 1227 174 1218 q 235 1236 204 1236 q 281 1227 265 1236 q 296 1199 296 1218 l 296 379 q 333 226 296 290 q 438 126 369 161 q 603 92 507 92 q 764 126 697 92 q 867 226 831 161 q 903 379 903 290 l 903 1199 q 918 1227 903 1218 q 964 1236 933 1236 q 1025 1199 1025 1236 l 1025 379 q 974 162 1025 253 q 829 22 924 71 q 603 -26 735 -26 m 661 1293 q 649 1297 656 1293 q 635 1307 643 1301 l 432 1476 q 415 1494 419 1488 q 411 1511 411 1501 q 424 1542 411 1525 q 456 1571 438 1558 q 488 1583 474 1583 q 502 1579 496 1583 q 514 1568 508 1575 l 701 1369 q 713 1356 711 1361 q 714 1346 714 1351 q 695 1313 714 1332 q 661 1293 676 1293 z "},"Ű":{"ha":1199,"x_min":174,"x_max":1025,"o":"m 603 -26 q 424 1 503 -26 q 289 82 344 29 q 203 210 233 135 q 174 379 174 285 l 174 1199 q 189 1227 174 1218 q 235 1236 204 1236 q 281 1227 265 1236 q 296 1199 296 1218 l 296 379 q 333 226 296 290 q 438 126 369 161 q 603 92 507 92 q 764 126 697 92 q 867 226 831 161 q 903 379 903 290 l 903 1199 q 918 1227 903 1218 q 964 1236 933 1236 q 1025 1199 1025 1236 l 1025 379 q 974 162 1025 253 q 829 22 924 71 q 603 -26 735 -26 m 460 1293 q 427 1313 446 1293 q 408 1346 408 1332 q 410 1356 408 1351 q 419 1369 411 1360 l 592 1568 q 606 1579 599 1575 q 621 1583 614 1583 q 652 1572 636 1583 q 679 1544 668 1560 q 690 1514 690 1528 q 687 1497 690 1504 q 669 1478 683 1489 l 486 1307 q 472 1297 478 1301 q 460 1293 465 1293 m 718 1293 q 685 1313 704 1293 q 667 1346 667 1332 q 668 1356 667 1351 q 679 1369 669 1361 l 857 1568 q 872 1579 864 1575 q 888 1583 879 1583 q 919 1572 903 1583 q 946 1544 935 1560 q 957 1514 957 1528 q 953 1497 957 1504 q 936 1478 949 1489 l 744 1307 q 731 1297 738 1301 q 718 1293 724 1293 z "},"Ū":{"ha":1199,"x_min":174,"x_max":1025,"o":"m 603 -26 q 424 1 503 -26 q 289 82 344 29 q 203 210 233 135 q 174 379 174 285 l 174 1199 q 189 1227 174 1218 q 235 1236 204 1236 q 281 1227 265 1236 q 296 1199 296 1218 l 296 379 q 333 226 296 290 q 438 126 369 161 q 603 92 507 92 q 764 126 697 92 q 867 226 831 161 q 903 379 903 290 l 903 1199 q 918 1227 903 1218 q 964 1236 933 1236 q 1025 1199 1025 1236 l 1025 379 q 974 162 1025 253 q 829 22 924 71 q 603 -26 735 -26 m 413 1379 q 382 1395 389 1379 q 375 1436 375 1411 q 382 1480 375 1463 q 413 1497 389 1497 l 785 1497 q 816 1480 810 1497 q 822 1436 822 1463 q 816 1395 822 1411 q 785 1379 810 1379 l 413 1379 z "},"Ų":{"ha":1199,"x_min":174,"x_max":1025,"o":"m 603 -26 q 424 1 503 -26 q 289 82 344 29 q 203 210 233 135 q 174 379 174 285 l 174 1199 q 189 1227 174 1218 q 235 1236 204 1236 q 281 1227 265 1236 q 296 1199 296 1218 l 296 379 q 333 226 296 290 q 438 126 369 161 q 603 92 507 92 q 764 126 697 92 q 867 226 831 161 q 903 379 903 290 l 903 1199 q 918 1227 903 1218 q 964 1236 933 1236 q 1025 1199 1025 1236 l 1025 379 q 974 162 1025 253 q 829 22 924 71 q 603 -26 735 -26 m 688 -339 q 599 -308 633 -339 q 565 -225 565 -278 q 577 -161 565 -192 q 613 -98 589 -131 q 671 -31 636 -65 q 751 44 706 4 l 838 44 l 838 33 q 780 -25 808 6 q 728 -84 751 -56 q 692 -139 706 -112 q 679 -189 679 -165 q 689 -222 679 -210 q 718 -235 699 -235 q 760 -218 742 -235 q 803 -178 779 -201 q 824 -167 811 -171 q 854 -176 838 -164 q 878 -204 871 -186 q 876 -236 885 -222 q 824 -293 857 -269 q 754 -328 790 -317 q 688 -339 718 -339 z "},"Ů":{"ha":1199,"x_min":174,"x_max":1025,"o":"m 603 -26 q 424 1 503 -26 q 289 82 344 29 q 203 210 233 135 q 174 379 174 285 l 174 1199 q 189 1227 174 1218 q 235 1236 204 1236 q 281 1227 265 1236 q 296 1199 296 1218 l 296 379 q 333 226 296 290 q 438 126 369 161 q 603 92 507 92 q 764 126 697 92 q 867 226 831 161 q 903 379 903 290 l 903 1199 q 918 1227 903 1218 q 964 1236 933 1236 q 1025 1199 1025 1236 l 1025 379 q 974 162 1025 253 q 829 22 924 71 q 603 -26 735 -26 m 599 1282 q 501 1303 544 1282 q 433 1364 458 1325 q 408 1451 408 1403 q 433 1538 408 1500 q 501 1598 458 1576 q 599 1619 544 1619 q 698 1598 654 1619 q 767 1538 742 1576 q 792 1451 792 1500 q 767 1364 792 1403 q 698 1303 742 1325 q 599 1282 654 1282 m 599 1365 q 667 1390 640 1365 q 693 1451 693 1415 q 667 1512 693 1488 q 599 1536 640 1536 q 533 1512 558 1536 q 507 1451 507 1488 q 533 1390 507 1415 q 599 1365 558 1365 z "},"Ũ":{"ha":1199,"x_min":174,"x_max":1025,"o":"m 603 -26 q 424 1 503 -26 q 289 82 344 29 q 203 210 233 135 q 174 379 174 285 l 174 1199 q 189 1227 174 1218 q 235 1236 204 1236 q 281 1227 265 1236 q 296 1199 296 1218 l 296 379 q 333 226 296 290 q 438 126 369 161 q 603 92 507 92 q 764 126 697 92 q 867 226 831 161 q 903 379 903 290 l 903 1199 q 918 1227 903 1218 q 964 1236 933 1236 q 1025 1199 1025 1236 l 1025 379 q 974 162 1025 253 q 829 22 924 71 q 603 -26 735 -26 m 390 1331 q 343 1367 343 1331 q 378 1502 346 1461 q 471 1543 410 1543 q 547 1528 513 1543 q 613 1495 582 1514 q 668 1462 643 1476 q 715 1447 693 1447 q 741 1465 732 1447 q 753 1515 750 1483 q 800 1546 753 1546 q 838 1536 826 1546 q 850 1507 850 1526 q 818 1378 849 1425 q 719 1332 788 1332 q 640 1347 676 1332 q 575 1379 604 1361 q 522 1412 546 1397 q 476 1426 497 1426 q 452 1413 461 1426 q 440 1367 443 1400 q 426 1340 439 1349 q 390 1331 414 1331 z "},"Ǘ":{"ha":1199,"x_min":174,"x_max":1025,"o":"m 603 -26 q 424 1 503 -26 q 289 82 344 29 q 203 210 233 135 q 174 379 174 285 l 174 1199 q 189 1227 174 1218 q 235 1236 204 1236 q 281 1227 265 1236 q 296 1199 296 1218 l 296 379 q 333 226 296 290 q 438 126 369 161 q 603 92 507 92 q 764 126 697 92 q 867 226 831 161 q 903 379 903 290 l 903 1199 q 918 1227 903 1218 q 964 1236 933 1236 q 1025 1199 1025 1236 l 1025 379 q 974 162 1025 253 q 829 22 924 71 q 603 -26 735 -26 m 433 1338 q 375 1359 394 1338 q 356 1424 356 1381 q 375 1490 356 1468 q 433 1513 394 1513 q 491 1490 472 1513 q 510 1424 510 1468 q 492 1359 513 1381 q 433 1338 472 1338 m 765 1338 q 707 1359 726 1338 q 688 1424 688 1381 q 707 1490 688 1468 q 765 1513 726 1513 q 822 1490 803 1513 q 842 1424 842 1468 q 823 1359 843 1381 q 765 1338 803 1338 m 536 1550 q 503 1569 522 1550 q 485 1603 485 1589 q 486 1613 485 1608 q 496 1626 488 1618 l 683 1825 q 697 1836 690 1832 q 710 1840 703 1840 q 742 1828 724 1840 q 773 1799 760 1815 q 786 1768 786 1782 q 783 1751 786 1758 q 765 1733 779 1744 l 563 1564 q 548 1554 554 1558 q 536 1550 542 1550 z "},"Ǚ":{"ha":1199,"x_min":174,"x_max":1025,"o":"m 603 -26 q 424 1 503 -26 q 289 82 344 29 q 203 210 233 135 q 174 379 174 285 l 174 1199 q 189 1227 174 1218 q 235 1236 204 1236 q 281 1227 265 1236 q 296 1199 296 1218 l 296 379 q 333 226 296 290 q 438 126 369 161 q 603 92 507 92 q 764 126 697 92 q 867 226 831 161 q 903 379 903 290 l 903 1199 q 918 1227 903 1218 q 964 1236 933 1236 q 1025 1199 1025 1236 l 1025 379 q 974 162 1025 253 q 829 22 924 71 q 603 -26 735 -26 m 433 1338 q 375 1359 394 1338 q 356 1424 356 1381 q 375 1490 356 1468 q 433 1513 394 1513 q 491 1490 472 1513 q 510 1424 510 1468 q 492 1359 513 1381 q 433 1338 472 1338 m 765 1338 q 707 1359 726 1338 q 688 1424 688 1381 q 707 1490 688 1468 q 765 1513 726 1513 q 822 1490 803 1513 q 842 1424 842 1468 q 823 1359 843 1381 q 765 1338 803 1338 m 807 1840 q 838 1824 821 1840 q 856 1793 856 1808 q 855 1785 856 1790 q 847 1771 854 1779 l 660 1578 q 638 1560 650 1569 q 599 1550 626 1550 q 560 1560 572 1550 q 540 1578 549 1569 l 350 1771 q 342 1785 343 1779 q 342 1793 342 1790 q 360 1824 342 1808 q 390 1840 378 1840 q 408 1835 400 1840 q 425 1824 415 1831 l 599 1689 l 772 1824 q 790 1835 783 1831 q 807 1840 797 1840 z "},"Ǜ":{"ha":1199,"x_min":174,"x_max":1025,"o":"m 603 -26 q 424 1 503 -26 q 289 82 344 29 q 203 210 233 135 q 174 379 174 285 l 174 1199 q 189 1227 174 1218 q 235 1236 204 1236 q 281 1227 265 1236 q 296 1199 296 1218 l 296 379 q 333 226 296 290 q 438 126 369 161 q 603 92 507 92 q 764 126 697 92 q 867 226 831 161 q 903 379 903 290 l 903 1199 q 918 1227 903 1218 q 964 1236 933 1236 q 1025 1199 1025 1236 l 1025 379 q 974 162 1025 253 q 829 22 924 71 q 603 -26 735 -26 m 433 1338 q 375 1359 394 1338 q 356 1424 356 1381 q 375 1490 356 1468 q 433 1513 394 1513 q 491 1490 472 1513 q 510 1424 510 1468 q 492 1359 513 1381 q 433 1338 472 1338 m 765 1338 q 707 1359 726 1338 q 688 1424 688 1381 q 707 1490 688 1468 q 765 1513 726 1513 q 822 1490 803 1513 q 842 1424 842 1468 q 823 1359 843 1381 q 765 1338 803 1338 m 661 1550 q 649 1554 656 1550 q 635 1564 643 1558 l 432 1733 q 415 1751 419 1744 q 411 1768 411 1758 q 424 1799 411 1782 q 456 1828 438 1815 q 488 1840 474 1840 q 502 1836 496 1840 q 514 1825 508 1832 l 701 1626 q 713 1613 711 1618 q 714 1603 714 1608 q 695 1569 714 1589 q 661 1550 676 1550 z "},"Ǖ":{"ha":1199,"x_min":174,"x_max":1025,"o":"m 603 -26 q 424 1 503 -26 q 289 82 344 29 q 203 210 233 135 q 174 379 174 285 l 174 1199 q 189 1227 174 1218 q 235 1236 204 1236 q 281 1227 265 1236 q 296 1199 296 1218 l 296 379 q 333 226 296 290 q 438 126 369 161 q 603 92 507 92 q 764 126 697 92 q 867 226 831 161 q 903 379 903 290 l 903 1199 q 918 1227 903 1218 q 964 1236 933 1236 q 1025 1199 1025 1236 l 1025 379 q 974 162 1025 253 q 829 22 924 71 q 603 -26 735 -26 m 433 1338 q 375 1359 394 1338 q 356 1424 356 1381 q 375 1490 356 1468 q 433 1513 394 1513 q 491 1490 472 1513 q 510 1424 510 1468 q 492 1359 513 1381 q 433 1338 472 1338 m 765 1338 q 707 1359 726 1338 q 688 1424 688 1381 q 707 1490 688 1468 q 765 1513 726 1513 q 822 1490 803 1513 q 842 1424 842 1468 q 823 1359 843 1381 q 765 1338 803 1338 m 413 1636 q 382 1652 389 1636 q 375 1693 375 1668 q 382 1737 375 1719 q 413 1754 389 1754 l 785 1754 q 816 1737 810 1754 q 822 1693 822 1719 q 816 1652 822 1668 q 785 1636 810 1636 l 413 1636 z "},"Ụ":{"ha":1199,"x_min":174,"x_max":1025,"o":"m 603 -26 q 424 1 503 -26 q 289 82 344 29 q 203 210 233 135 q 174 379 174 285 l 174 1199 q 189 1227 174 1218 q 235 1236 204 1236 q 281 1227 265 1236 q 296 1199 296 1218 l 296 379 q 333 226 296 290 q 438 126 369 161 q 603 92 507 92 q 764 126 697 92 q 867 226 831 161 q 903 379 903 290 l 903 1199 q 918 1227 903 1218 q 964 1236 933 1236 q 1025 1199 1025 1236 l 1025 379 q 974 162 1025 253 q 829 22 924 71 q 603 -26 735 -26 m 599 -326 q 540 -305 560 -326 q 521 -239 521 -283 q 540 -173 521 -194 q 599 -151 560 -151 q 656 -173 636 -151 q 675 -239 675 -194 q 656 -305 676 -283 q 599 -326 636 -326 z "},"Ủ":{"ha":1199,"x_min":174,"x_max":1025,"o":"m 603 -26 q 424 1 503 -26 q 289 82 344 29 q 203 210 233 135 q 174 379 174 285 l 174 1199 q 189 1227 174 1218 q 235 1236 204 1236 q 281 1227 265 1236 q 296 1199 296 1218 l 296 379 q 333 226 296 290 q 438 126 369 161 q 603 92 507 92 q 764 126 697 92 q 867 226 831 161 q 903 379 903 290 l 903 1199 q 918 1227 903 1218 q 964 1236 933 1236 q 1025 1199 1025 1236 l 1025 379 q 974 162 1025 253 q 829 22 924 71 q 603 -26 735 -26 m 613 1622 q 722 1590 681 1622 q 764 1501 764 1557 q 748 1440 764 1467 q 693 1383 732 1413 q 669 1358 675 1369 q 665 1333 663 1347 l 667 1324 q 659 1297 671 1308 q 629 1282 647 1286 q 595 1282 611 1278 q 572 1300 579 1286 l 557 1338 q 557 1397 546 1369 q 599 1446 568 1424 q 626 1471 618 1460 q 633 1493 633 1482 q 622 1513 633 1504 q 590 1521 610 1521 q 551 1515 572 1521 q 517 1500 529 1510 q 458 1522 483 1479 q 467 1576 442 1554 q 535 1610 496 1597 q 613 1622 574 1622 z "},"Ư":{"ha":1199,"x_min":174,"x_max":1283,"o":"m 1267 1469 q 1281 1353 1283 1411 q 1247 1249 1278 1296 q 1152 1174 1217 1203 q 983 1146 1088 1146 l 983 1233 q 1117 1266 1078 1239 q 1160 1339 1157 1293 q 1149 1447 1164 1385 q 1157 1486 1143 1471 q 1194 1506 1171 1501 q 1238 1501 1217 1510 q 1267 1469 1260 1493 m 603 -26 q 424 1 503 -26 q 289 82 344 29 q 203 210 233 135 q 174 379 174 285 l 174 1199 q 189 1227 174 1218 q 235 1236 204 1236 q 281 1227 265 1236 q 296 1199 296 1218 l 296 379 q 333 226 296 290 q 438 126 369 161 q 603 92 507 92 q 764 126 697 92 q 867 226 831 161 q 903 379 903 290 l 903 1199 q 918 1227 903 1218 q 964 1236 933 1236 q 1025 1199 1025 1236 l 1025 379 q 974 162 1025 253 q 829 22 924 71 q 603 -26 735 -26 z "},"Ứ":{"ha":1199,"x_min":174,"x_max":1283,"o":"m 1267 1469 q 1281 1353 1283 1411 q 1247 1249 1278 1296 q 1152 1174 1217 1203 q 983 1146 1088 1146 l 983 1233 q 1117 1266 1078 1239 q 1160 1339 1157 1293 q 1149 1447 1164 1385 q 1157 1486 1143 1471 q 1194 1506 1171 1501 q 1238 1501 1217 1510 q 1267 1469 1260 1493 m 603 -26 q 424 1 503 -26 q 289 82 344 29 q 203 210 233 135 q 174 379 174 285 l 174 1199 q 189 1227 174 1218 q 235 1236 204 1236 q 281 1227 265 1236 q 296 1199 296 1218 l 296 379 q 333 226 296 290 q 438 126 369 161 q 603 92 507 92 q 764 126 697 92 q 867 226 831 161 q 903 379 903 290 l 903 1199 q 918 1227 903 1218 q 964 1236 933 1236 q 1025 1199 1025 1236 l 1025 379 q 974 162 1025 253 q 829 22 924 71 q 603 -26 735 -26 m 536 1293 q 503 1313 522 1293 q 485 1346 485 1332 q 486 1356 485 1351 q 496 1369 488 1361 l 683 1568 q 697 1579 690 1575 q 710 1583 703 1583 q 742 1571 724 1583 q 773 1542 760 1558 q 786 1511 786 1525 q 783 1494 786 1501 q 765 1476 779 1488 l 563 1307 q 548 1297 554 1301 q 536 1293 542 1293 z "},"Ự":{"ha":1199,"x_min":174,"x_max":1283,"o":"m 1267 1469 q 1281 1353 1283 1411 q 1247 1249 1278 1296 q 1152 1174 1217 1203 q 983 1146 1088 1146 l 983 1233 q 1117 1266 1078 1239 q 1160 1339 1157 1293 q 1149 1447 1164 1385 q 1157 1486 1143 1471 q 1194 1506 1171 1501 q 1238 1501 1217 1510 q 1267 1469 1260 1493 m 603 -26 q 424 1 503 -26 q 289 82 344 29 q 203 210 233 135 q 174 379 174 285 l 174 1199 q 189 1227 174 1218 q 235 1236 204 1236 q 281 1227 265 1236 q 296 1199 296 1218 l 296 379 q 333 226 296 290 q 438 126 369 161 q 603 92 507 92 q 764 126 697 92 q 867 226 831 161 q 903 379 903 290 l 903 1199 q 918 1227 903 1218 q 964 1236 933 1236 q 1025 1199 1025 1236 l 1025 379 q 974 162 1025 253 q 829 22 924 71 q 603 -26 735 -26 m 599 -326 q 540 -305 560 -326 q 521 -239 521 -283 q 540 -173 521 -194 q 599 -151 560 -151 q 656 -173 636 -151 q 675 -239 675 -194 q 656 -305 676 -283 q 599 -326 636 -326 z "},"Ừ":{"ha":1199,"x_min":174,"x_max":1283,"o":"m 1267 1469 q 1281 1353 1283 1411 q 1247 1249 1278 1296 q 1152 1174 1217 1203 q 983 1146 1088 1146 l 983 1233 q 1117 1266 1078 1239 q 1160 1339 1157 1293 q 1149 1447 1164 1385 q 1157 1486 1143 1471 q 1194 1506 1171 1501 q 1238 1501 1217 1510 q 1267 1469 1260 1493 m 603 -26 q 424 1 503 -26 q 289 82 344 29 q 203 210 233 135 q 174 379 174 285 l 174 1199 q 189 1227 174 1218 q 235 1236 204 1236 q 281 1227 265 1236 q 296 1199 296 1218 l 296 379 q 333 226 296 290 q 438 126 369 161 q 603 92 507 92 q 764 126 697 92 q 867 226 831 161 q 903 379 903 290 l 903 1199 q 918 1227 903 1218 q 964 1236 933 1236 q 1025 1199 1025 1236 l 1025 379 q 974 162 1025 253 q 829 22 924 71 q 603 -26 735 -26 m 661 1293 q 649 1297 656 1293 q 635 1307 643 1301 l 432 1476 q 415 1494 419 1488 q 411 1511 411 1501 q 424 1542 411 1525 q 456 1571 438 1558 q 488 1583 474 1583 q 502 1579 496 1583 q 514 1568 508 1575 l 701 1369 q 713 1356 711 1361 q 714 1346 714 1351 q 695 1313 714 1332 q 661 1293 676 1293 z "},"Ử":{"ha":1199,"x_min":174,"x_max":1283,"o":"m 1267 1469 q 1281 1353 1283 1411 q 1247 1249 1278 1296 q 1152 1174 1217 1203 q 983 1146 1088 1146 l 983 1233 q 1117 1266 1078 1239 q 1160 1339 1157 1293 q 1149 1447 1164 1385 q 1157 1486 1143 1471 q 1194 1506 1171 1501 q 1238 1501 1217 1510 q 1267 1469 1260 1493 m 603 -26 q 424 1 503 -26 q 289 82 344 29 q 203 210 233 135 q 174 379 174 285 l 174 1199 q 189 1227 174 1218 q 235 1236 204 1236 q 281 1227 265 1236 q 296 1199 296 1218 l 296 379 q 333 226 296 290 q 438 126 369 161 q 603 92 507 92 q 764 126 697 92 q 867 226 831 161 q 903 379 903 290 l 903 1199 q 918 1227 903 1218 q 964 1236 933 1236 q 1025 1199 1025 1236 l 1025 379 q 974 162 1025 253 q 829 22 924 71 q 603 -26 735 -26 m 613 1622 q 722 1590 681 1622 q 764 1501 764 1557 q 748 1440 764 1467 q 693 1383 732 1413 q 669 1358 675 1369 q 665 1333 663 1347 l 667 1324 q 659 1297 671 1308 q 629 1282 647 1286 q 595 1282 611 1278 q 572 1300 579 1286 l 557 1338 q 557 1397 546 1369 q 599 1446 568 1424 q 626 1471 618 1460 q 633 1493 633 1482 q 622 1513 633 1504 q 590 1521 610 1521 q 551 1515 572 1521 q 517 1500 529 1510 q 458 1522 483 1479 q 467 1576 442 1554 q 535 1610 496 1597 q 613 1622 574 1622 z "},"Ữ":{"ha":1199,"x_min":174,"x_max":1283,"o":"m 1267 1469 q 1281 1353 1283 1411 q 1247 1249 1278 1296 q 1152 1174 1217 1203 q 983 1146 1088 1146 l 983 1233 q 1117 1266 1078 1239 q 1160 1339 1157 1293 q 1149 1447 1164 1385 q 1157 1486 1143 1471 q 1194 1506 1171 1501 q 1238 1501 1217 1510 q 1267 1469 1260 1493 m 603 -26 q 424 1 503 -26 q 289 82 344 29 q 203 210 233 135 q 174 379 174 285 l 174 1199 q 189 1227 174 1218 q 235 1236 204 1236 q 281 1227 265 1236 q 296 1199 296 1218 l 296 379 q 333 226 296 290 q 438 126 369 161 q 603 92 507 92 q 764 126 697 92 q 867 226 831 161 q 903 379 903 290 l 903 1199 q 918 1227 903 1218 q 964 1236 933 1236 q 1025 1199 1025 1236 l 1025 379 q 974 162 1025 253 q 829 22 924 71 q 603 -26 735 -26 m 390 1331 q 343 1367 343 1331 q 378 1502 346 1461 q 471 1543 410 1543 q 547 1528 513 1543 q 613 1495 582 1514 q 668 1462 643 1476 q 715 1447 693 1447 q 741 1465 732 1447 q 753 1515 750 1483 q 800 1546 753 1546 q 838 1536 826 1546 q 850 1507 850 1526 q 818 1378 849 1425 q 719 1332 788 1332 q 640 1347 676 1332 q 575 1379 604 1361 q 522 1412 546 1397 q 476 1426 497 1426 q 452 1413 461 1426 q 440 1367 443 1400 q 426 1340 439 1349 q 390 1331 414 1331 z "},"Ẃ":{"ha":1667,"x_min":14,"x_max":1653,"o":"m 429 -19 q 380 -7 397 -19 q 353 36 363 6 l 19 1174 q 23 1207 14 1193 q 63 1231 32 1221 q 109 1237 90 1240 q 133 1210 128 1233 l 432 174 l 761 1186 q 785 1225 769 1214 q 832 1236 801 1236 q 880 1225 864 1236 q 904 1186 896 1214 l 1233 175 l 1533 1210 q 1559 1237 1540 1233 q 1604 1231 1578 1240 q 1644 1207 1635 1221 q 1647 1174 1653 1193 l 1311 36 q 1284 -7 1301 6 q 1233 -19 1267 -19 q 1184 -7 1200 -19 q 1157 36 1168 6 l 832 1042 l 507 36 q 480 -7 497 6 q 429 -19 463 -19 m 771 1293 q 738 1313 757 1293 q 719 1346 719 1332 q 721 1356 719 1351 q 731 1369 722 1361 l 918 1568 q 931 1579 925 1575 q 944 1583 938 1583 q 976 1571 958 1583 q 1008 1542 994 1558 q 1021 1511 1021 1525 q 1017 1494 1021 1501 q 1000 1476 1014 1488 l 797 1307 q 783 1297 789 1301 q 771 1293 776 1293 z "},"Ŵ":{"ha":1667,"x_min":14,"x_max":1653,"o":"m 429 -19 q 380 -7 397 -19 q 353 36 363 6 l 19 1174 q 23 1207 14 1193 q 63 1231 32 1221 q 109 1237 90 1240 q 133 1210 128 1233 l 432 174 l 761 1186 q 785 1225 769 1214 q 832 1236 801 1236 q 880 1225 864 1236 q 904 1186 896 1214 l 1233 175 l 1533 1210 q 1559 1237 1540 1233 q 1604 1231 1578 1240 q 1644 1207 1635 1221 q 1647 1174 1653 1193 l 1311 36 q 1284 -7 1301 6 q 1233 -19 1267 -19 q 1184 -7 1200 -19 q 1157 36 1168 6 l 832 1042 l 507 36 q 480 -7 497 6 q 429 -19 463 -19 m 625 1293 q 594 1310 613 1293 q 576 1340 576 1326 q 577 1350 576 1344 q 585 1363 578 1356 l 772 1556 q 794 1574 782 1565 q 833 1583 807 1583 q 872 1574 860 1583 q 893 1556 883 1565 l 1082 1363 q 1090 1350 1089 1356 q 1090 1340 1090 1344 q 1073 1310 1090 1326 q 1042 1293 1056 1293 q 1025 1298 1032 1293 q 1007 1311 1018 1303 l 833 1444 l 660 1311 q 642 1298 650 1303 q 625 1293 635 1293 z "},"Ẅ":{"ha":1667,"x_min":14,"x_max":1653,"o":"m 429 -19 q 380 -7 397 -19 q 353 36 363 6 l 19 1174 q 23 1207 14 1193 q 63 1231 32 1221 q 109 1237 90 1240 q 133 1210 128 1233 l 432 174 l 761 1186 q 785 1225 769 1214 q 832 1236 801 1236 q 880 1225 864 1236 q 904 1186 896 1214 l 1233 175 l 1533 1210 q 1559 1237 1540 1233 q 1604 1231 1578 1240 q 1644 1207 1635 1221 q 1647 1174 1653 1193 l 1311 36 q 1284 -7 1301 6 q 1233 -19 1267 -19 q 1184 -7 1200 -19 q 1157 36 1168 6 l 832 1042 l 507 36 q 480 -7 497 6 q 429 -19 463 -19 m 668 1338 q 610 1359 629 1338 q 590 1424 590 1381 q 610 1490 590 1468 q 668 1513 629 1513 q 726 1490 707 1513 q 744 1424 744 1468 q 727 1359 747 1381 q 668 1338 707 1338 m 1000 1338 q 942 1359 961 1338 q 922 1424 922 1381 q 942 1490 922 1468 q 1000 1513 961 1513 q 1057 1490 1038 1513 q 1076 1424 1076 1468 q 1058 1359 1078 1381 q 1000 1338 1038 1338 z "},"Ẁ":{"ha":1667,"x_min":14,"x_max":1653,"o":"m 429 -19 q 380 -7 397 -19 q 353 36 363 6 l 19 1174 q 23 1207 14 1193 q 63 1231 32 1221 q 109 1237 90 1240 q 133 1210 128 1233 l 432 174 l 761 1186 q 785 1225 769 1214 q 832 1236 801 1236 q 880 1225 864 1236 q 904 1186 896 1214 l 1233 175 l 1533 1210 q 1559 1237 1540 1233 q 1604 1231 1578 1240 q 1644 1207 1635 1221 q 1647 1174 1653 1193 l 1311 36 q 1284 -7 1301 6 q 1233 -19 1267 -19 q 1184 -7 1200 -19 q 1157 36 1168 6 l 832 1042 l 507 36 q 480 -7 497 6 q 429 -19 463 -19 m 896 1293 q 884 1297 890 1293 q 869 1307 878 1301 l 667 1476 q 650 1494 654 1488 q 646 1511 646 1501 q 659 1542 646 1525 q 690 1571 672 1558 q 722 1583 708 1583 q 737 1579 731 1583 q 749 1568 743 1575 l 936 1369 q 947 1356 946 1361 q 949 1346 949 1351 q 930 1313 949 1332 q 896 1293 911 1293 z "},"Ý":{"ha":850,"x_min":4,"x_max":846,"o":"m 425 -19 q 365 19 365 -19 l 365 513 l 14 1161 q 13 1194 4 1179 q 49 1224 21 1210 q 92 1238 75 1238 q 122 1215 110 1239 l 425 644 l 729 1215 q 760 1238 743 1239 q 803 1224 776 1238 q 838 1194 831 1210 q 838 1161 846 1179 l 486 511 l 486 19 q 425 -19 486 -19 m 363 1293 q 330 1313 349 1293 q 311 1346 311 1332 q 313 1356 311 1351 q 322 1369 314 1361 l 510 1568 q 523 1579 517 1575 q 536 1583 529 1583 q 568 1571 550 1583 q 599 1542 586 1558 q 613 1511 613 1525 q 609 1494 613 1501 q 592 1476 606 1488 l 389 1307 q 374 1297 381 1301 q 363 1293 368 1293 z "},"Ŷ":{"ha":850,"x_min":4,"x_max":846,"o":"m 425 -19 q 365 19 365 -19 l 365 513 l 14 1161 q 13 1194 4 1179 q 49 1224 21 1210 q 92 1238 75 1238 q 122 1215 110 1239 l 425 644 l 729 1215 q 760 1238 743 1239 q 803 1224 776 1238 q 838 1194 831 1210 q 838 1161 846 1179 l 486 511 l 486 19 q 425 -19 486 -19 m 217 1293 q 186 1310 204 1293 q 168 1340 168 1326 q 169 1350 168 1344 q 176 1363 169 1356 l 364 1556 q 386 1574 374 1565 q 425 1583 399 1583 q 463 1574 451 1583 q 485 1556 475 1565 l 674 1363 q 681 1350 681 1356 q 682 1340 682 1344 q 665 1310 682 1326 q 633 1293 647 1293 q 617 1298 624 1293 q 599 1311 610 1303 l 425 1444 l 251 1311 q 234 1298 242 1303 q 217 1293 226 1293 z "},"Ÿ":{"ha":850,"x_min":4,"x_max":846,"o":"m 425 -19 q 365 19 365 -19 l 365 513 l 14 1161 q 13 1194 4 1179 q 49 1224 21 1210 q 92 1238 75 1238 q 122 1215 110 1239 l 425 644 l 729 1215 q 760 1238 743 1239 q 803 1224 776 1238 q 838 1194 831 1210 q 838 1161 846 1179 l 486 511 l 486 19 q 425 -19 486 -19 m 260 1338 q 201 1359 221 1338 q 182 1424 182 1381 q 201 1490 182 1468 q 260 1513 221 1513 q 317 1490 299 1513 q 336 1424 336 1468 q 319 1359 339 1381 q 260 1338 299 1338 m 592 1338 q 533 1359 553 1338 q 514 1424 514 1381 q 533 1490 514 1468 q 592 1513 553 1513 q 649 1490 629 1513 q 668 1424 668 1468 q 649 1359 669 1381 q 592 1338 629 1338 z "},"Ỳ":{"ha":850,"x_min":4,"x_max":846,"o":"m 425 -19 q 365 19 365 -19 l 365 513 l 14 1161 q 13 1194 4 1179 q 49 1224 21 1210 q 92 1238 75 1238 q 122 1215 110 1239 l 425 644 l 729 1215 q 760 1238 743 1239 q 803 1224 776 1238 q 838 1194 831 1210 q 838 1161 846 1179 l 486 511 l 486 19 q 425 -19 486 -19 m 488 1293 q 476 1297 482 1293 q 461 1307 469 1301 l 258 1476 q 242 1494 246 1488 q 238 1511 238 1501 q 251 1542 238 1525 q 282 1571 264 1558 q 314 1583 300 1583 q 328 1579 322 1583 q 340 1568 335 1575 l 528 1369 q 539 1356 538 1361 q 540 1346 540 1351 q 522 1313 540 1332 q 488 1293 503 1293 z "},"Ỵ":{"ha":850,"x_min":4,"x_max":846,"o":"m 425 -19 q 365 19 365 -19 l 365 513 l 14 1161 q 13 1194 4 1179 q 49 1224 21 1210 q 92 1238 75 1238 q 122 1215 110 1239 l 425 644 l 729 1215 q 760 1238 743 1239 q 803 1224 776 1238 q 838 1194 831 1210 q 838 1161 846 1179 l 486 511 l 486 19 q 425 -19 486 -19 m 417 -326 q 358 -305 378 -326 q 339 -239 339 -283 q 358 -173 339 -194 q 417 -151 378 -151 q 474 -173 454 -151 q 493 -239 493 -194 q 474 -305 494 -283 q 417 -326 454 -326 z "},"Ỷ":{"ha":850,"x_min":4,"x_max":846,"o":"m 425 -19 q 365 19 365 -19 l 365 513 l 14 1161 q 13 1194 4 1179 q 49 1224 21 1210 q 92 1238 75 1238 q 122 1215 110 1239 l 425 644 l 729 1215 q 760 1238 743 1239 q 803 1224 776 1238 q 838 1194 831 1210 q 838 1161 846 1179 l 486 511 l 486 19 q 425 -19 486 -19 m 439 1622 q 549 1590 507 1622 q 590 1501 590 1557 q 574 1440 590 1467 q 519 1383 558 1413 q 495 1358 501 1369 q 492 1333 489 1347 l 493 1324 q 485 1297 497 1308 q 456 1282 474 1286 q 422 1282 438 1278 q 399 1300 406 1286 l 383 1338 q 383 1397 372 1369 q 425 1446 394 1424 q 452 1471 444 1460 q 460 1493 460 1482 q 448 1513 460 1504 q 417 1521 436 1521 q 377 1515 399 1521 q 343 1500 356 1510 q 285 1522 310 1479 q 293 1576 268 1554 q 361 1610 322 1597 q 439 1622 400 1622 z "},"Ỹ":{"ha":850,"x_min":4,"x_max":846,"o":"m 425 -19 q 365 19 365 -19 l 365 513 l 14 1161 q 13 1194 4 1179 q 49 1224 21 1210 q 92 1238 75 1238 q 122 1215 110 1239 l 425 644 l 729 1215 q 760 1238 743 1239 q 803 1224 776 1238 q 838 1194 831 1210 q 838 1161 846 1179 l 486 511 l 486 19 q 425 -19 486 -19 m 217 1331 q 169 1367 169 1331 q 204 1502 172 1461 q 297 1543 236 1543 q 374 1528 339 1543 q 439 1495 408 1514 q 494 1462 469 1476 q 542 1447 519 1447 q 567 1465 558 1447 q 579 1515 576 1483 q 626 1546 579 1546 q 665 1536 653 1546 q 676 1507 676 1526 q 644 1378 675 1425 q 546 1332 614 1332 q 467 1347 503 1332 q 401 1379 431 1361 q 348 1412 372 1397 q 303 1426 324 1426 q 278 1413 288 1426 q 267 1367 269 1400 q 253 1340 265 1349 q 217 1331 240 1331 z "},"Ź":{"ha":851,"x_min":11,"x_max":838,"o":"m 63 0 q 33 13 46 0 q 15 46 19 26 q 21 81 11 65 l 653 1104 l 101 1104 q 72 1117 81 1104 q 63 1160 63 1129 q 72 1203 63 1192 q 101 1215 81 1215 l 775 1215 q 816 1188 801 1215 q 817 1136 831 1160 l 185 111 l 799 111 q 828 99 819 111 q 838 56 838 88 q 828 13 838 25 q 799 0 819 0 l 63 0 m 363 1293 q 330 1313 349 1293 q 311 1346 311 1332 q 313 1356 311 1351 q 322 1369 314 1361 l 510 1568 q 523 1579 517 1575 q 536 1583 529 1583 q 568 1571 550 1583 q 599 1542 586 1558 q 613 1511 613 1525 q 609 1494 613 1501 q 592 1476 606 1488 l 389 1307 q 374 1297 381 1301 q 363 1293 368 1293 z "},"Ž":{"ha":851,"x_min":11,"x_max":838,"o":"m 63 0 q 33 13 46 0 q 15 46 19 26 q 21 81 11 65 l 653 1104 l 101 1104 q 72 1117 81 1104 q 63 1160 63 1129 q 72 1203 63 1192 q 101 1215 81 1215 l 775 1215 q 816 1188 801 1215 q 817 1136 831 1160 l 185 111 l 799 111 q 828 99 819 111 q 838 56 838 88 q 828 13 838 25 q 799 0 819 0 l 63 0 m 633 1583 q 665 1567 647 1583 q 682 1536 682 1551 q 681 1528 682 1533 q 674 1514 681 1522 l 486 1321 q 465 1303 476 1313 q 425 1293 453 1293 q 387 1303 399 1293 q 367 1321 375 1313 l 176 1514 q 169 1528 169 1522 q 168 1536 168 1533 q 186 1567 168 1551 q 217 1583 204 1583 q 234 1578 226 1583 q 251 1567 242 1574 l 425 1432 l 599 1567 q 617 1578 610 1574 q 633 1583 624 1583 z "},"Ż":{"ha":851,"x_min":11,"x_max":838,"o":"m 63 0 q 33 13 46 0 q 15 46 19 26 q 21 81 11 65 l 653 1104 l 101 1104 q 72 1117 81 1104 q 63 1160 63 1129 q 72 1203 63 1192 q 101 1215 81 1215 l 775 1215 q 816 1188 801 1215 q 817 1136 831 1160 l 185 111 l 799 111 q 828 99 819 111 q 838 56 838 88 q 828 13 838 25 q 799 0 819 0 l 63 0 m 425 1338 q 367 1359 386 1338 q 347 1424 347 1381 q 367 1490 347 1468 q 425 1513 386 1513 q 482 1490 463 1513 q 501 1424 501 1468 q 483 1359 503 1381 q 425 1338 463 1338 z "},"á":{"ha":867,"x_min":88,"x_max":865,"o":"m 325 -24 q 199 16 253 -24 q 117 131 146 56 q 88 314 88 206 q 101 449 88 386 q 140 562 114 511 q 203 648 165 613 q 291 702 242 683 q 400 721 340 721 q 489 710 447 721 q 572 676 531 699 l 572 681 q 588 706 572 697 q 633 715 603 715 q 678 706 664 715 q 693 679 693 697 l 693 144 q 697 108 693 122 q 708 89 700 94 q 726 83 715 83 q 747 90 738 83 q 765 109 756 96 q 786 143 774 122 q 804 158 792 156 q 833 150 817 160 q 858 128 851 142 q 858 100 865 115 q 824 39 846 67 q 773 -6 801 11 q 708 -24 744 -24 q 651 -14 675 -24 q 609 15 626 -4 q 583 60 592 33 q 574 119 575 86 q 573 158 574 138 q 572 199 572 178 q 507 76 546 125 q 422 1 468 26 q 325 -24 376 -24 m 210 317 q 223 198 210 250 q 267 117 236 146 q 344 88 297 88 q 438 131 393 88 q 517 253 482 174 q 572 442 551 332 l 572 569 q 491 603 529 594 q 418 613 453 613 q 347 600 379 613 q 288 563 314 588 q 245 503 263 539 q 219 422 228 468 q 210 317 210 375 m 374 847 q 338 864 358 847 q 317 894 317 881 q 318 903 317 899 q 325 917 319 907 l 474 1144 q 488 1160 481 1156 q 507 1165 496 1165 q 540 1155 521 1165 q 573 1130 558 1144 q 588 1103 588 1115 q 584 1087 588 1093 q 571 1069 581 1081 l 400 865 q 374 847 383 847 z "},"ă":{"ha":867,"x_min":88,"x_max":865,"o":"m 325 -24 q 199 16 253 -24 q 117 131 146 56 q 88 314 88 206 q 101 449 88 386 q 140 562 114 511 q 203 648 165 613 q 291 702 242 683 q 400 721 340 721 q 489 710 447 721 q 572 676 531 699 l 572 681 q 588 706 572 697 q 633 715 603 715 q 678 706 664 715 q 693 679 693 697 l 693 144 q 697 108 693 122 q 708 89 700 94 q 726 83 715 83 q 747 90 738 83 q 765 109 756 96 q 786 143 774 122 q 804 158 792 156 q 833 150 817 160 q 858 128 851 142 q 858 100 865 115 q 824 39 846 67 q 773 -6 801 11 q 708 -24 744 -24 q 651 -14 675 -24 q 609 15 626 -4 q 583 60 592 33 q 574 119 575 86 q 573 158 574 138 q 572 199 572 178 q 507 76 546 125 q 422 1 468 26 q 325 -24 376 -24 m 210 317 q 223 198 210 250 q 267 117 236 146 q 344 88 297 88 q 438 131 393 88 q 517 253 482 174 q 572 442 551 332 l 572 569 q 491 603 529 594 q 418 613 453 613 q 347 600 379 613 q 288 563 314 588 q 245 503 263 539 q 219 422 228 468 q 210 317 210 375 m 417 858 q 242 928 307 858 q 172 1124 178 999 q 182 1152 171 1140 q 219 1164 193 1164 q 256 1153 246 1164 q 269 1124 265 1142 q 317 1021 282 1061 q 417 981 353 981 q 517 1021 482 981 q 564 1124 551 1061 q 577 1153 568 1143 q 613 1164 586 1164 q 651 1152 639 1164 q 661 1124 664 1140 q 626 985 658 1044 q 540 892 594 925 q 417 858 486 858 z "},"ǎ":{"ha":867,"x_min":88,"x_max":865,"o":"m 325 -24 q 199 16 253 -24 q 117 131 146 56 q 88 314 88 206 q 101 449 88 386 q 140 562 114 511 q 203 648 165 613 q 291 702 242 683 q 400 721 340 721 q 489 710 447 721 q 572 676 531 699 l 572 681 q 588 706 572 697 q 633 715 603 715 q 678 706 664 715 q 693 679 693 697 l 693 144 q 697 108 693 122 q 708 89 700 94 q 726 83 715 83 q 747 90 738 83 q 765 109 756 96 q 786 143 774 122 q 804 158 792 156 q 833 150 817 160 q 858 128 851 142 q 858 100 865 115 q 824 39 846 67 q 773 -6 801 11 q 708 -24 744 -24 q 651 -14 675 -24 q 609 15 626 -4 q 583 60 592 33 q 574 119 575 86 q 573 158 574 138 q 572 199 572 178 q 507 76 546 125 q 422 1 468 26 q 325 -24 376 -24 m 210 317 q 223 198 210 250 q 267 117 236 146 q 344 88 297 88 q 438 131 393 88 q 517 253 482 174 q 572 442 551 332 l 572 569 q 491 603 529 594 q 418 613 453 613 q 347 600 379 613 q 288 563 314 588 q 245 503 263 539 q 219 422 228 468 q 210 317 210 375 m 615 1174 q 646 1158 628 1174 q 664 1126 664 1142 q 663 1119 664 1124 q 654 1104 661 1114 l 478 883 q 457 865 469 875 q 417 856 444 856 q 378 865 390 856 q 358 883 365 875 l 179 1104 q 172 1119 174 1114 q 171 1126 171 1124 q 188 1158 171 1142 q 219 1174 206 1174 q 236 1169 228 1174 q 254 1157 244 1164 l 417 994 l 581 1157 q 597 1169 589 1164 q 615 1174 606 1174 z "},"â":{"ha":867,"x_min":88,"x_max":865,"o":"m 325 -24 q 199 16 253 -24 q 117 131 146 56 q 88 314 88 206 q 101 449 88 386 q 140 562 114 511 q 203 648 165 613 q 291 702 242 683 q 400 721 340 721 q 489 710 447 721 q 572 676 531 699 l 572 681 q 588 706 572 697 q 633 715 603 715 q 678 706 664 715 q 693 679 693 697 l 693 144 q 697 108 693 122 q 708 89 700 94 q 726 83 715 83 q 747 90 738 83 q 765 109 756 96 q 786 143 774 122 q 804 158 792 156 q 833 150 817 160 q 858 128 851 142 q 858 100 865 115 q 824 39 846 67 q 773 -6 801 11 q 708 -24 744 -24 q 651 -14 675 -24 q 609 15 626 -4 q 583 60 592 33 q 574 119 575 86 q 573 158 574 138 q 572 199 572 178 q 507 76 546 125 q 422 1 468 26 q 325 -24 376 -24 m 210 317 q 223 198 210 250 q 267 117 236 146 q 344 88 297 88 q 438 131 393 88 q 517 253 482 174 q 572 442 551 332 l 572 569 q 491 603 529 594 q 418 613 453 613 q 347 600 379 613 q 288 563 314 588 q 245 503 263 539 q 219 422 228 468 q 210 317 210 375 m 219 847 q 188 864 206 847 q 171 894 171 881 q 172 903 171 899 q 179 917 174 907 l 356 1138 q 377 1156 364 1147 q 417 1165 390 1165 q 456 1156 443 1165 q 476 1138 468 1147 l 654 917 q 663 903 661 907 q 664 894 664 899 q 646 864 664 881 q 615 847 628 847 q 597 852 606 847 q 581 865 589 857 l 417 1026 l 254 865 q 236 852 244 857 q 219 847 228 847 z "},"ä":{"ha":867,"x_min":88,"x_max":865,"o":"m 325 -24 q 199 16 253 -24 q 117 131 146 56 q 88 314 88 206 q 101 449 88 386 q 140 562 114 511 q 203 648 165 613 q 291 702 242 683 q 400 721 340 721 q 489 710 447 721 q 572 676 531 699 l 572 681 q 588 706 572 697 q 633 715 603 715 q 678 706 664 715 q 693 679 693 697 l 693 144 q 697 108 693 122 q 708 89 700 94 q 726 83 715 83 q 747 90 738 83 q 765 109 756 96 q 786 143 774 122 q 804 158 792 156 q 833 150 817 160 q 858 128 851 142 q 858 100 865 115 q 824 39 846 67 q 773 -6 801 11 q 708 -24 744 -24 q 651 -14 675 -24 q 609 15 626 -4 q 583 60 592 33 q 574 119 575 86 q 573 158 574 138 q 572 199 572 178 q 507 76 546 125 q 422 1 468 26 q 325 -24 376 -24 m 210 317 q 223 198 210 250 q 267 117 236 146 q 344 88 297 88 q 438 131 393 88 q 517 253 482 174 q 572 442 551 332 l 572 569 q 491 603 529 594 q 418 613 453 613 q 347 600 379 613 q 288 563 314 588 q 245 503 263 539 q 219 422 228 468 q 210 317 210 375 m 258 929 q 200 951 219 929 q 181 1015 181 972 q 200 1082 181 1060 q 258 1104 219 1104 q 316 1082 297 1104 q 335 1015 335 1060 q 317 951 338 972 q 258 929 297 929 m 576 929 q 518 951 538 929 q 499 1015 499 972 q 518 1082 499 1060 q 576 1104 538 1104 q 633 1082 614 1104 q 653 1015 653 1060 q 634 951 654 972 q 576 929 614 929 z "},"ǽ":{"ha":1240,"x_min":88,"x_max":1197,"o":"m 88 297 q 101 428 88 365 q 144 544 115 490 q 218 637 174 597 q 323 699 263 676 q 460 721 383 721 q 583 711 526 721 q 691 685 639 701 q 797 647 743 668 q 742 490 761 569 q 722 331 722 411 q 744 197 722 253 q 808 113 767 142 q 907 85 850 85 q 988 101 956 85 q 1047 144 1021 117 q 1097 203 1072 172 q 1131 222 1113 224 q 1168 206 1149 221 q 1192 175 1188 190 q 1185 142 1197 160 q 1100 46 1146 83 q 1004 -9 1054 8 q 894 -26 954 -26 q 739 16 806 -26 q 636 136 672 58 q 600 318 600 214 q 610 447 600 389 q 637 554 621 506 q 669 640 653 603 l 706 546 q 584 592 642 574 q 456 610 526 610 q 349 587 394 610 q 272 522 303 564 q 226 425 242 481 q 210 303 210 369 q 224 188 210 236 q 265 114 238 140 q 333 88 292 88 q 399 110 365 88 q 469 188 432 132 q 550 341 506 243 q 649 588 594 439 l 736 568 q 627 277 678 392 q 527 97 576 163 q 428 3 478 31 q 322 -24 378 -24 q 151 61 215 -24 q 88 297 88 146 m 1169 542 q 1144 442 1169 488 q 1072 362 1118 397 q 963 299 1026 326 q 824 251 900 271 q 664 222 749 232 l 664 318 q 778 342 722 328 q 881 374 833 356 q 966 415 929 392 q 1024 467 1003 439 q 1044 529 1044 496 q 1014 592 1044 574 q 939 611 983 611 q 824 593 878 611 q 722 536 769 575 l 696 644 q 821 701 753 682 q 957 721 889 721 q 1108 676 1046 721 q 1169 542 1169 632 m 647 847 q 611 864 632 847 q 590 894 590 881 q 592 903 590 899 q 599 917 593 907 l 747 1144 q 762 1160 754 1156 q 781 1165 769 1165 q 813 1155 794 1165 q 847 1130 832 1144 q 861 1103 861 1115 q 858 1087 861 1093 q 844 1069 854 1081 l 674 865 q 647 847 657 847 z "},"à":{"ha":867,"x_min":88,"x_max":865,"o":"m 325 -24 q 199 16 253 -24 q 117 131 146 56 q 88 314 88 206 q 101 449 88 386 q 140 562 114 511 q 203 648 165 613 q 291 702 242 683 q 400 721 340 721 q 489 710 447 721 q 572 676 531 699 l 572 681 q 588 706 572 697 q 633 715 603 715 q 678 706 664 715 q 693 679 693 697 l 693 144 q 697 108 693 122 q 708 89 700 94 q 726 83 715 83 q 747 90 738 83 q 765 109 756 96 q 786 143 774 122 q 804 158 792 156 q 833 150 817 160 q 858 128 851 142 q 858 100 865 115 q 824 39 846 67 q 773 -6 801 11 q 708 -24 744 -24 q 651 -14 675 -24 q 609 15 626 -4 q 583 60 592 33 q 574 119 575 86 q 573 158 574 138 q 572 199 572 178 q 507 76 546 125 q 422 1 468 26 q 325 -24 376 -24 m 210 317 q 223 198 210 250 q 267 117 236 146 q 344 88 297 88 q 438 131 393 88 q 517 253 482 174 q 572 442 551 332 l 572 569 q 491 603 529 594 q 418 613 453 613 q 347 600 379 613 q 288 563 314 588 q 245 503 263 539 q 219 422 228 468 q 210 317 210 375 m 458 847 q 447 851 453 847 q 432 865 440 856 l 261 1069 q 248 1087 251 1081 q 244 1103 244 1093 q 259 1130 244 1115 q 292 1155 274 1144 q 325 1165 311 1165 q 358 1144 344 1165 l 507 917 q 515 903 514 907 q 515 894 515 899 q 494 864 515 881 q 458 847 474 847 z "},"ā":{"ha":867,"x_min":88,"x_max":865,"o":"m 325 -24 q 199 16 253 -24 q 117 131 146 56 q 88 314 88 206 q 101 449 88 386 q 140 562 114 511 q 203 648 165 613 q 291 702 242 683 q 400 721 340 721 q 489 710 447 721 q 572 676 531 699 l 572 681 q 588 706 572 697 q 633 715 603 715 q 678 706 664 715 q 693 679 693 697 l 693 144 q 697 108 693 122 q 708 89 700 94 q 726 83 715 83 q 747 90 738 83 q 765 109 756 96 q 786 143 774 122 q 804 158 792 156 q 833 150 817 160 q 858 128 851 142 q 858 100 865 115 q 824 39 846 67 q 773 -6 801 11 q 708 -24 744 -24 q 651 -14 675 -24 q 609 15 626 -4 q 583 60 592 33 q 574 119 575 86 q 573 158 574 138 q 572 199 572 178 q 507 76 546 125 q 422 1 468 26 q 325 -24 376 -24 m 210 317 q 223 198 210 250 q 267 117 236 146 q 344 88 297 88 q 438 131 393 88 q 517 253 482 174 q 572 442 551 332 l 572 569 q 491 603 529 594 q 418 613 453 613 q 347 600 379 613 q 288 563 314 588 q 245 503 263 539 q 219 422 228 468 q 210 317 210 375 m 231 953 q 200 969 207 953 q 193 1011 193 986 q 200 1054 193 1038 q 231 1071 207 1071 l 603 1071 q 634 1054 628 1071 q 640 1011 640 1038 q 634 969 640 986 q 603 953 628 953 l 231 953 z "},"ą":{"ha":867,"x_min":88,"x_max":865,"o":"m 325 -24 q 199 16 253 -24 q 117 131 146 56 q 88 314 88 206 q 101 449 88 386 q 140 562 114 511 q 203 648 165 613 q 291 702 242 683 q 400 721 340 721 q 489 710 447 721 q 572 676 531 699 l 572 681 q 588 706 572 697 q 633 715 603 715 q 678 706 664 715 q 693 679 693 697 l 693 144 q 697 108 693 122 q 708 89 700 94 q 726 83 715 83 q 747 90 738 83 q 765 109 756 96 q 786 143 774 122 q 804 158 792 156 q 833 150 817 160 q 858 128 851 142 q 858 100 865 115 q 824 39 846 67 q 773 -6 801 11 q 708 -24 744 -24 q 651 -14 675 -24 q 609 15 626 -4 q 583 60 592 33 q 574 119 575 86 q 573 158 574 138 q 572 199 572 178 q 507 76 546 125 q 422 1 468 26 q 325 -24 376 -24 m 210 317 q 223 198 210 250 q 267 117 236 146 q 344 88 297 88 q 438 131 393 88 q 517 253 482 174 q 572 442 551 332 l 572 569 q 491 603 529 594 q 418 613 453 613 q 347 600 379 613 q 288 563 314 588 q 245 503 263 539 q 219 422 228 468 q 210 317 210 375 m 665 -343 q 577 -312 611 -343 q 543 -229 543 -282 q 555 -165 543 -196 q 590 -102 567 -135 q 649 -35 614 -69 q 729 40 683 0 l 815 40 l 815 29 q 758 -29 786 1 q 706 -88 729 -60 q 670 -143 683 -117 q 657 -193 657 -169 q 667 -226 657 -214 q 696 -239 676 -239 q 738 -222 719 -239 q 781 -182 757 -206 q 802 -172 789 -175 q 832 -181 815 -168 q 856 -208 849 -190 q 854 -240 863 -226 q 801 -297 835 -274 q 732 -332 768 -321 q 665 -343 696 -343 z "},"å":{"ha":867,"x_min":88,"x_max":865,"o":"m 325 -24 q 199 16 253 -24 q 117 131 146 56 q 88 314 88 206 q 101 449 88 386 q 140 562 114 511 q 203 648 165 613 q 291 702 242 683 q 400 721 340 721 q 489 710 447 721 q 572 676 531 699 l 572 681 q 588 706 572 697 q 633 715 603 715 q 678 706 664 715 q 693 679 693 697 l 693 144 q 697 108 693 122 q 708 89 700 94 q 726 83 715 83 q 747 90 738 83 q 765 109 756 96 q 786 143 774 122 q 804 158 792 156 q 833 150 817 160 q 858 128 851 142 q 858 100 865 115 q 824 39 846 67 q 773 -6 801 11 q 708 -24 744 -24 q 651 -14 675 -24 q 609 15 626 -4 q 583 60 592 33 q 574 119 575 86 q 573 158 574 138 q 572 199 572 178 q 507 76 546 125 q 422 1 468 26 q 325 -24 376 -24 m 210 317 q 223 198 210 250 q 267 117 236 146 q 344 88 297 88 q 438 131 393 88 q 517 253 482 174 q 572 442 551 332 l 572 569 q 491 603 529 594 q 418 613 453 613 q 347 600 379 613 q 288 563 314 588 q 245 503 263 539 q 219 422 228 468 q 210 317 210 375 m 417 835 q 280 885 332 835 q 228 1015 228 935 q 251 1110 228 1069 q 318 1172 275 1150 q 417 1194 361 1194 q 553 1146 501 1194 q 606 1015 606 1097 q 582 921 606 961 q 516 858 558 881 q 417 835 474 835 m 417 918 q 466 931 446 918 q 497 965 486 943 q 507 1015 507 986 q 483 1085 507 1060 q 417 1111 460 1111 q 368 1099 389 1111 q 337 1066 347 1088 q 326 1015 326 1044 q 350 945 326 972 q 417 918 374 918 z "},"ã":{"ha":867,"x_min":88,"x_max":865,"o":"m 325 -24 q 199 16 253 -24 q 117 131 146 56 q 88 314 88 206 q 101 449 88 386 q 140 562 114 511 q 203 648 165 613 q 291 702 242 683 q 400 721 340 721 q 489 710 447 721 q 572 676 531 699 l 572 681 q 588 706 572 697 q 633 715 603 715 q 678 706 664 715 q 693 679 693 697 l 693 144 q 697 108 693 122 q 708 89 700 94 q 726 83 715 83 q 747 90 738 83 q 765 109 756 96 q 786 143 774 122 q 804 158 792 156 q 833 150 817 160 q 858 128 851 142 q 858 100 865 115 q 824 39 846 67 q 773 -6 801 11 q 708 -24 744 -24 q 651 -14 675 -24 q 609 15 626 -4 q 583 60 592 33 q 574 119 575 86 q 573 158 574 138 q 572 199 572 178 q 507 76 546 125 q 422 1 468 26 q 325 -24 376 -24 m 210 317 q 223 198 210 250 q 267 117 236 146 q 344 88 297 88 q 438 131 393 88 q 517 253 482 174 q 572 442 551 332 l 572 569 q 491 603 529 594 q 418 613 453 613 q 347 600 379 613 q 288 563 314 588 q 245 503 263 539 q 219 422 228 468 q 210 317 210 375 m 208 889 q 161 925 161 889 q 197 1069 164 1026 q 292 1113 231 1113 q 367 1098 333 1113 q 431 1063 401 1083 q 486 1028 461 1043 q 533 1013 511 1013 q 560 1031 550 1013 q 571 1085 569 1049 q 618 1115 575 1115 q 657 1106 646 1115 q 668 1076 668 1096 q 636 941 667 992 q 536 890 606 890 q 457 906 493 890 q 392 942 421 921 q 339 978 363 963 q 294 993 315 993 q 270 977 279 993 q 258 925 261 961 q 244 898 257 907 q 208 889 232 889 z "},"ắ":{"ha":867,"x_min":88,"x_max":865,"o":"m 325 -24 q 199 16 253 -24 q 117 131 146 56 q 88 314 88 206 q 101 449 88 386 q 140 562 114 511 q 203 648 165 613 q 291 702 242 683 q 400 721 340 721 q 489 710 447 721 q 572 676 531 699 l 572 681 q 588 706 572 697 q 633 715 603 715 q 678 706 664 715 q 693 679 693 697 l 693 144 q 697 108 693 122 q 708 89 700 94 q 726 83 715 83 q 747 90 738 83 q 765 109 756 96 q 786 143 774 122 q 804 158 792 156 q 833 150 817 160 q 858 128 851 142 q 858 100 865 115 q 824 39 846 67 q 773 -6 801 11 q 708 -24 744 -24 q 651 -14 675 -24 q 609 15 626 -4 q 583 60 592 33 q 574 119 575 86 q 573 158 574 138 q 572 199 572 178 q 507 76 546 125 q 422 1 468 26 q 325 -24 376 -24 m 210 317 q 223 198 210 250 q 267 117 236 146 q 344 88 297 88 q 438 131 393 88 q 517 253 482 174 q 572 442 551 332 l 572 569 q 491 603 529 594 q 418 613 453 613 q 347 600 379 613 q 288 563 314 588 q 245 503 263 539 q 219 422 228 468 q 210 317 210 375 m 417 858 q 242 928 307 858 q 172 1124 178 999 q 182 1152 171 1140 q 219 1164 193 1164 q 256 1153 246 1164 q 269 1124 265 1142 q 317 1021 282 1061 q 417 981 353 981 q 517 1021 482 981 q 564 1124 551 1061 q 577 1153 568 1143 q 613 1164 586 1164 q 651 1152 639 1164 q 661 1124 664 1140 q 626 985 658 1044 q 540 892 594 925 q 417 858 486 858 m 378 1161 q 342 1178 363 1161 q 321 1208 321 1194 q 322 1217 321 1213 q 329 1231 324 1221 l 478 1458 q 492 1474 485 1469 q 511 1479 500 1479 q 544 1469 525 1479 q 577 1444 563 1458 q 592 1417 592 1429 q 588 1401 592 1407 q 575 1383 585 1394 l 404 1179 q 378 1161 388 1161 z "},"ặ":{"ha":867,"x_min":88,"x_max":865,"o":"m 325 -24 q 199 16 253 -24 q 117 131 146 56 q 88 314 88 206 q 101 449 88 386 q 140 562 114 511 q 203 648 165 613 q 291 702 242 683 q 400 721 340 721 q 489 710 447 721 q 572 676 531 699 l 572 681 q 588 706 572 697 q 633 715 603 715 q 678 706 664 715 q 693 679 693 697 l 693 144 q 697 108 693 122 q 708 89 700 94 q 726 83 715 83 q 747 90 738 83 q 765 109 756 96 q 786 143 774 122 q 804 158 792 156 q 833 150 817 160 q 858 128 851 142 q 858 100 865 115 q 824 39 846 67 q 773 -6 801 11 q 708 -24 744 -24 q 651 -14 675 -24 q 609 15 626 -4 q 583 60 592 33 q 574 119 575 86 q 573 158 574 138 q 572 199 572 178 q 507 76 546 125 q 422 1 468 26 q 325 -24 376 -24 m 210 317 q 223 198 210 250 q 267 117 236 146 q 344 88 297 88 q 438 131 393 88 q 517 253 482 174 q 572 442 551 332 l 572 569 q 491 603 529 594 q 418 613 453 613 q 347 600 379 613 q 288 563 314 588 q 245 503 263 539 q 219 422 228 468 q 210 317 210 375 m 390 -326 q 332 -305 351 -326 q 313 -239 313 -283 q 332 -173 313 -194 q 390 -151 351 -151 q 447 -173 428 -151 q 467 -239 467 -194 q 448 -305 468 -283 q 390 -326 428 -326 m 417 858 q 242 928 307 858 q 172 1124 178 999 q 182 1152 171 1140 q 219 1164 193 1164 q 256 1153 246 1164 q 269 1124 265 1142 q 317 1021 282 1061 q 417 981 353 981 q 517 1021 482 981 q 564 1124 551 1061 q 577 1153 568 1143 q 613 1164 586 1164 q 651 1152 639 1164 q 661 1124 664 1140 q 626 985 658 1044 q 540 892 594 925 q 417 858 486 858 z "},"ằ":{"ha":867,"x_min":88,"x_max":865,"o":"m 325 -24 q 199 16 253 -24 q 117 131 146 56 q 88 314 88 206 q 101 449 88 386 q 140 562 114 511 q 203 648 165 613 q 291 702 242 683 q 400 721 340 721 q 489 710 447 721 q 572 676 531 699 l 572 681 q 588 706 572 697 q 633 715 603 715 q 678 706 664 715 q 693 679 693 697 l 693 144 q 697 108 693 122 q 708 89 700 94 q 726 83 715 83 q 747 90 738 83 q 765 109 756 96 q 786 143 774 122 q 804 158 792 156 q 833 150 817 160 q 858 128 851 142 q 858 100 865 115 q 824 39 846 67 q 773 -6 801 11 q 708 -24 744 -24 q 651 -14 675 -24 q 609 15 626 -4 q 583 60 592 33 q 574 119 575 86 q 573 158 574 138 q 572 199 572 178 q 507 76 546 125 q 422 1 468 26 q 325 -24 376 -24 m 210 317 q 223 198 210 250 q 267 117 236 146 q 344 88 297 88 q 438 131 393 88 q 517 253 482 174 q 572 442 551 332 l 572 569 q 491 603 529 594 q 418 613 453 613 q 347 600 379 613 q 288 563 314 588 q 245 503 263 539 q 219 422 228 468 q 210 317 210 375 m 417 858 q 242 928 307 858 q 172 1124 178 999 q 182 1152 171 1140 q 219 1164 193 1164 q 256 1153 246 1164 q 269 1124 265 1142 q 317 1021 282 1061 q 417 981 353 981 q 517 1021 482 981 q 564 1124 551 1061 q 577 1153 568 1143 q 613 1164 586 1164 q 651 1152 639 1164 q 661 1124 664 1140 q 626 985 658 1044 q 540 892 594 925 q 417 858 486 858 m 458 1160 q 447 1164 453 1160 q 432 1178 440 1168 l 261 1382 q 248 1399 251 1393 q 244 1415 244 1406 q 259 1442 244 1428 q 292 1467 274 1457 q 325 1478 311 1478 q 358 1457 344 1478 l 507 1229 q 515 1215 514 1219 q 515 1207 515 1211 q 494 1176 515 1193 q 458 1160 474 1160 z "},"ẳ":{"ha":867,"x_min":88,"x_max":865,"o":"m 325 -24 q 199 16 253 -24 q 117 131 146 56 q 88 314 88 206 q 101 449 88 386 q 140 562 114 511 q 203 648 165 613 q 291 702 242 683 q 400 721 340 721 q 489 710 447 721 q 572 676 531 699 l 572 681 q 588 706 572 697 q 633 715 603 715 q 678 706 664 715 q 693 679 693 697 l 693 144 q 697 108 693 122 q 708 89 700 94 q 726 83 715 83 q 747 90 738 83 q 765 109 756 96 q 786 143 774 122 q 804 158 792 156 q 833 150 817 160 q 858 128 851 142 q 858 100 865 115 q 824 39 846 67 q 773 -6 801 11 q 708 -24 744 -24 q 651 -14 675 -24 q 609 15 626 -4 q 583 60 592 33 q 574 119 575 86 q 573 158 574 138 q 572 199 572 178 q 507 76 546 125 q 422 1 468 26 q 325 -24 376 -24 m 210 317 q 223 198 210 250 q 267 117 236 146 q 344 88 297 88 q 438 131 393 88 q 517 253 482 174 q 572 442 551 332 l 572 569 q 491 603 529 594 q 418 613 453 613 q 347 600 379 613 q 288 563 314 588 q 245 503 263 539 q 219 422 228 468 q 210 317 210 375 m 417 858 q 242 928 307 858 q 172 1124 178 999 q 182 1152 171 1140 q 219 1164 193 1164 q 256 1153 246 1164 q 269 1124 265 1142 q 317 1021 282 1061 q 417 981 353 981 q 517 1021 482 981 q 564 1124 551 1061 q 577 1153 568 1143 q 613 1164 586 1164 q 651 1152 639 1164 q 661 1124 664 1140 q 626 985 658 1044 q 540 892 594 925 q 417 858 486 858 m 422 1456 q 533 1422 492 1456 q 574 1336 574 1389 q 556 1272 574 1299 q 503 1218 539 1246 q 478 1192 485 1204 q 475 1168 472 1181 l 478 1151 q 469 1126 481 1138 q 439 1110 457 1115 q 405 1110 421 1106 q 382 1129 389 1114 l 367 1171 q 368 1235 354 1207 q 408 1281 382 1263 q 436 1307 429 1296 q 443 1328 443 1318 q 431 1348 443 1340 q 400 1356 418 1356 q 360 1349 382 1356 q 326 1335 339 1342 q 294 1329 308 1322 q 268 1357 279 1336 q 276 1411 250 1389 q 341 1443 303 1431 q 422 1456 379 1456 z "},"ẵ":{"ha":867,"x_min":88,"x_max":865,"o":"m 325 -24 q 199 16 253 -24 q 117 131 146 56 q 88 314 88 206 q 101 449 88 386 q 140 562 114 511 q 203 648 165 613 q 291 702 242 683 q 400 721 340 721 q 489 710 447 721 q 572 676 531 699 l 572 681 q 588 706 572 697 q 633 715 603 715 q 678 706 664 715 q 693 679 693 697 l 693 144 q 697 108 693 122 q 708 89 700 94 q 726 83 715 83 q 747 90 738 83 q 765 109 756 96 q 786 143 774 122 q 804 158 792 156 q 833 150 817 160 q 858 128 851 142 q 858 100 865 115 q 824 39 846 67 q 773 -6 801 11 q 708 -24 744 -24 q 651 -14 675 -24 q 609 15 626 -4 q 583 60 592 33 q 574 119 575 86 q 573 158 574 138 q 572 199 572 178 q 507 76 546 125 q 422 1 468 26 q 325 -24 376 -24 m 210 317 q 223 198 210 250 q 267 117 236 146 q 344 88 297 88 q 438 131 393 88 q 517 253 482 174 q 572 442 551 332 l 572 569 q 491 603 529 594 q 418 613 453 613 q 347 600 379 613 q 288 563 314 588 q 245 503 263 539 q 219 422 228 468 q 210 317 210 375 m 417 858 q 242 928 307 858 q 172 1124 178 999 q 182 1152 171 1140 q 219 1164 193 1164 q 256 1153 246 1164 q 269 1124 265 1142 q 317 1021 282 1061 q 417 981 353 981 q 517 1021 482 981 q 564 1124 551 1061 q 577 1153 568 1143 q 613 1164 586 1164 q 651 1152 639 1164 q 661 1124 664 1140 q 626 985 658 1044 q 540 892 594 925 q 417 858 486 858 m 208 1219 q 161 1256 161 1219 q 197 1400 164 1357 q 292 1443 231 1443 q 367 1428 333 1443 q 431 1394 401 1414 q 486 1358 461 1374 q 533 1343 511 1343 q 560 1361 550 1343 q 571 1415 569 1379 q 618 1446 575 1446 q 657 1436 646 1446 q 668 1407 668 1426 q 636 1272 667 1322 q 536 1221 606 1221 q 457 1236 493 1221 q 392 1272 421 1251 q 339 1308 363 1293 q 294 1324 315 1324 q 270 1308 279 1324 q 258 1256 261 1292 q 244 1228 257 1238 q 208 1219 232 1219 z "}}}
